G04 #@! TF.FileFunction,Soldermask,Top*
%FSLAX46Y46*%
G04 Gerber Fmt 4.6, Leading zero omitted, Abs format (unit mm)*
G04 Created by KiCad (PCBNEW 4.0.4-stable) date 2016 October 10, Monday 23:42:28*
%MOMM*%
%LPD*%
G01*
G04 APERTURE LIST*
%ADD10C,0.100000*%
%ADD11R,1.700000X0.650000*%
%ADD12R,0.650000X1.700000*%
%ADD13R,1.200100X1.200100*%
%ADD14C,1.924000*%
%ADD15R,1.750000X0.800000*%
%ADD16O,1.950000X1.400000*%
%ADD17C,0.900000*%
%ADD18R,1.150000X1.200000*%
%ADD19R,1.200000X1.150000*%
%ADD20R,2.178000X3.194000*%
%ADD21R,1.620000X1.310000*%
%ADD22R,1.197560X1.197560*%
%ADD23C,2.432000*%
%ADD24R,0.900000X1.300000*%
%ADD25R,1.300000X0.900000*%
%ADD26R,1.450000X1.800000*%
%ADD27C,1.100000*%
%ADD28R,2.000000X0.900000*%
G04 APERTURE END LIST*
D10*
D11*
X25622500Y-21355500D03*
X25622500Y-20855500D03*
X25622500Y-20355500D03*
X25622500Y-19855500D03*
X25622500Y-19355500D03*
X25622500Y-18855500D03*
X25622500Y-18355500D03*
X25622500Y-17855500D03*
X25622500Y-17355500D03*
X25622500Y-16855500D03*
X25622500Y-16355500D03*
X25622500Y-15855500D03*
D12*
X24022500Y-14255500D03*
X23522500Y-14255500D03*
X23022500Y-14255500D03*
X22522500Y-14255500D03*
X22022500Y-14255500D03*
X21522500Y-14255500D03*
X21022500Y-14255500D03*
X20522500Y-14255500D03*
X20022500Y-14255500D03*
X19522500Y-14255500D03*
X19022500Y-14255500D03*
X18522500Y-14255500D03*
D11*
X16922500Y-15855500D03*
X16922500Y-16355500D03*
X16922500Y-16855500D03*
X16922500Y-17355500D03*
X16922500Y-17855500D03*
X16922500Y-18355500D03*
X16922500Y-18855500D03*
X16922500Y-19355500D03*
X16922500Y-19855500D03*
X16922500Y-20355500D03*
X16922500Y-20855500D03*
X16922500Y-21355500D03*
D12*
X18522500Y-22955500D03*
X19022500Y-22955500D03*
X19522500Y-22955500D03*
X20022500Y-22955500D03*
X20522500Y-22955500D03*
X21022500Y-22955500D03*
X21522500Y-22955500D03*
X22022500Y-22955500D03*
X22522500Y-22955500D03*
X23022500Y-22955500D03*
X23522500Y-22955500D03*
X24022500Y-22955500D03*
D13*
X9713000Y-25923240D03*
X7813000Y-25923240D03*
X8763000Y-27922220D03*
D14*
X32893000Y-25527000D03*
D15*
X6007540Y-17749100D03*
X6007540Y-18399100D03*
X6007540Y-19049100D03*
X6007540Y-19699100D03*
X6007540Y-20349100D03*
D16*
X2540000Y-15113000D03*
X2540000Y-22987000D03*
D17*
X4845000Y-21050000D03*
X4845000Y-17050000D03*
D18*
X29400500Y-17069500D03*
X29400500Y-15569500D03*
X25781000Y-23126000D03*
X25781000Y-24626000D03*
D19*
X16752000Y-22987000D03*
X15252000Y-22987000D03*
D18*
X16764000Y-14085000D03*
X16764000Y-12585000D03*
D19*
X10656000Y-21336000D03*
X9156000Y-21336000D03*
X10656000Y-16637000D03*
X9156000Y-16637000D03*
D20*
X8509000Y-7683500D03*
X12065000Y-7683500D03*
D18*
X12382500Y-13664500D03*
X12382500Y-15164500D03*
X12382500Y-9981500D03*
X12382500Y-11481500D03*
X30924500Y-19125500D03*
X30924500Y-20625500D03*
X30924500Y-15569500D03*
X30924500Y-17069500D03*
D21*
X7366000Y-9858500D03*
X7366000Y-13128500D03*
D22*
X1270000Y-6464300D03*
X1270000Y-4965700D03*
X1270000Y-31635700D03*
X1270000Y-33134300D03*
D23*
X33020000Y-2540000D03*
X35560000Y-2540000D03*
X17780000Y-2540000D03*
X20320000Y-2540000D03*
X22860000Y-2540000D03*
X30480000Y-2540000D03*
X27940000Y-2540000D03*
X25400000Y-2540000D03*
X10160000Y-2540000D03*
X12700000Y-2540000D03*
X15240000Y-2540000D03*
X7620000Y-2540000D03*
X5080000Y-2540000D03*
X2540000Y-2540000D03*
X33020000Y-35560000D03*
X35560000Y-35560000D03*
X17780000Y-35560000D03*
X20320000Y-35560000D03*
X22860000Y-35560000D03*
X30480000Y-35560000D03*
X27940000Y-35560000D03*
X25400000Y-35560000D03*
X10160000Y-35560000D03*
X12700000Y-35560000D03*
X15240000Y-35560000D03*
X7620000Y-35560000D03*
X5080000Y-35560000D03*
X2540000Y-35560000D03*
X35560000Y-20256500D03*
X35560000Y-22796500D03*
X35560000Y-25336500D03*
X35560000Y-32956500D03*
X35560000Y-30416500D03*
X35560000Y-27876500D03*
X35560000Y-12636500D03*
X35560000Y-15176500D03*
X35560000Y-17716500D03*
X35560000Y-10096500D03*
X35560000Y-7556500D03*
X35560000Y-5016500D03*
D13*
X13015000Y-25923240D03*
X11115000Y-25923240D03*
X12065000Y-27922220D03*
D24*
X13132500Y-29337000D03*
X11632500Y-29337000D03*
X10529000Y-29337000D03*
X9029000Y-29337000D03*
X10529000Y-18224500D03*
X9029000Y-18224500D03*
X10529000Y-19812000D03*
X9029000Y-19812000D03*
X10529000Y-24511000D03*
X9029000Y-24511000D03*
X13132500Y-24511000D03*
X11632500Y-24511000D03*
X10529000Y-22923500D03*
X9029000Y-22923500D03*
X31103000Y-14033500D03*
X29603000Y-14033500D03*
D25*
X2921000Y-6528500D03*
X2921000Y-5028500D03*
X4445000Y-10870500D03*
X4445000Y-12370500D03*
X4445000Y-7949500D03*
X4445000Y-9449500D03*
X2921000Y-31508000D03*
X2921000Y-33008000D03*
X4445000Y-30150500D03*
X4445000Y-28650500D03*
X4445000Y-25729500D03*
X4445000Y-27229500D03*
D26*
X2630000Y-11960000D03*
X2630000Y-8360000D03*
X1180000Y-11960000D03*
X1180000Y-8360000D03*
D27*
X2805000Y-10160000D03*
X1005000Y-10160000D03*
D26*
X2630000Y-29740000D03*
X2630000Y-26140000D03*
X1180000Y-29740000D03*
X1180000Y-26140000D03*
D27*
X2805000Y-27940000D03*
X1005000Y-27940000D03*
D13*
X11033760Y-15174000D03*
X11033760Y-13274000D03*
X9034780Y-14224000D03*
X11033760Y-11872000D03*
X11033760Y-9972000D03*
X9034780Y-10922000D03*
D28*
X29146500Y-18358000D03*
X29146500Y-19558000D03*
X29146500Y-20758000D03*
D14*
X30543500Y-5461000D03*
X32829500Y-7556500D03*
X30226000Y-25463500D03*
M02*
