G04 #@! TF.FileFunction,Soldermask,Bot*
%FSLAX46Y46*%
G04 Gerber Fmt 4.6, Leading zero omitted, Abs format (unit mm)*
G04 Created by KiCad (PCBNEW 4.0.4-stable) date 2016 October 10, Monday 23:42:28*
%MOMM*%
%LPD*%
G01*
G04 APERTURE LIST*
%ADD10C,0.100000*%
%ADD11C,1.924000*%
%ADD12O,1.950000X1.400000*%
%ADD13C,0.900000*%
%ADD14C,2.432000*%
%ADD15C,1.100000*%
G04 APERTURE END LIST*
D10*
D11*
X32893000Y-25527000D03*
D12*
X2540000Y-15113000D03*
X2540000Y-22987000D03*
D13*
X4845000Y-21050000D03*
X4845000Y-17050000D03*
D14*
X33020000Y-2540000D03*
X35560000Y-2540000D03*
X17780000Y-2540000D03*
X20320000Y-2540000D03*
X22860000Y-2540000D03*
X30480000Y-2540000D03*
X27940000Y-2540000D03*
X25400000Y-2540000D03*
X10160000Y-2540000D03*
X12700000Y-2540000D03*
X15240000Y-2540000D03*
X7620000Y-2540000D03*
X5080000Y-2540000D03*
X2540000Y-2540000D03*
X33020000Y-35560000D03*
X35560000Y-35560000D03*
X17780000Y-35560000D03*
X20320000Y-35560000D03*
X22860000Y-35560000D03*
X30480000Y-35560000D03*
X27940000Y-35560000D03*
X25400000Y-35560000D03*
X10160000Y-35560000D03*
X12700000Y-35560000D03*
X15240000Y-35560000D03*
X7620000Y-35560000D03*
X5080000Y-35560000D03*
X2540000Y-35560000D03*
X35560000Y-20256500D03*
X35560000Y-22796500D03*
X35560000Y-25336500D03*
X35560000Y-32956500D03*
X35560000Y-30416500D03*
X35560000Y-27876500D03*
X35560000Y-12636500D03*
X35560000Y-15176500D03*
X35560000Y-17716500D03*
X35560000Y-10096500D03*
X35560000Y-7556500D03*
X35560000Y-5016500D03*
D15*
X2805000Y-10160000D03*
X1005000Y-10160000D03*
X2805000Y-27940000D03*
X1005000Y-27940000D03*
D11*
X30543500Y-5461000D03*
X32829500Y-7556500D03*
X30226000Y-25463500D03*
M02*
