M48
;DRILL file {KiCad 4.0.4-stable} date 2016 October 10, Monday 23:42:36
;FORMAT={-:-/ absolute / inch / decimal}
FMAT,2
INCH,TZ
T1C0.016
T2C0.020
T3C0.030
T4C0.060
T5C0.028
%
G90
G05
M72
T1
X0.16Y-0.5825
X0.165Y-0.395
X0.17Y-1.285
X0.1725Y-1.3275
X0.1975Y-1.0525
X0.2525Y-1.21
X0.26Y-1.16
X0.285Y-1.065
X0.3775Y-0.825
X0.39Y-1.0675
X0.3925Y-0.5525
X0.4175Y-1.095
X0.45Y-0.905
X0.465Y-0.5575
X0.485Y-0.87
X0.5Y-0.9475
X0.5125Y-0.8325
X0.53Y-0.365
X0.53Y-0.495
X0.53Y-0.57
X0.55Y-0.6475
X0.5525Y-0.68
X0.5525Y-0.715
X0.5525Y-0.75
X0.5725Y-0.995
X0.5825Y-0.255
X0.675Y-1.13
X0.695Y-0.6025
X0.6975Y-0.895
X0.7025Y-1.0225
X0.7125Y-0.4825
X0.715Y-0.63
X0.715Y-0.665
X0.7175Y-0.77
X0.7175Y-0.8525
X0.725Y-0.995
X0.73Y-0.82
X0.7425Y-0.965
X0.7475Y-0.32
X0.7475Y-0.715
X0.7525Y-0.4825
X0.7675Y-0.82
X0.775Y-0.3475
X0.785Y-0.485
X0.7975Y-0.6575
X0.8025Y-0.375
X0.8225Y-0.68
X0.825Y-0.4825
X0.83Y-0.4
X0.83Y-0.445
X0.85Y-0.71
X0.875Y-0.735
X0.8775Y-0.7875
X0.8775Y-1.1875
X0.88Y-0.825
X0.8975Y-0.6425
X0.8975Y-0.68
X0.9025Y-0.4475
X0.91Y-0.735
X0.9175Y-0.615
X0.925Y-0.4725
X0.9325Y-1.0075
X0.9375Y-0.85
X0.95Y-0.4975
X0.9575Y-1.0275
X0.975Y-0.5225
X0.985Y-0.58
X0.985Y-1.0525
X1.0075Y-1.0775
X1.0325Y-1.1
X1.0475Y-0.975
X1.055Y-1.1225
X1.0675Y-0.625
X1.085Y-0.71
X1.085Y-1.0175
X1.187Y-0.753
X1.2425Y-1.06
X1.255Y-1.255
X1.2975Y-0.7575
X1.3125Y-0.8025
X1.33Y-0.61
T2
X0.1907Y-0.6713
X0.1907Y-0.8287
T3
X1.19Y-1.0025
X1.2025Y-0.215
X1.2925Y-0.2975
X1.295Y-1.005
T4
X0.1Y-0.1
X0.1Y-1.4
X0.2Y-0.1
X0.2Y-1.4
X0.3Y-0.1
X0.3Y-1.4
X0.4Y-0.1
X0.4Y-1.4
X0.5Y-0.1
X0.5Y-1.4
X0.6Y-0.1
X0.6Y-1.4
X0.7Y-0.1
X0.7Y-1.4
X0.8Y-0.1
X0.8Y-1.4
X0.9Y-0.1
X0.9Y-1.4
X1.Y-0.1
X1.Y-1.4
X1.1Y-0.1
X1.1Y-1.4
X1.2Y-0.1
X1.2Y-1.4
X1.3Y-0.1
X1.3Y-1.4
X1.4Y-0.1
X1.4Y-0.1975
X1.4Y-0.2975
X1.4Y-0.3975
X1.4Y-0.4975
X1.4Y-0.5975
X1.4Y-0.6975
X1.4Y-0.7975
X1.4Y-0.8975
X1.4Y-0.9975
X1.4Y-1.0975
X1.4Y-1.1975
X1.4Y-1.2975
X1.4Y-1.4
T5
X0.0396Y-0.4
X0.0396Y-1.1
X0.1104Y-0.4
X0.1104Y-1.1
T2
X0.0872Y-0.595G85X0.1128Y-0.595
G05
X0.0872Y-0.905G85X0.1128Y-0.905
G05
T0
M30
