G04 #@! TF.FileFunction,Copper,L2,Bot,Signal*
%FSLAX46Y46*%
G04 Gerber Fmt 4.6, Leading zero omitted, Abs format (unit mm)*
G04 Created by KiCad (PCBNEW 4.0.4-stable) date 2016 October 10, Monday 23:42:28*
%MOMM*%
%LPD*%
G01*
G04 APERTURE LIST*
%ADD10C,0.100000*%
%ADD11C,1.524000*%
%ADD12O,1.550000X1.000000*%
%ADD13C,0.500000*%
%ADD14C,2.032000*%
%ADD15C,0.600000*%
%ADD16C,0.250000*%
%ADD17C,0.400000*%
%ADD18C,0.254000*%
G04 APERTURE END LIST*
D10*
D11*
X32893000Y-25527000D03*
D12*
X2540000Y-15113000D03*
X2540000Y-22987000D03*
D13*
X4845000Y-21050000D03*
X4845000Y-17050000D03*
D14*
X33020000Y-2540000D03*
X35560000Y-2540000D03*
X17780000Y-2540000D03*
X20320000Y-2540000D03*
X22860000Y-2540000D03*
X30480000Y-2540000D03*
X27940000Y-2540000D03*
X25400000Y-2540000D03*
X10160000Y-2540000D03*
X12700000Y-2540000D03*
X15240000Y-2540000D03*
X7620000Y-2540000D03*
X5080000Y-2540000D03*
X2540000Y-2540000D03*
X33020000Y-35560000D03*
X35560000Y-35560000D03*
X17780000Y-35560000D03*
X20320000Y-35560000D03*
X22860000Y-35560000D03*
X30480000Y-35560000D03*
X27940000Y-35560000D03*
X25400000Y-35560000D03*
X10160000Y-35560000D03*
X12700000Y-35560000D03*
X15240000Y-35560000D03*
X7620000Y-35560000D03*
X5080000Y-35560000D03*
X2540000Y-35560000D03*
X35560000Y-20256500D03*
X35560000Y-22796500D03*
X35560000Y-25336500D03*
X35560000Y-32956500D03*
X35560000Y-30416500D03*
X35560000Y-27876500D03*
X35560000Y-12636500D03*
X35560000Y-15176500D03*
X35560000Y-17716500D03*
X35560000Y-10096500D03*
X35560000Y-7556500D03*
X35560000Y-5016500D03*
D11*
X30543500Y-5461000D03*
X32829500Y-7556500D03*
X30226000Y-25463500D03*
D15*
X18097500Y-12255500D03*
X22796500Y-17272000D03*
X22796500Y-16319500D03*
X19113500Y-12255500D03*
X6413500Y-30734000D03*
X12319000Y-22098000D03*
X11811000Y-14160500D03*
X10604500Y-27813000D03*
X26606500Y-24765000D03*
X14541500Y-25273000D03*
X5016500Y-26733500D03*
X13462000Y-14478000D03*
X13462000Y-12573000D03*
X9906000Y-27114500D03*
X12700000Y-24066500D03*
X13017500Y-21145500D03*
X13462000Y-9271000D03*
X9588500Y-20955000D03*
X30150500Y-19125500D03*
X18224500Y-19558000D03*
X14033500Y-19050000D03*
X31559500Y-26924000D03*
X9969500Y-14033500D03*
X7239000Y-27051000D03*
X18542000Y-20828000D03*
X21082000Y-10160000D03*
X22923500Y-11366500D03*
X13970000Y-16446500D03*
X14033500Y-18161000D03*
X14033500Y-17272000D03*
X24765000Y-13271500D03*
X18986500Y-8128000D03*
X19685000Y-8826500D03*
X24130000Y-12636500D03*
X20383500Y-9525000D03*
X23495000Y-12001500D03*
X21082000Y-11303000D03*
X25019000Y-14732000D03*
X27114500Y-15875000D03*
X20955000Y-12255500D03*
X19939000Y-12319000D03*
X23304500Y-15621000D03*
X14795500Y-6477000D03*
X25019000Y-26733500D03*
X17653000Y-15303500D03*
X25590500Y-27368500D03*
X23812500Y-21590000D03*
X19494500Y-20828000D03*
X18161000Y-16002000D03*
X22288500Y-30162500D03*
X17145000Y-28702000D03*
X11430000Y-22987000D03*
X4064000Y-14795500D03*
X4191000Y-10033000D03*
X24320500Y-26098500D03*
X23114000Y-18669000D03*
X23685500Y-25590500D03*
X22225000Y-18669000D03*
X4318000Y-32639000D03*
X20256500Y-16700500D03*
X18859500Y-24511000D03*
X18415000Y-25273000D03*
X20891500Y-17272000D03*
X17843500Y-25971500D03*
X21590000Y-18034000D03*
X4381500Y-33718500D03*
X26225500Y-27940000D03*
X22288500Y-20002500D03*
X18986500Y-18161000D03*
X18161000Y-16891000D03*
X26797000Y-28511500D03*
X22352000Y-20955000D03*
X31877000Y-31877000D03*
X27559000Y-18034000D03*
X27559000Y-25844500D03*
X6604000Y-29464000D03*
X32956500Y-19240500D03*
X33337500Y-20383500D03*
X33782000Y-15494000D03*
X18224500Y-21653500D03*
X17716500Y-22733000D03*
D16*
X18097500Y-12573000D02*
X18097500Y-12255500D01*
X22796500Y-17272000D02*
X18097500Y-12573000D01*
X22796500Y-16319500D02*
X19113500Y-12636500D01*
X19113500Y-12636500D02*
X19113500Y-12255500D01*
D17*
X32893000Y-25527000D02*
X32893000Y-28130500D01*
X32893000Y-28130500D02*
X33210500Y-28448000D01*
X6413500Y-32004000D02*
X6413500Y-30734000D01*
X7112000Y-32702500D02*
X6413500Y-32004000D01*
X32702500Y-32702500D02*
X7112000Y-32702500D01*
X33210500Y-32194500D02*
X32702500Y-32702500D01*
X33210500Y-28448000D02*
X33210500Y-32194500D01*
X12319000Y-22098000D02*
X12128500Y-22098000D01*
X11747500Y-14224000D02*
X11747500Y-20701000D01*
X11811000Y-14160500D02*
X11747500Y-14224000D01*
X10604500Y-27813000D02*
X11811000Y-26606500D01*
X11811000Y-26606500D02*
X11811000Y-23622000D01*
X11811000Y-23622000D02*
X12382500Y-23050500D01*
X12382500Y-23050500D02*
X12382500Y-22352000D01*
X12382500Y-22352000D02*
X12128500Y-22098000D01*
X12128500Y-22098000D02*
X11747500Y-21717000D01*
X11747500Y-21717000D02*
X11747500Y-20701000D01*
X13462000Y-12573000D02*
X13462000Y-9271000D01*
X13462000Y-14478000D02*
X13462000Y-12573000D01*
X12700000Y-24003000D02*
X12700000Y-24066500D01*
X13081000Y-23622000D02*
X12700000Y-24003000D01*
X13081000Y-21209000D02*
X13081000Y-23622000D01*
X13017500Y-21145500D02*
X13081000Y-21209000D01*
D16*
X9906000Y-27114500D02*
X9906000Y-27178000D01*
X30150500Y-19125500D02*
X30099000Y-19177000D01*
X17716500Y-7620000D02*
X17716500Y-7556500D01*
X17716500Y-7556500D02*
X19177000Y-6096000D01*
X30035500Y-3937000D02*
X31623000Y-3937000D01*
X29464000Y-4508500D02*
X30035500Y-3937000D01*
X27559000Y-4508500D02*
X29464000Y-4508500D01*
X27051000Y-5016500D02*
X27559000Y-4508500D01*
X25146000Y-5016500D02*
X27051000Y-5016500D01*
X24574500Y-5588000D02*
X25146000Y-5016500D01*
X23050500Y-5588000D02*
X24574500Y-5588000D01*
X22542500Y-6096000D02*
X23050500Y-5588000D01*
X19177000Y-6096000D02*
X22542500Y-6096000D01*
X31623000Y-3937000D02*
X33020000Y-2540000D01*
X18224500Y-19558000D02*
X17589500Y-18923000D01*
X17589500Y-18923000D02*
X17589500Y-18351500D01*
X17589500Y-18351500D02*
X16510000Y-17272000D01*
X16510000Y-17272000D02*
X16510000Y-11112500D01*
X16510000Y-11112500D02*
X17716500Y-9906000D01*
X17716500Y-9906000D02*
X17716500Y-7620000D01*
X17240250Y-7334250D02*
X17240250Y-7270750D01*
X27368500Y-3937000D02*
X29083000Y-3937000D01*
X26797000Y-4508500D02*
X27368500Y-3937000D01*
X24897502Y-4508500D02*
X26797000Y-4508500D01*
X24326002Y-5080000D02*
X24897502Y-4508500D01*
X22733000Y-5080000D02*
X24326002Y-5080000D01*
X22225000Y-5588000D02*
X22733000Y-5080000D01*
X18923000Y-5588000D02*
X22225000Y-5588000D01*
X17240250Y-7270750D02*
X18923000Y-5588000D01*
X30480000Y-2540000D02*
X29019500Y-4000500D01*
X29019500Y-4000500D02*
X29019500Y-3937000D01*
X29019500Y-3937000D02*
X29019500Y-4000500D01*
X29083000Y-3937000D02*
X29019500Y-3937000D01*
X17208500Y-7366000D02*
X17240250Y-7334250D01*
X17208500Y-9773498D02*
X17208500Y-7366000D01*
X16002000Y-10979998D02*
X17208500Y-9773498D01*
X16002000Y-17081500D02*
X16002000Y-10979998D01*
X14033500Y-19050000D02*
X16002000Y-17081500D01*
D17*
X29718000Y-27940000D02*
X29718000Y-27322002D01*
X29718000Y-27322002D02*
X29989002Y-27051000D01*
X29989002Y-27051000D02*
X31432500Y-27051000D01*
X31432500Y-27051000D02*
X31559500Y-26924000D01*
X27114500Y-30289500D02*
X27432000Y-30289500D01*
X29718000Y-28003500D02*
X29718000Y-27940000D01*
X27432000Y-30289500D02*
X29718000Y-28003500D01*
X29718000Y-27322002D02*
X29718000Y-27368500D01*
X29718000Y-27368500D02*
X29718000Y-27322002D01*
X17113250Y-27844750D02*
X21177250Y-27844750D01*
X23622000Y-30289500D02*
X27114500Y-30289500D01*
X21177250Y-27844750D02*
X23622000Y-30289500D01*
X31559500Y-26924000D02*
X31432500Y-27051000D01*
X31432500Y-27051000D02*
X29989002Y-27051000D01*
X29989002Y-27051000D02*
X29718000Y-27322002D01*
X16129000Y-22288500D02*
X16129000Y-24828500D01*
X16129000Y-24828500D02*
X16002000Y-24955500D01*
X12700000Y-13271500D02*
X12700000Y-14986000D01*
X31432500Y-27051000D02*
X31559500Y-26924000D01*
X16002000Y-24955500D02*
X16002000Y-26733500D01*
X16002000Y-26733500D02*
X17113250Y-27844750D01*
X13208000Y-19367500D02*
X16129000Y-22288500D01*
X13208000Y-15494000D02*
X13208000Y-19367500D01*
X12700000Y-14986000D02*
X13208000Y-15494000D01*
X9906000Y-13970000D02*
X9969500Y-14033500D01*
X9906000Y-13208000D02*
X9906000Y-13970000D01*
X10604500Y-12509500D02*
X9906000Y-13208000D01*
X11938000Y-12509500D02*
X10604500Y-12509500D01*
X12700000Y-13271500D02*
X11938000Y-12509500D01*
X5651500Y-28257500D02*
X5651500Y-32385000D01*
X33909000Y-29527500D02*
X35560000Y-27876500D01*
X33909000Y-32766000D02*
X33909000Y-29527500D01*
X33337500Y-33337500D02*
X33909000Y-32766000D01*
X6604000Y-33337500D02*
X33337500Y-33337500D01*
X5651500Y-32385000D02*
X6604000Y-33337500D01*
X5651500Y-28257500D02*
X5651500Y-28194000D01*
X5651500Y-28194000D02*
X6794500Y-27051000D01*
X6794500Y-27051000D02*
X7239000Y-27051000D01*
X35560000Y-27876500D02*
X34988500Y-28448000D01*
X35560000Y-27876500D02*
X35115500Y-28321000D01*
D16*
X25463500Y-5524500D02*
X30480000Y-5524500D01*
X30480000Y-5524500D02*
X30543500Y-5461000D01*
X18224500Y-9969500D02*
X18224500Y-7874000D01*
X24892000Y-6096000D02*
X25463500Y-5524500D01*
X23368000Y-6096000D02*
X24892000Y-6096000D01*
X22860000Y-6604000D02*
X23368000Y-6096000D01*
X19494500Y-6604000D02*
X22860000Y-6604000D01*
X18224500Y-7874000D02*
X19494500Y-6604000D01*
X18224500Y-10096500D02*
X18224500Y-9969500D01*
X17018000Y-11303000D02*
X18224500Y-10096500D01*
X17018000Y-17081500D02*
X17018000Y-11303000D01*
X18986500Y-19050000D02*
X17018000Y-17081500D01*
X18986500Y-20383500D02*
X18986500Y-19050000D01*
X18542000Y-20828000D02*
X18986500Y-20383500D01*
X21082000Y-10160000D02*
X21082000Y-10287000D01*
X22161500Y-11366500D02*
X22923500Y-11366500D01*
X21082000Y-10287000D02*
X22161500Y-11366500D01*
X15557500Y-6540500D02*
X18097500Y-4000500D01*
X21399500Y-4000500D02*
X22860000Y-2540000D01*
X18097500Y-4000500D02*
X21399500Y-4000500D01*
X14414500Y-16002000D02*
X13970000Y-16446500D01*
X14414500Y-10160000D02*
X14414500Y-16002000D01*
X15557500Y-9017000D02*
X14414500Y-10160000D01*
X15557500Y-6540500D02*
X15557500Y-9017000D01*
X16700500Y-7112000D02*
X18732500Y-5080000D01*
X24701500Y-4000500D02*
X26479500Y-4000500D01*
X24130000Y-4572000D02*
X24701500Y-4000500D01*
X22479000Y-4572000D02*
X24130000Y-4572000D01*
X21971000Y-5080000D02*
X22479000Y-4572000D01*
X18732500Y-5080000D02*
X21971000Y-5080000D01*
X26479500Y-4000500D02*
X27940000Y-2540000D01*
X16700500Y-9588500D02*
X16700500Y-7112000D01*
X15494000Y-10795000D02*
X16700500Y-9588500D01*
X15494000Y-16700500D02*
X15494000Y-10795000D01*
X14033500Y-18161000D02*
X15494000Y-16700500D01*
X17653000Y-5334000D02*
X17716500Y-5334000D01*
X23876000Y-4064000D02*
X25400000Y-2540000D01*
X22225000Y-4064000D02*
X23876000Y-4064000D01*
X21780500Y-4508500D02*
X22225000Y-4064000D01*
X18542000Y-4508500D02*
X21780500Y-4508500D01*
X17716500Y-5334000D02*
X18542000Y-4508500D01*
X16129000Y-6858000D02*
X17653000Y-5334000D01*
X16129000Y-9398000D02*
X16129000Y-6858000D01*
X14986000Y-10541000D02*
X16129000Y-9398000D01*
X14986000Y-16319500D02*
X14986000Y-10541000D01*
X14033500Y-17272000D02*
X14986000Y-16319500D01*
X18986500Y-8128000D02*
X20193000Y-8128000D01*
X24765000Y-12382500D02*
X24765000Y-13271500D01*
X24701500Y-12319000D02*
X24765000Y-12382500D01*
X24701500Y-10604500D02*
X24701500Y-12319000D01*
X23685500Y-9588500D02*
X24701500Y-10604500D01*
X23177500Y-9588500D02*
X23685500Y-9588500D01*
X21907500Y-8318500D02*
X23177500Y-9588500D01*
X20383500Y-8318500D02*
X21907500Y-8318500D01*
X20193000Y-8128000D02*
X20383500Y-8318500D01*
X19685000Y-8826500D02*
X21653500Y-8826500D01*
X24193500Y-12573000D02*
X24130000Y-12636500D01*
X24193500Y-10795000D02*
X24193500Y-12573000D01*
X23495000Y-10096500D02*
X24193500Y-10795000D01*
X22923500Y-10096500D02*
X23495000Y-10096500D01*
X21653500Y-8826500D02*
X22923500Y-10096500D01*
X20383500Y-9525000D02*
X20701000Y-9525000D01*
X23685500Y-11811000D02*
X23495000Y-12001500D01*
X23685500Y-10985500D02*
X23685500Y-11811000D01*
X23368000Y-10668000D02*
X23685500Y-10985500D01*
X22288500Y-10668000D02*
X23368000Y-10668000D01*
X21780500Y-10160000D02*
X22288500Y-10668000D01*
X21780500Y-9715500D02*
X21780500Y-10160000D01*
X21463000Y-9398000D02*
X21780500Y-9715500D01*
X20828000Y-9398000D02*
X21463000Y-9398000D01*
X20701000Y-9525000D02*
X20828000Y-9398000D01*
X21082000Y-11303000D02*
X21145500Y-11303000D01*
X24320500Y-14732000D02*
X25019000Y-14732000D01*
X21653500Y-12065000D02*
X24320500Y-14732000D01*
X21653500Y-11811000D02*
X21653500Y-12065000D01*
X21145500Y-11303000D02*
X21653500Y-11811000D01*
X27114500Y-15875000D02*
X26733500Y-15494000D01*
X26733500Y-15494000D02*
X24320500Y-15494000D01*
X24320500Y-15494000D02*
X21082000Y-12255500D01*
X21082000Y-12255500D02*
X20955000Y-12255500D01*
X20002500Y-12319000D02*
X19939000Y-12319000D01*
X23304500Y-15621000D02*
X20002500Y-12319000D01*
X12382500Y-4064000D02*
X4064000Y-4064000D01*
X14795500Y-6477000D02*
X12382500Y-4064000D01*
X4064000Y-4064000D02*
X2540000Y-2540000D01*
X23304500Y-17907000D02*
X23939500Y-18542000D01*
X25019000Y-25527000D02*
X25019000Y-26733500D01*
X25527000Y-25019000D02*
X25019000Y-25527000D01*
X25527000Y-20447000D02*
X25527000Y-25019000D01*
X23939500Y-18859500D02*
X25527000Y-20447000D01*
X23939500Y-18542000D02*
X23939500Y-18859500D01*
X17653000Y-15303500D02*
X19939000Y-15303500D01*
X19939000Y-15303500D02*
X22542500Y-17907000D01*
X22542500Y-17907000D02*
X23304500Y-17907000D01*
X25400000Y-27559000D02*
X25590500Y-27368500D01*
X24701500Y-27559000D02*
X25400000Y-27559000D01*
X22860000Y-25717500D02*
X24701500Y-27559000D01*
X22860000Y-25082500D02*
X22860000Y-25717500D01*
X23876000Y-24066500D02*
X22860000Y-25082500D01*
X23876000Y-21653500D02*
X23876000Y-24066500D01*
X23812500Y-21590000D02*
X23876000Y-21653500D01*
X19558000Y-20828000D02*
X19494500Y-20828000D01*
X19621500Y-20891500D02*
X19558000Y-20828000D01*
X19621500Y-17462500D02*
X19621500Y-20891500D01*
X18161000Y-16002000D02*
X19621500Y-17462500D01*
X17145000Y-28702000D02*
X17335500Y-28702000D01*
X22288500Y-29845000D02*
X22288500Y-30162500D01*
X20891500Y-28448000D02*
X22288500Y-29845000D01*
X17589500Y-28448000D02*
X20891500Y-28448000D01*
X17335500Y-28702000D02*
X17589500Y-28448000D01*
X17145000Y-28702000D02*
X17335500Y-28511500D01*
X4064000Y-16256000D02*
X4064000Y-14986000D01*
X11430000Y-22987000D02*
X10541000Y-22098000D01*
X10541000Y-22098000D02*
X3683000Y-22098000D01*
X3683000Y-22098000D02*
X3175000Y-21590000D01*
X3175000Y-21590000D02*
X3175000Y-17145000D01*
X3175000Y-17145000D02*
X4064000Y-16256000D01*
X4064000Y-14795500D02*
X4064000Y-14986000D01*
X4191000Y-10033000D02*
X4191000Y-10223500D01*
X3683000Y-14351000D02*
X4064000Y-14732000D01*
X3683000Y-10731500D02*
X3683000Y-14351000D01*
X4191000Y-10223500D02*
X3683000Y-10731500D01*
X4064000Y-14986000D02*
X4064000Y-14732000D01*
X23114000Y-18669000D02*
X23114000Y-18859500D01*
X24320500Y-25336500D02*
X24320500Y-26098500D01*
X25019000Y-24638000D02*
X24320500Y-25336500D01*
X25019000Y-20764500D02*
X25019000Y-24638000D01*
X23114000Y-18859500D02*
X25019000Y-20764500D01*
X24511000Y-20955000D02*
X24511000Y-24384000D01*
X23685500Y-25019000D02*
X23685500Y-25590500D01*
X24066500Y-24638000D02*
X23685500Y-25019000D01*
X24257000Y-24638000D02*
X24066500Y-24638000D01*
X24511000Y-24384000D02*
X24257000Y-24638000D01*
X22225000Y-18669000D02*
X24511000Y-20955000D01*
X4318000Y-32639000D02*
X4699000Y-32639000D01*
X6032500Y-33909000D02*
X15113000Y-33909000D01*
X5778500Y-33655000D02*
X6032500Y-33909000D01*
X5715000Y-33655000D02*
X5778500Y-33655000D01*
X4699000Y-32639000D02*
X5715000Y-33655000D01*
X23749000Y-33909000D02*
X25400000Y-35560000D01*
X15113000Y-33909000D02*
X23749000Y-33909000D01*
X19304000Y-24955500D02*
X19050000Y-24701500D01*
X20066000Y-24955500D02*
X19304000Y-24955500D01*
X20256500Y-24765000D02*
X20066000Y-24955500D01*
X20256500Y-23495000D02*
X20256500Y-24765000D01*
X20510500Y-23241000D02*
X20256500Y-23495000D01*
X20510500Y-18923000D02*
X20510500Y-23241000D01*
X20320000Y-18732500D02*
X20510500Y-18923000D01*
X20320000Y-18161000D02*
X20320000Y-18732500D01*
X20193000Y-18034000D02*
X20320000Y-18161000D01*
X20193000Y-16764000D02*
X20193000Y-18034000D01*
X20256500Y-16700500D02*
X20193000Y-16764000D01*
X19050000Y-24701500D02*
X18923000Y-24574500D01*
X18923000Y-24574500D02*
X18923000Y-24511000D01*
X18923000Y-24511000D02*
X18859500Y-24511000D01*
X21082000Y-18605500D02*
X21082000Y-23495000D01*
X18351500Y-25336500D02*
X18415000Y-25273000D01*
X18663498Y-25648498D02*
X18351500Y-25336500D01*
X20516002Y-25648498D02*
X18663498Y-25648498D01*
X20828000Y-25336500D02*
X20516002Y-25648498D01*
X20828000Y-23749000D02*
X20828000Y-25336500D01*
X21082000Y-23495000D02*
X20828000Y-23749000D01*
X20891500Y-17272000D02*
X20891500Y-18415000D01*
X20891500Y-18415000D02*
X21082000Y-18605500D01*
X21336000Y-24638000D02*
X21336000Y-25590500D01*
X17907000Y-25971500D02*
X17843500Y-25971500D01*
X18034000Y-26098500D02*
X17907000Y-25971500D01*
X20828000Y-26098500D02*
X18034000Y-26098500D01*
X21336000Y-25590500D02*
X20828000Y-26098500D01*
X21590000Y-18034000D02*
X21590000Y-23749000D01*
X21336000Y-24003000D02*
X21336000Y-24638000D01*
X21590000Y-23749000D02*
X21336000Y-24003000D01*
X2540000Y-35560000D02*
X4381500Y-33718500D01*
X2540000Y-35560000D02*
X2540000Y-35496500D01*
X24447500Y-28067000D02*
X25781000Y-28067000D01*
X25781000Y-28067000D02*
X25971500Y-27876500D01*
X26162000Y-27876500D02*
X26225500Y-27940000D01*
X25971500Y-27876500D02*
X26162000Y-27876500D01*
X23082250Y-23907750D02*
X23082250Y-24034750D01*
X22352000Y-25971500D02*
X24447500Y-28067000D01*
X22352000Y-24765000D02*
X22352000Y-25971500D01*
X23082250Y-24034750D02*
X22352000Y-24765000D01*
X23114000Y-23876000D02*
X23082250Y-23907750D01*
X23114000Y-20828000D02*
X23114000Y-23876000D01*
X22288500Y-20002500D02*
X23114000Y-20828000D01*
X18986500Y-17716500D02*
X18986500Y-18161000D01*
X18161000Y-16891000D02*
X18986500Y-17716500D01*
X26797000Y-28511500D02*
X26733500Y-28575000D01*
X26733500Y-28575000D02*
X24257000Y-28575000D01*
X26733500Y-28575000D02*
X26670000Y-28575000D01*
X24257000Y-28575000D02*
X26670000Y-28575000D01*
X22352000Y-21145500D02*
X22606000Y-21399500D01*
X22606000Y-21399500D02*
X22606000Y-23685500D01*
X22606000Y-23685500D02*
X21844000Y-24447500D01*
X21844000Y-24447500D02*
X21844000Y-26162000D01*
X21844000Y-26162000D02*
X24257000Y-28575000D01*
X22352000Y-20955000D02*
X22352000Y-21145500D01*
X31686500Y-32067500D02*
X28702000Y-32067500D01*
X31877000Y-31877000D02*
X31686500Y-32067500D01*
X27559000Y-25844500D02*
X27559000Y-25711998D01*
X27813000Y-18288000D02*
X27559000Y-18034000D01*
X27813000Y-25457998D02*
X27813000Y-18288000D01*
X27559000Y-25711998D02*
X27813000Y-25457998D01*
X6604000Y-29464000D02*
X6604000Y-29654500D01*
X7747000Y-32067500D02*
X28702000Y-32067500D01*
X7302500Y-31623000D02*
X7747000Y-32067500D01*
X7302500Y-30353000D02*
X7302500Y-31623000D01*
X6604000Y-29654500D02*
X7302500Y-30353000D01*
X32956500Y-14541500D02*
X34798000Y-12700000D01*
X32956500Y-19240500D02*
X32956500Y-14541500D01*
X34798000Y-12700000D02*
X35560000Y-12700000D01*
X33718500Y-19558000D02*
X33718500Y-19685000D01*
X33337500Y-20066000D02*
X33337500Y-20383500D01*
X33718500Y-19685000D02*
X33337500Y-20066000D01*
X33718500Y-15557500D02*
X33782000Y-15494000D01*
X33718500Y-19558000D02*
X33718500Y-15557500D01*
X17716500Y-21653500D02*
X17653000Y-21653500D01*
X17653000Y-21653500D02*
X17018000Y-22288500D01*
X17208500Y-24574500D02*
X16637000Y-25146000D01*
X17208500Y-23558500D02*
X17208500Y-24574500D01*
X17018000Y-23368000D02*
X17208500Y-23558500D01*
X17018000Y-22288500D02*
X17018000Y-23368000D01*
X23876000Y-29718000D02*
X27241500Y-29718000D01*
X29146500Y-26606500D02*
X28829000Y-26289000D01*
X29146500Y-27813000D02*
X29146500Y-26606500D01*
X27241500Y-29718000D02*
X29146500Y-27813000D01*
X16637000Y-26543000D02*
X17335500Y-27241500D01*
X17335500Y-27241500D02*
X21399500Y-27241500D01*
X21399500Y-27241500D02*
X23876000Y-29718000D01*
X18224500Y-21653500D02*
X17716500Y-21653500D01*
X34163000Y-10414000D02*
X34163000Y-9017000D01*
X32321500Y-21399500D02*
X32321500Y-13843000D01*
X31527750Y-22256750D02*
X32321500Y-21463000D01*
X32321500Y-21463000D02*
X32321500Y-21399500D01*
X34163000Y-9017000D02*
X35560000Y-7620000D01*
X29432250Y-22256750D02*
X28829000Y-22860000D01*
X28829000Y-22860000D02*
X28829000Y-26289000D01*
X31527750Y-22256750D02*
X29432250Y-22256750D01*
X32321500Y-13843000D02*
X33274000Y-12890500D01*
X33274000Y-12890500D02*
X33274000Y-11303000D01*
X33274000Y-11303000D02*
X34163000Y-10414000D01*
X16637000Y-25146000D02*
X16637000Y-26543000D01*
X32512000Y-12763500D02*
X32766000Y-12509500D01*
X33591500Y-8318500D02*
X32829500Y-7556500D01*
X33591500Y-10281498D02*
X33591500Y-8318500D01*
X32766000Y-11106998D02*
X33591500Y-10281498D01*
X32766000Y-12509500D02*
X32766000Y-11106998D01*
X17716500Y-22733000D02*
X17716500Y-24892000D01*
X17716500Y-24892000D02*
X17145000Y-25463500D01*
X28321000Y-22606000D02*
X28321000Y-26606500D01*
X24130000Y-29210000D02*
X21590000Y-26670000D01*
X27051000Y-29210000D02*
X24130000Y-29210000D01*
X28637801Y-27623199D02*
X27051000Y-29210000D01*
X28637801Y-27496199D02*
X28637801Y-27623199D01*
X28638500Y-27495500D02*
X28637801Y-27496199D01*
X28638500Y-26924000D02*
X28638500Y-27495500D01*
X28321000Y-26606500D02*
X28638500Y-26924000D01*
X17589500Y-26670000D02*
X21463000Y-26670000D01*
X21463000Y-26670000D02*
X21590000Y-26670000D01*
X17526000Y-26670000D02*
X17589500Y-26670000D01*
X17145000Y-26289000D02*
X17526000Y-26670000D01*
X17145000Y-25463500D02*
X17145000Y-26289000D01*
X32512000Y-12763500D02*
X31750000Y-13525500D01*
X31750000Y-21272500D02*
X31750000Y-21209000D01*
X29972000Y-21717000D02*
X29210000Y-21717000D01*
X29210000Y-21717000D02*
X28321000Y-22606000D01*
X31305500Y-21717000D02*
X31750000Y-21272500D01*
X29972000Y-21717000D02*
X31305500Y-21717000D01*
X31750000Y-21209000D02*
X31750000Y-13525500D01*
D18*
G36*
X36254989Y-862152D02*
X36844170Y-1255830D01*
X37237848Y-1845011D01*
X37390000Y-2609931D01*
X37390000Y-35490069D01*
X37237848Y-36254989D01*
X36844170Y-36844170D01*
X36254989Y-37237848D01*
X35490069Y-37390000D01*
X2609931Y-37390000D01*
X1845011Y-37237848D01*
X1255830Y-36844170D01*
X862152Y-36254989D01*
X710000Y-35490069D01*
X710000Y-28884047D01*
X808212Y-28924828D01*
X1200069Y-28925170D01*
X1562229Y-28775529D01*
X1839555Y-28498686D01*
X1904975Y-28341137D01*
X1969471Y-28497229D01*
X2246314Y-28774555D01*
X2608212Y-28924828D01*
X3000069Y-28925170D01*
X3362229Y-28775529D01*
X3639555Y-28498686D01*
X3789828Y-28136788D01*
X3790170Y-27744931D01*
X3640529Y-27382771D01*
X3363686Y-27105445D01*
X3001788Y-26955172D01*
X2609931Y-26954830D01*
X2247771Y-27104471D01*
X1970445Y-27381314D01*
X1905025Y-27538863D01*
X1840529Y-27382771D01*
X1563686Y-27105445D01*
X1201788Y-26955172D01*
X809931Y-26954830D01*
X710000Y-26996121D01*
X710000Y-23154092D01*
X1158315Y-22705777D01*
X1102376Y-22987000D01*
X1188773Y-23421346D01*
X1434810Y-23789566D01*
X1803030Y-24035603D01*
X2237376Y-24122000D01*
X2842624Y-24122000D01*
X3276970Y-24035603D01*
X3645190Y-23789566D01*
X3891227Y-23421346D01*
X3977624Y-22987000D01*
X3951964Y-22858000D01*
X10226198Y-22858000D01*
X10494878Y-23126680D01*
X10494838Y-23172167D01*
X10636883Y-23515943D01*
X10899673Y-23779192D01*
X10976000Y-23810886D01*
X10976000Y-26260632D01*
X10316167Y-26920465D01*
X10075557Y-27019883D01*
X9812308Y-27282673D01*
X9669662Y-27626201D01*
X9669338Y-27998167D01*
X9811383Y-28341943D01*
X10074173Y-28605192D01*
X10417701Y-28747838D01*
X10789667Y-28748162D01*
X11133443Y-28606117D01*
X11396692Y-28343327D01*
X11497278Y-28101090D01*
X12401434Y-27196934D01*
X12582440Y-26926040D01*
X12646000Y-26606500D01*
X12646000Y-23967868D01*
X12972934Y-23640934D01*
X13016430Y-23575838D01*
X13153939Y-23370041D01*
X13217500Y-23050500D01*
X13217500Y-22372310D01*
X13253838Y-22284799D01*
X13254162Y-21912833D01*
X13112117Y-21569057D01*
X12849327Y-21305808D01*
X12582500Y-21195011D01*
X12582500Y-19905454D01*
X12617566Y-19957934D01*
X15294000Y-22634368D01*
X15294000Y-24541016D01*
X15230561Y-24635959D01*
X15167000Y-24955500D01*
X15167000Y-26733500D01*
X15230561Y-27053041D01*
X15379270Y-27275599D01*
X15411566Y-27323934D01*
X16325374Y-28237742D01*
X16210162Y-28515201D01*
X16209838Y-28887167D01*
X16351883Y-29230943D01*
X16614673Y-29494192D01*
X16958201Y-29636838D01*
X17330167Y-29637162D01*
X17673943Y-29495117D01*
X17937192Y-29232327D01*
X17947294Y-29208000D01*
X20576698Y-29208000D01*
X21353654Y-29984956D01*
X21353338Y-30347667D01*
X21495383Y-30691443D01*
X21758173Y-30954692D01*
X22101701Y-31097338D01*
X22473667Y-31097662D01*
X22817443Y-30955617D01*
X22962472Y-30810840D01*
X23031566Y-30879934D01*
X23302460Y-31060940D01*
X23622000Y-31124500D01*
X27432000Y-31124500D01*
X27751541Y-31060939D01*
X28022434Y-30879934D01*
X30308434Y-28593934D01*
X30361077Y-28515148D01*
X30489439Y-28323041D01*
X30553000Y-28003500D01*
X30553000Y-27886000D01*
X31432500Y-27886000D01*
X31568196Y-27859008D01*
X31744667Y-27859162D01*
X32058000Y-27729696D01*
X32058000Y-28130500D01*
X32121561Y-28450041D01*
X32249923Y-28642148D01*
X32302566Y-28720934D01*
X32375500Y-28793868D01*
X32375500Y-31071592D01*
X32063799Y-30942162D01*
X31691833Y-30941838D01*
X31348057Y-31083883D01*
X31124049Y-31307500D01*
X8062500Y-31307500D01*
X8062500Y-30353000D01*
X8015742Y-30117934D01*
X8004648Y-30062160D01*
X7839901Y-29815599D01*
X7538957Y-29514655D01*
X7539162Y-29278833D01*
X7397117Y-28935057D01*
X7134327Y-28671808D01*
X6790799Y-28529162D01*
X6497462Y-28528906D01*
X7043954Y-27982414D01*
X7052201Y-27985838D01*
X7424167Y-27986162D01*
X7767943Y-27844117D01*
X8031192Y-27581327D01*
X8173838Y-27237799D01*
X8174162Y-26865833D01*
X8032117Y-26522057D01*
X7769327Y-26258808D01*
X7425799Y-26116162D01*
X7053833Y-26115838D01*
X6811422Y-26216000D01*
X6794500Y-26216000D01*
X6474959Y-26279561D01*
X6265304Y-26419648D01*
X6204066Y-26460566D01*
X5061066Y-27603566D01*
X4880061Y-27874459D01*
X4816500Y-28194000D01*
X4816500Y-31833592D01*
X4504799Y-31704162D01*
X4132833Y-31703838D01*
X3789057Y-31845883D01*
X3525808Y-32108673D01*
X3383162Y-32452201D01*
X3382838Y-32824167D01*
X3524883Y-33167943D01*
X3576315Y-33219464D01*
X3446662Y-33531701D01*
X3446621Y-33578577D01*
X3043714Y-33981484D01*
X2869845Y-33909287D01*
X2213037Y-33908714D01*
X1606005Y-34159534D01*
X1141166Y-34623563D01*
X889287Y-35230155D01*
X888714Y-35886963D01*
X1139534Y-36493995D01*
X1603563Y-36958834D01*
X2210155Y-37210713D01*
X2866963Y-37211286D01*
X3473995Y-36960466D01*
X3810179Y-36624868D01*
X4143563Y-36958834D01*
X4750155Y-37210713D01*
X5406963Y-37211286D01*
X6013995Y-36960466D01*
X6350179Y-36624868D01*
X6683563Y-36958834D01*
X7290155Y-37210713D01*
X7946963Y-37211286D01*
X8553995Y-36960466D01*
X8890179Y-36624868D01*
X9223563Y-36958834D01*
X9830155Y-37210713D01*
X10486963Y-37211286D01*
X11093995Y-36960466D01*
X11430179Y-36624868D01*
X11763563Y-36958834D01*
X12370155Y-37210713D01*
X13026963Y-37211286D01*
X13633995Y-36960466D01*
X13970179Y-36624868D01*
X14303563Y-36958834D01*
X14910155Y-37210713D01*
X15566963Y-37211286D01*
X16173995Y-36960466D01*
X16510179Y-36624868D01*
X16843563Y-36958834D01*
X17450155Y-37210713D01*
X18106963Y-37211286D01*
X18713995Y-36960466D01*
X19050179Y-36624868D01*
X19383563Y-36958834D01*
X19990155Y-37210713D01*
X20646963Y-37211286D01*
X21253995Y-36960466D01*
X21590179Y-36624868D01*
X21923563Y-36958834D01*
X22530155Y-37210713D01*
X23186963Y-37211286D01*
X23793995Y-36960466D01*
X24130179Y-36624868D01*
X24463563Y-36958834D01*
X25070155Y-37210713D01*
X25726963Y-37211286D01*
X26333995Y-36960466D01*
X26670179Y-36624868D01*
X27003563Y-36958834D01*
X27610155Y-37210713D01*
X28266963Y-37211286D01*
X28873995Y-36960466D01*
X29210179Y-36624868D01*
X29543563Y-36958834D01*
X30150155Y-37210713D01*
X30806963Y-37211286D01*
X31413995Y-36960466D01*
X31750179Y-36624868D01*
X32083563Y-36958834D01*
X32690155Y-37210713D01*
X33346963Y-37211286D01*
X33953995Y-36960466D01*
X34290179Y-36624868D01*
X34623563Y-36958834D01*
X35230155Y-37210713D01*
X35886963Y-37211286D01*
X36493995Y-36960466D01*
X36958834Y-36496437D01*
X37210713Y-35889845D01*
X37211286Y-35233037D01*
X36960466Y-34626005D01*
X36593118Y-34258016D01*
X36958834Y-33892937D01*
X37210713Y-33286345D01*
X37211286Y-32629537D01*
X36960466Y-32022505D01*
X36624868Y-31686321D01*
X36958834Y-31352937D01*
X37210713Y-30746345D01*
X37211286Y-30089537D01*
X36960466Y-29482505D01*
X36624868Y-29146321D01*
X36958834Y-28812937D01*
X37210713Y-28206345D01*
X37211286Y-27549537D01*
X36960466Y-26942505D01*
X36624868Y-26606321D01*
X36958834Y-26272937D01*
X37210713Y-25666345D01*
X37211286Y-25009537D01*
X36960466Y-24402505D01*
X36624868Y-24066321D01*
X36958834Y-23732937D01*
X37210713Y-23126345D01*
X37211286Y-22469537D01*
X36960466Y-21862505D01*
X36537634Y-21438935D01*
X36544502Y-21420607D01*
X35560000Y-20436105D01*
X34575498Y-21420607D01*
X34582547Y-21439417D01*
X34161166Y-21860063D01*
X33909287Y-22466655D01*
X33908714Y-23123463D01*
X34159534Y-23730495D01*
X34495132Y-24066679D01*
X34161166Y-24400063D01*
X34038018Y-24696635D01*
X33685370Y-24343371D01*
X33172100Y-24130243D01*
X32616339Y-24129758D01*
X32102697Y-24341990D01*
X31709371Y-24734630D01*
X31579195Y-25048130D01*
X31448397Y-24732357D01*
X31206213Y-24662892D01*
X30405605Y-25463500D01*
X30419748Y-25477643D01*
X30240143Y-25657248D01*
X30226000Y-25643105D01*
X30211858Y-25657248D01*
X30032253Y-25477643D01*
X30046395Y-25463500D01*
X30032253Y-25449358D01*
X30211858Y-25269753D01*
X30226000Y-25283895D01*
X31026608Y-24483287D01*
X30957143Y-24241103D01*
X30433698Y-24054356D01*
X29878632Y-24082138D01*
X29589000Y-24202108D01*
X29589000Y-23174802D01*
X29747052Y-23016750D01*
X31527750Y-23016750D01*
X31818589Y-22958898D01*
X32065151Y-22794151D01*
X32858901Y-22000401D01*
X33023648Y-21753839D01*
X33081500Y-21463000D01*
X33081500Y-21289603D01*
X33150701Y-21318338D01*
X33522667Y-21318662D01*
X33866443Y-21176617D01*
X34061665Y-20981735D01*
X34127378Y-21140380D01*
X34395893Y-21241002D01*
X35380395Y-20256500D01*
X35739605Y-20256500D01*
X36724107Y-21241002D01*
X36992622Y-21140380D01*
X37221816Y-20524858D01*
X37198014Y-19868481D01*
X36992622Y-19372620D01*
X36724107Y-19271998D01*
X35739605Y-20256500D01*
X35380395Y-20256500D01*
X35366253Y-20242358D01*
X35545858Y-20062753D01*
X35560000Y-20076895D01*
X36544502Y-19092393D01*
X36537453Y-19073583D01*
X36958834Y-18652937D01*
X37210713Y-18046345D01*
X37211286Y-17389537D01*
X36960466Y-16782505D01*
X36624868Y-16446321D01*
X36958834Y-16112937D01*
X37210713Y-15506345D01*
X37211286Y-14849537D01*
X36960466Y-14242505D01*
X36624868Y-13906321D01*
X36958834Y-13572937D01*
X37210713Y-12966345D01*
X37211286Y-12309537D01*
X36960466Y-11702505D01*
X36624868Y-11366321D01*
X36958834Y-11032937D01*
X37210713Y-10426345D01*
X37211286Y-9769537D01*
X36960466Y-9162505D01*
X36624868Y-8826321D01*
X36958834Y-8492937D01*
X37210713Y-7886345D01*
X37211286Y-7229537D01*
X36960466Y-6622505D01*
X36624868Y-6286321D01*
X36958834Y-5952937D01*
X37210713Y-5346345D01*
X37211286Y-4689537D01*
X36960466Y-4082505D01*
X36656618Y-3778126D01*
X36958834Y-3476437D01*
X37210713Y-2869845D01*
X37211286Y-2213037D01*
X36960466Y-1606005D01*
X36496437Y-1141166D01*
X35889845Y-889287D01*
X35233037Y-888714D01*
X34626005Y-1139534D01*
X34289821Y-1475132D01*
X33956437Y-1141166D01*
X33349845Y-889287D01*
X32693037Y-888714D01*
X32086005Y-1139534D01*
X31749821Y-1475132D01*
X31416437Y-1141166D01*
X30809845Y-889287D01*
X30153037Y-888714D01*
X29546005Y-1139534D01*
X29209821Y-1475132D01*
X28876437Y-1141166D01*
X28269845Y-889287D01*
X27613037Y-888714D01*
X27006005Y-1139534D01*
X26669821Y-1475132D01*
X26336437Y-1141166D01*
X25729845Y-889287D01*
X25073037Y-888714D01*
X24466005Y-1139534D01*
X24129821Y-1475132D01*
X23796437Y-1141166D01*
X23189845Y-889287D01*
X22533037Y-888714D01*
X21926005Y-1139534D01*
X21589821Y-1475132D01*
X21256437Y-1141166D01*
X20649845Y-889287D01*
X19993037Y-888714D01*
X19386005Y-1139534D01*
X19049821Y-1475132D01*
X18716437Y-1141166D01*
X18109845Y-889287D01*
X17453037Y-888714D01*
X16846005Y-1139534D01*
X16509821Y-1475132D01*
X16176437Y-1141166D01*
X15569845Y-889287D01*
X14913037Y-888714D01*
X14306005Y-1139534D01*
X13969821Y-1475132D01*
X13636437Y-1141166D01*
X13029845Y-889287D01*
X12373037Y-888714D01*
X11766005Y-1139534D01*
X11429821Y-1475132D01*
X11096437Y-1141166D01*
X10489845Y-889287D01*
X9833037Y-888714D01*
X9226005Y-1139534D01*
X8889821Y-1475132D01*
X8556437Y-1141166D01*
X7949845Y-889287D01*
X7293037Y-888714D01*
X6686005Y-1139534D01*
X6349821Y-1475132D01*
X6016437Y-1141166D01*
X5409845Y-889287D01*
X4753037Y-888714D01*
X4146005Y-1139534D01*
X3809821Y-1475132D01*
X3476437Y-1141166D01*
X2869845Y-889287D01*
X2213037Y-888714D01*
X1606005Y-1139534D01*
X1141166Y-1603563D01*
X889287Y-2210155D01*
X888714Y-2866963D01*
X1139534Y-3473995D01*
X1603563Y-3938834D01*
X2210155Y-4190713D01*
X2866963Y-4191286D01*
X3043529Y-4118331D01*
X3526599Y-4601401D01*
X3773160Y-4766148D01*
X3821414Y-4775746D01*
X4064000Y-4824000D01*
X12067698Y-4824000D01*
X13860378Y-6616680D01*
X13860338Y-6662167D01*
X14002383Y-7005943D01*
X14265173Y-7269192D01*
X14608701Y-7411838D01*
X14797500Y-7412002D01*
X14797500Y-8702198D01*
X13877099Y-9622599D01*
X13712352Y-9869161D01*
X13654500Y-10160000D01*
X13654500Y-14759631D01*
X13535000Y-14640132D01*
X13535000Y-13271500D01*
X13522369Y-13208000D01*
X13471440Y-12951960D01*
X13290434Y-12681066D01*
X12528434Y-11919066D01*
X12493080Y-11895443D01*
X12257541Y-11738061D01*
X11938000Y-11674500D01*
X10604500Y-11674500D01*
X10284959Y-11738061D01*
X10049420Y-11895443D01*
X10014066Y-11919066D01*
X9315566Y-12617566D01*
X9134561Y-12888459D01*
X9071000Y-13208000D01*
X9071000Y-13759190D01*
X9034662Y-13846701D01*
X9034338Y-14218667D01*
X9176383Y-14562443D01*
X9439173Y-14825692D01*
X9782701Y-14968338D01*
X10154667Y-14968662D01*
X10498443Y-14826617D01*
X10761692Y-14563827D01*
X10875888Y-14288815D01*
X10875838Y-14345667D01*
X10912500Y-14434396D01*
X10912500Y-21449748D01*
X10831839Y-21395852D01*
X10541000Y-21338000D01*
X5683676Y-21338000D01*
X5729846Y-21226810D01*
X5730153Y-20874735D01*
X5595704Y-20549343D01*
X5346967Y-20300171D01*
X5021810Y-20165154D01*
X4669735Y-20164847D01*
X4344343Y-20299296D01*
X4095171Y-20548033D01*
X3960154Y-20873190D01*
X3959847Y-21225265D01*
X4006428Y-21338000D01*
X3997802Y-21338000D01*
X3935000Y-21275198D01*
X3935000Y-17459802D01*
X4021156Y-17373646D01*
X4094296Y-17550657D01*
X4343033Y-17799829D01*
X4668190Y-17934846D01*
X5020265Y-17935153D01*
X5345657Y-17800704D01*
X5594829Y-17551967D01*
X5729846Y-17226810D01*
X5730153Y-16874735D01*
X5595704Y-16549343D01*
X5346967Y-16300171D01*
X5021810Y-16165154D01*
X4824000Y-16164982D01*
X4824000Y-15357963D01*
X4856192Y-15325827D01*
X4998838Y-14982299D01*
X4999162Y-14610333D01*
X4857117Y-14266557D01*
X4594327Y-14003308D01*
X4443000Y-13940471D01*
X4443000Y-11046302D01*
X4623220Y-10866082D01*
X4719943Y-10826117D01*
X4983192Y-10563327D01*
X5125838Y-10219799D01*
X5126162Y-9847833D01*
X4984117Y-9504057D01*
X4721327Y-9240808D01*
X4377799Y-9098162D01*
X4005833Y-9097838D01*
X3662057Y-9239883D01*
X3469830Y-9431775D01*
X3363686Y-9325445D01*
X3001788Y-9175172D01*
X2609931Y-9174830D01*
X2247771Y-9324471D01*
X1970445Y-9601314D01*
X1905025Y-9758863D01*
X1840529Y-9602771D01*
X1563686Y-9325445D01*
X1201788Y-9175172D01*
X809931Y-9174830D01*
X710000Y-9216121D01*
X710000Y-2609931D01*
X862152Y-1845011D01*
X1255830Y-1255830D01*
X1845011Y-862152D01*
X2609931Y-710000D01*
X35490069Y-710000D01*
X36254989Y-862152D01*
X36254989Y-862152D01*
G37*
X36254989Y-862152D02*
X36844170Y-1255830D01*
X37237848Y-1845011D01*
X37390000Y-2609931D01*
X37390000Y-35490069D01*
X37237848Y-36254989D01*
X36844170Y-36844170D01*
X36254989Y-37237848D01*
X35490069Y-37390000D01*
X2609931Y-37390000D01*
X1845011Y-37237848D01*
X1255830Y-36844170D01*
X862152Y-36254989D01*
X710000Y-35490069D01*
X710000Y-28884047D01*
X808212Y-28924828D01*
X1200069Y-28925170D01*
X1562229Y-28775529D01*
X1839555Y-28498686D01*
X1904975Y-28341137D01*
X1969471Y-28497229D01*
X2246314Y-28774555D01*
X2608212Y-28924828D01*
X3000069Y-28925170D01*
X3362229Y-28775529D01*
X3639555Y-28498686D01*
X3789828Y-28136788D01*
X3790170Y-27744931D01*
X3640529Y-27382771D01*
X3363686Y-27105445D01*
X3001788Y-26955172D01*
X2609931Y-26954830D01*
X2247771Y-27104471D01*
X1970445Y-27381314D01*
X1905025Y-27538863D01*
X1840529Y-27382771D01*
X1563686Y-27105445D01*
X1201788Y-26955172D01*
X809931Y-26954830D01*
X710000Y-26996121D01*
X710000Y-23154092D01*
X1158315Y-22705777D01*
X1102376Y-22987000D01*
X1188773Y-23421346D01*
X1434810Y-23789566D01*
X1803030Y-24035603D01*
X2237376Y-24122000D01*
X2842624Y-24122000D01*
X3276970Y-24035603D01*
X3645190Y-23789566D01*
X3891227Y-23421346D01*
X3977624Y-22987000D01*
X3951964Y-22858000D01*
X10226198Y-22858000D01*
X10494878Y-23126680D01*
X10494838Y-23172167D01*
X10636883Y-23515943D01*
X10899673Y-23779192D01*
X10976000Y-23810886D01*
X10976000Y-26260632D01*
X10316167Y-26920465D01*
X10075557Y-27019883D01*
X9812308Y-27282673D01*
X9669662Y-27626201D01*
X9669338Y-27998167D01*
X9811383Y-28341943D01*
X10074173Y-28605192D01*
X10417701Y-28747838D01*
X10789667Y-28748162D01*
X11133443Y-28606117D01*
X11396692Y-28343327D01*
X11497278Y-28101090D01*
X12401434Y-27196934D01*
X12582440Y-26926040D01*
X12646000Y-26606500D01*
X12646000Y-23967868D01*
X12972934Y-23640934D01*
X13016430Y-23575838D01*
X13153939Y-23370041D01*
X13217500Y-23050500D01*
X13217500Y-22372310D01*
X13253838Y-22284799D01*
X13254162Y-21912833D01*
X13112117Y-21569057D01*
X12849327Y-21305808D01*
X12582500Y-21195011D01*
X12582500Y-19905454D01*
X12617566Y-19957934D01*
X15294000Y-22634368D01*
X15294000Y-24541016D01*
X15230561Y-24635959D01*
X15167000Y-24955500D01*
X15167000Y-26733500D01*
X15230561Y-27053041D01*
X15379270Y-27275599D01*
X15411566Y-27323934D01*
X16325374Y-28237742D01*
X16210162Y-28515201D01*
X16209838Y-28887167D01*
X16351883Y-29230943D01*
X16614673Y-29494192D01*
X16958201Y-29636838D01*
X17330167Y-29637162D01*
X17673943Y-29495117D01*
X17937192Y-29232327D01*
X17947294Y-29208000D01*
X20576698Y-29208000D01*
X21353654Y-29984956D01*
X21353338Y-30347667D01*
X21495383Y-30691443D01*
X21758173Y-30954692D01*
X22101701Y-31097338D01*
X22473667Y-31097662D01*
X22817443Y-30955617D01*
X22962472Y-30810840D01*
X23031566Y-30879934D01*
X23302460Y-31060940D01*
X23622000Y-31124500D01*
X27432000Y-31124500D01*
X27751541Y-31060939D01*
X28022434Y-30879934D01*
X30308434Y-28593934D01*
X30361077Y-28515148D01*
X30489439Y-28323041D01*
X30553000Y-28003500D01*
X30553000Y-27886000D01*
X31432500Y-27886000D01*
X31568196Y-27859008D01*
X31744667Y-27859162D01*
X32058000Y-27729696D01*
X32058000Y-28130500D01*
X32121561Y-28450041D01*
X32249923Y-28642148D01*
X32302566Y-28720934D01*
X32375500Y-28793868D01*
X32375500Y-31071592D01*
X32063799Y-30942162D01*
X31691833Y-30941838D01*
X31348057Y-31083883D01*
X31124049Y-31307500D01*
X8062500Y-31307500D01*
X8062500Y-30353000D01*
X8015742Y-30117934D01*
X8004648Y-30062160D01*
X7839901Y-29815599D01*
X7538957Y-29514655D01*
X7539162Y-29278833D01*
X7397117Y-28935057D01*
X7134327Y-28671808D01*
X6790799Y-28529162D01*
X6497462Y-28528906D01*
X7043954Y-27982414D01*
X7052201Y-27985838D01*
X7424167Y-27986162D01*
X7767943Y-27844117D01*
X8031192Y-27581327D01*
X8173838Y-27237799D01*
X8174162Y-26865833D01*
X8032117Y-26522057D01*
X7769327Y-26258808D01*
X7425799Y-26116162D01*
X7053833Y-26115838D01*
X6811422Y-26216000D01*
X6794500Y-26216000D01*
X6474959Y-26279561D01*
X6265304Y-26419648D01*
X6204066Y-26460566D01*
X5061066Y-27603566D01*
X4880061Y-27874459D01*
X4816500Y-28194000D01*
X4816500Y-31833592D01*
X4504799Y-31704162D01*
X4132833Y-31703838D01*
X3789057Y-31845883D01*
X3525808Y-32108673D01*
X3383162Y-32452201D01*
X3382838Y-32824167D01*
X3524883Y-33167943D01*
X3576315Y-33219464D01*
X3446662Y-33531701D01*
X3446621Y-33578577D01*
X3043714Y-33981484D01*
X2869845Y-33909287D01*
X2213037Y-33908714D01*
X1606005Y-34159534D01*
X1141166Y-34623563D01*
X889287Y-35230155D01*
X888714Y-35886963D01*
X1139534Y-36493995D01*
X1603563Y-36958834D01*
X2210155Y-37210713D01*
X2866963Y-37211286D01*
X3473995Y-36960466D01*
X3810179Y-36624868D01*
X4143563Y-36958834D01*
X4750155Y-37210713D01*
X5406963Y-37211286D01*
X6013995Y-36960466D01*
X6350179Y-36624868D01*
X6683563Y-36958834D01*
X7290155Y-37210713D01*
X7946963Y-37211286D01*
X8553995Y-36960466D01*
X8890179Y-36624868D01*
X9223563Y-36958834D01*
X9830155Y-37210713D01*
X10486963Y-37211286D01*
X11093995Y-36960466D01*
X11430179Y-36624868D01*
X11763563Y-36958834D01*
X12370155Y-37210713D01*
X13026963Y-37211286D01*
X13633995Y-36960466D01*
X13970179Y-36624868D01*
X14303563Y-36958834D01*
X14910155Y-37210713D01*
X15566963Y-37211286D01*
X16173995Y-36960466D01*
X16510179Y-36624868D01*
X16843563Y-36958834D01*
X17450155Y-37210713D01*
X18106963Y-37211286D01*
X18713995Y-36960466D01*
X19050179Y-36624868D01*
X19383563Y-36958834D01*
X19990155Y-37210713D01*
X20646963Y-37211286D01*
X21253995Y-36960466D01*
X21590179Y-36624868D01*
X21923563Y-36958834D01*
X22530155Y-37210713D01*
X23186963Y-37211286D01*
X23793995Y-36960466D01*
X24130179Y-36624868D01*
X24463563Y-36958834D01*
X25070155Y-37210713D01*
X25726963Y-37211286D01*
X26333995Y-36960466D01*
X26670179Y-36624868D01*
X27003563Y-36958834D01*
X27610155Y-37210713D01*
X28266963Y-37211286D01*
X28873995Y-36960466D01*
X29210179Y-36624868D01*
X29543563Y-36958834D01*
X30150155Y-37210713D01*
X30806963Y-37211286D01*
X31413995Y-36960466D01*
X31750179Y-36624868D01*
X32083563Y-36958834D01*
X32690155Y-37210713D01*
X33346963Y-37211286D01*
X33953995Y-36960466D01*
X34290179Y-36624868D01*
X34623563Y-36958834D01*
X35230155Y-37210713D01*
X35886963Y-37211286D01*
X36493995Y-36960466D01*
X36958834Y-36496437D01*
X37210713Y-35889845D01*
X37211286Y-35233037D01*
X36960466Y-34626005D01*
X36593118Y-34258016D01*
X36958834Y-33892937D01*
X37210713Y-33286345D01*
X37211286Y-32629537D01*
X36960466Y-32022505D01*
X36624868Y-31686321D01*
X36958834Y-31352937D01*
X37210713Y-30746345D01*
X37211286Y-30089537D01*
X36960466Y-29482505D01*
X36624868Y-29146321D01*
X36958834Y-28812937D01*
X37210713Y-28206345D01*
X37211286Y-27549537D01*
X36960466Y-26942505D01*
X36624868Y-26606321D01*
X36958834Y-26272937D01*
X37210713Y-25666345D01*
X37211286Y-25009537D01*
X36960466Y-24402505D01*
X36624868Y-24066321D01*
X36958834Y-23732937D01*
X37210713Y-23126345D01*
X37211286Y-22469537D01*
X36960466Y-21862505D01*
X36537634Y-21438935D01*
X36544502Y-21420607D01*
X35560000Y-20436105D01*
X34575498Y-21420607D01*
X34582547Y-21439417D01*
X34161166Y-21860063D01*
X33909287Y-22466655D01*
X33908714Y-23123463D01*
X34159534Y-23730495D01*
X34495132Y-24066679D01*
X34161166Y-24400063D01*
X34038018Y-24696635D01*
X33685370Y-24343371D01*
X33172100Y-24130243D01*
X32616339Y-24129758D01*
X32102697Y-24341990D01*
X31709371Y-24734630D01*
X31579195Y-25048130D01*
X31448397Y-24732357D01*
X31206213Y-24662892D01*
X30405605Y-25463500D01*
X30419748Y-25477643D01*
X30240143Y-25657248D01*
X30226000Y-25643105D01*
X30211858Y-25657248D01*
X30032253Y-25477643D01*
X30046395Y-25463500D01*
X30032253Y-25449358D01*
X30211858Y-25269753D01*
X30226000Y-25283895D01*
X31026608Y-24483287D01*
X30957143Y-24241103D01*
X30433698Y-24054356D01*
X29878632Y-24082138D01*
X29589000Y-24202108D01*
X29589000Y-23174802D01*
X29747052Y-23016750D01*
X31527750Y-23016750D01*
X31818589Y-22958898D01*
X32065151Y-22794151D01*
X32858901Y-22000401D01*
X33023648Y-21753839D01*
X33081500Y-21463000D01*
X33081500Y-21289603D01*
X33150701Y-21318338D01*
X33522667Y-21318662D01*
X33866443Y-21176617D01*
X34061665Y-20981735D01*
X34127378Y-21140380D01*
X34395893Y-21241002D01*
X35380395Y-20256500D01*
X35739605Y-20256500D01*
X36724107Y-21241002D01*
X36992622Y-21140380D01*
X37221816Y-20524858D01*
X37198014Y-19868481D01*
X36992622Y-19372620D01*
X36724107Y-19271998D01*
X35739605Y-20256500D01*
X35380395Y-20256500D01*
X35366253Y-20242358D01*
X35545858Y-20062753D01*
X35560000Y-20076895D01*
X36544502Y-19092393D01*
X36537453Y-19073583D01*
X36958834Y-18652937D01*
X37210713Y-18046345D01*
X37211286Y-17389537D01*
X36960466Y-16782505D01*
X36624868Y-16446321D01*
X36958834Y-16112937D01*
X37210713Y-15506345D01*
X37211286Y-14849537D01*
X36960466Y-14242505D01*
X36624868Y-13906321D01*
X36958834Y-13572937D01*
X37210713Y-12966345D01*
X37211286Y-12309537D01*
X36960466Y-11702505D01*
X36624868Y-11366321D01*
X36958834Y-11032937D01*
X37210713Y-10426345D01*
X37211286Y-9769537D01*
X36960466Y-9162505D01*
X36624868Y-8826321D01*
X36958834Y-8492937D01*
X37210713Y-7886345D01*
X37211286Y-7229537D01*
X36960466Y-6622505D01*
X36624868Y-6286321D01*
X36958834Y-5952937D01*
X37210713Y-5346345D01*
X37211286Y-4689537D01*
X36960466Y-4082505D01*
X36656618Y-3778126D01*
X36958834Y-3476437D01*
X37210713Y-2869845D01*
X37211286Y-2213037D01*
X36960466Y-1606005D01*
X36496437Y-1141166D01*
X35889845Y-889287D01*
X35233037Y-888714D01*
X34626005Y-1139534D01*
X34289821Y-1475132D01*
X33956437Y-1141166D01*
X33349845Y-889287D01*
X32693037Y-888714D01*
X32086005Y-1139534D01*
X31749821Y-1475132D01*
X31416437Y-1141166D01*
X30809845Y-889287D01*
X30153037Y-888714D01*
X29546005Y-1139534D01*
X29209821Y-1475132D01*
X28876437Y-1141166D01*
X28269845Y-889287D01*
X27613037Y-888714D01*
X27006005Y-1139534D01*
X26669821Y-1475132D01*
X26336437Y-1141166D01*
X25729845Y-889287D01*
X25073037Y-888714D01*
X24466005Y-1139534D01*
X24129821Y-1475132D01*
X23796437Y-1141166D01*
X23189845Y-889287D01*
X22533037Y-888714D01*
X21926005Y-1139534D01*
X21589821Y-1475132D01*
X21256437Y-1141166D01*
X20649845Y-889287D01*
X19993037Y-888714D01*
X19386005Y-1139534D01*
X19049821Y-1475132D01*
X18716437Y-1141166D01*
X18109845Y-889287D01*
X17453037Y-888714D01*
X16846005Y-1139534D01*
X16509821Y-1475132D01*
X16176437Y-1141166D01*
X15569845Y-889287D01*
X14913037Y-888714D01*
X14306005Y-1139534D01*
X13969821Y-1475132D01*
X13636437Y-1141166D01*
X13029845Y-889287D01*
X12373037Y-888714D01*
X11766005Y-1139534D01*
X11429821Y-1475132D01*
X11096437Y-1141166D01*
X10489845Y-889287D01*
X9833037Y-888714D01*
X9226005Y-1139534D01*
X8889821Y-1475132D01*
X8556437Y-1141166D01*
X7949845Y-889287D01*
X7293037Y-888714D01*
X6686005Y-1139534D01*
X6349821Y-1475132D01*
X6016437Y-1141166D01*
X5409845Y-889287D01*
X4753037Y-888714D01*
X4146005Y-1139534D01*
X3809821Y-1475132D01*
X3476437Y-1141166D01*
X2869845Y-889287D01*
X2213037Y-888714D01*
X1606005Y-1139534D01*
X1141166Y-1603563D01*
X889287Y-2210155D01*
X888714Y-2866963D01*
X1139534Y-3473995D01*
X1603563Y-3938834D01*
X2210155Y-4190713D01*
X2866963Y-4191286D01*
X3043529Y-4118331D01*
X3526599Y-4601401D01*
X3773160Y-4766148D01*
X3821414Y-4775746D01*
X4064000Y-4824000D01*
X12067698Y-4824000D01*
X13860378Y-6616680D01*
X13860338Y-6662167D01*
X14002383Y-7005943D01*
X14265173Y-7269192D01*
X14608701Y-7411838D01*
X14797500Y-7412002D01*
X14797500Y-8702198D01*
X13877099Y-9622599D01*
X13712352Y-9869161D01*
X13654500Y-10160000D01*
X13654500Y-14759631D01*
X13535000Y-14640132D01*
X13535000Y-13271500D01*
X13522369Y-13208000D01*
X13471440Y-12951960D01*
X13290434Y-12681066D01*
X12528434Y-11919066D01*
X12493080Y-11895443D01*
X12257541Y-11738061D01*
X11938000Y-11674500D01*
X10604500Y-11674500D01*
X10284959Y-11738061D01*
X10049420Y-11895443D01*
X10014066Y-11919066D01*
X9315566Y-12617566D01*
X9134561Y-12888459D01*
X9071000Y-13208000D01*
X9071000Y-13759190D01*
X9034662Y-13846701D01*
X9034338Y-14218667D01*
X9176383Y-14562443D01*
X9439173Y-14825692D01*
X9782701Y-14968338D01*
X10154667Y-14968662D01*
X10498443Y-14826617D01*
X10761692Y-14563827D01*
X10875888Y-14288815D01*
X10875838Y-14345667D01*
X10912500Y-14434396D01*
X10912500Y-21449748D01*
X10831839Y-21395852D01*
X10541000Y-21338000D01*
X5683676Y-21338000D01*
X5729846Y-21226810D01*
X5730153Y-20874735D01*
X5595704Y-20549343D01*
X5346967Y-20300171D01*
X5021810Y-20165154D01*
X4669735Y-20164847D01*
X4344343Y-20299296D01*
X4095171Y-20548033D01*
X3960154Y-20873190D01*
X3959847Y-21225265D01*
X4006428Y-21338000D01*
X3997802Y-21338000D01*
X3935000Y-21275198D01*
X3935000Y-17459802D01*
X4021156Y-17373646D01*
X4094296Y-17550657D01*
X4343033Y-17799829D01*
X4668190Y-17934846D01*
X5020265Y-17935153D01*
X5345657Y-17800704D01*
X5594829Y-17551967D01*
X5729846Y-17226810D01*
X5730153Y-16874735D01*
X5595704Y-16549343D01*
X5346967Y-16300171D01*
X5021810Y-16165154D01*
X4824000Y-16164982D01*
X4824000Y-15357963D01*
X4856192Y-15325827D01*
X4998838Y-14982299D01*
X4999162Y-14610333D01*
X4857117Y-14266557D01*
X4594327Y-14003308D01*
X4443000Y-13940471D01*
X4443000Y-11046302D01*
X4623220Y-10866082D01*
X4719943Y-10826117D01*
X4983192Y-10563327D01*
X5125838Y-10219799D01*
X5126162Y-9847833D01*
X4984117Y-9504057D01*
X4721327Y-9240808D01*
X4377799Y-9098162D01*
X4005833Y-9097838D01*
X3662057Y-9239883D01*
X3469830Y-9431775D01*
X3363686Y-9325445D01*
X3001788Y-9175172D01*
X2609931Y-9174830D01*
X2247771Y-9324471D01*
X1970445Y-9601314D01*
X1905025Y-9758863D01*
X1840529Y-9602771D01*
X1563686Y-9325445D01*
X1201788Y-9175172D01*
X809931Y-9174830D01*
X710000Y-9216121D01*
X710000Y-2609931D01*
X862152Y-1845011D01*
X1255830Y-1255830D01*
X1845011Y-862152D01*
X2609931Y-710000D01*
X35490069Y-710000D01*
X36254989Y-862152D01*
G36*
X34463382Y-3778374D02*
X34161166Y-4080063D01*
X33909287Y-4686655D01*
X33908714Y-5343463D01*
X34159534Y-5950495D01*
X34495132Y-6286679D01*
X34161166Y-6620063D01*
X34057392Y-6869979D01*
X34014510Y-6766197D01*
X33621870Y-6372871D01*
X33108600Y-6159743D01*
X32552839Y-6159258D01*
X32039197Y-6371490D01*
X31645871Y-6764130D01*
X31432743Y-7277400D01*
X31432258Y-7833161D01*
X31644490Y-8346803D01*
X32037130Y-8740129D01*
X32550400Y-8953257D01*
X32831500Y-8953502D01*
X32831500Y-9966696D01*
X32228599Y-10569597D01*
X32063852Y-10816159D01*
X32006000Y-11106998D01*
X32006000Y-12194698D01*
X31212599Y-12988099D01*
X31047852Y-13234661D01*
X30990000Y-13525500D01*
X30990000Y-20957000D01*
X29210000Y-20957000D01*
X28919161Y-21014852D01*
X28672599Y-21179599D01*
X28573000Y-21279198D01*
X28573000Y-18288000D01*
X28529259Y-18068099D01*
X28515148Y-17997160D01*
X28494060Y-17965600D01*
X28494162Y-17848833D01*
X28352117Y-17505057D01*
X28089327Y-17241808D01*
X27745799Y-17099162D01*
X27373833Y-17098838D01*
X27030057Y-17240883D01*
X26766808Y-17503673D01*
X26624162Y-17847201D01*
X26623838Y-18219167D01*
X26765883Y-18562943D01*
X27028673Y-18826192D01*
X27053000Y-18836294D01*
X27053000Y-25041903D01*
X27030057Y-25051383D01*
X26766808Y-25314173D01*
X26624162Y-25657701D01*
X26623838Y-26029667D01*
X26765883Y-26373443D01*
X27028673Y-26636692D01*
X27372201Y-26779338D01*
X27595419Y-26779532D01*
X27618852Y-26897339D01*
X27783599Y-27143901D01*
X27878500Y-27238802D01*
X27878500Y-27307697D01*
X27397047Y-27789150D01*
X27327327Y-27719308D01*
X27108426Y-27628412D01*
X27018617Y-27411057D01*
X26755827Y-27147808D01*
X26460275Y-27025083D01*
X26383617Y-26839557D01*
X26120827Y-26576308D01*
X25933598Y-26498563D01*
X25812117Y-26204557D01*
X25779000Y-26171382D01*
X25779000Y-25841802D01*
X26064401Y-25556401D01*
X26130039Y-25458167D01*
X26229148Y-25309839D01*
X26287000Y-25019000D01*
X26287000Y-20447000D01*
X26229148Y-20156161D01*
X26064401Y-19909599D01*
X24699500Y-18544698D01*
X24699500Y-18542000D01*
X24641648Y-18251161D01*
X24476901Y-18004599D01*
X23841901Y-17369599D01*
X23731480Y-17295818D01*
X23731662Y-17086833D01*
X23611268Y-16795457D01*
X23731338Y-16506299D01*
X23731382Y-16456288D01*
X23833443Y-16414117D01*
X24048115Y-16199819D01*
X24320500Y-16254000D01*
X26259428Y-16254000D01*
X26321383Y-16403943D01*
X26584173Y-16667192D01*
X26927701Y-16809838D01*
X27299667Y-16810162D01*
X27643443Y-16668117D01*
X27906692Y-16405327D01*
X28049338Y-16061799D01*
X28049662Y-15689833D01*
X27907617Y-15346057D01*
X27644827Y-15082808D01*
X27301299Y-14940162D01*
X27246229Y-14940114D01*
X27024339Y-14791852D01*
X26733500Y-14734000D01*
X25953999Y-14734000D01*
X25954162Y-14546833D01*
X25812117Y-14203057D01*
X25549327Y-13939808D01*
X25457265Y-13901580D01*
X25557192Y-13801827D01*
X25699838Y-13458299D01*
X25700162Y-13086333D01*
X25558117Y-12742557D01*
X25525000Y-12709382D01*
X25525000Y-12382500D01*
X25467148Y-12091661D01*
X25461500Y-12083208D01*
X25461500Y-10604500D01*
X25403648Y-10313661D01*
X25238901Y-10067099D01*
X24222901Y-9051099D01*
X23976339Y-8886352D01*
X23685500Y-8828500D01*
X23492302Y-8828500D01*
X22444901Y-7781099D01*
X22198339Y-7616352D01*
X21907500Y-7558500D01*
X20682361Y-7558500D01*
X20483839Y-7425852D01*
X20193000Y-7368000D01*
X19805302Y-7368000D01*
X19809302Y-7364000D01*
X22860000Y-7364000D01*
X23150839Y-7306148D01*
X23397401Y-7141401D01*
X23682802Y-6856000D01*
X24892000Y-6856000D01*
X25182839Y-6798148D01*
X25429401Y-6633401D01*
X25778302Y-6284500D01*
X29391629Y-6284500D01*
X29751130Y-6644629D01*
X30264400Y-6857757D01*
X30820161Y-6858242D01*
X31333803Y-6646010D01*
X31727129Y-6253370D01*
X31940257Y-5740100D01*
X31940742Y-5184339D01*
X31730540Y-4675609D01*
X31913839Y-4639148D01*
X32160401Y-4474401D01*
X32516286Y-4118516D01*
X32690155Y-4190713D01*
X33346963Y-4191286D01*
X33953995Y-3940466D01*
X34290179Y-3604868D01*
X34463382Y-3778374D01*
X34463382Y-3778374D01*
G37*
X34463382Y-3778374D02*
X34161166Y-4080063D01*
X33909287Y-4686655D01*
X33908714Y-5343463D01*
X34159534Y-5950495D01*
X34495132Y-6286679D01*
X34161166Y-6620063D01*
X34057392Y-6869979D01*
X34014510Y-6766197D01*
X33621870Y-6372871D01*
X33108600Y-6159743D01*
X32552839Y-6159258D01*
X32039197Y-6371490D01*
X31645871Y-6764130D01*
X31432743Y-7277400D01*
X31432258Y-7833161D01*
X31644490Y-8346803D01*
X32037130Y-8740129D01*
X32550400Y-8953257D01*
X32831500Y-8953502D01*
X32831500Y-9966696D01*
X32228599Y-10569597D01*
X32063852Y-10816159D01*
X32006000Y-11106998D01*
X32006000Y-12194698D01*
X31212599Y-12988099D01*
X31047852Y-13234661D01*
X30990000Y-13525500D01*
X30990000Y-20957000D01*
X29210000Y-20957000D01*
X28919161Y-21014852D01*
X28672599Y-21179599D01*
X28573000Y-21279198D01*
X28573000Y-18288000D01*
X28529259Y-18068099D01*
X28515148Y-17997160D01*
X28494060Y-17965600D01*
X28494162Y-17848833D01*
X28352117Y-17505057D01*
X28089327Y-17241808D01*
X27745799Y-17099162D01*
X27373833Y-17098838D01*
X27030057Y-17240883D01*
X26766808Y-17503673D01*
X26624162Y-17847201D01*
X26623838Y-18219167D01*
X26765883Y-18562943D01*
X27028673Y-18826192D01*
X27053000Y-18836294D01*
X27053000Y-25041903D01*
X27030057Y-25051383D01*
X26766808Y-25314173D01*
X26624162Y-25657701D01*
X26623838Y-26029667D01*
X26765883Y-26373443D01*
X27028673Y-26636692D01*
X27372201Y-26779338D01*
X27595419Y-26779532D01*
X27618852Y-26897339D01*
X27783599Y-27143901D01*
X27878500Y-27238802D01*
X27878500Y-27307697D01*
X27397047Y-27789150D01*
X27327327Y-27719308D01*
X27108426Y-27628412D01*
X27018617Y-27411057D01*
X26755827Y-27147808D01*
X26460275Y-27025083D01*
X26383617Y-26839557D01*
X26120827Y-26576308D01*
X25933598Y-26498563D01*
X25812117Y-26204557D01*
X25779000Y-26171382D01*
X25779000Y-25841802D01*
X26064401Y-25556401D01*
X26130039Y-25458167D01*
X26229148Y-25309839D01*
X26287000Y-25019000D01*
X26287000Y-20447000D01*
X26229148Y-20156161D01*
X26064401Y-19909599D01*
X24699500Y-18544698D01*
X24699500Y-18542000D01*
X24641648Y-18251161D01*
X24476901Y-18004599D01*
X23841901Y-17369599D01*
X23731480Y-17295818D01*
X23731662Y-17086833D01*
X23611268Y-16795457D01*
X23731338Y-16506299D01*
X23731382Y-16456288D01*
X23833443Y-16414117D01*
X24048115Y-16199819D01*
X24320500Y-16254000D01*
X26259428Y-16254000D01*
X26321383Y-16403943D01*
X26584173Y-16667192D01*
X26927701Y-16809838D01*
X27299667Y-16810162D01*
X27643443Y-16668117D01*
X27906692Y-16405327D01*
X28049338Y-16061799D01*
X28049662Y-15689833D01*
X27907617Y-15346057D01*
X27644827Y-15082808D01*
X27301299Y-14940162D01*
X27246229Y-14940114D01*
X27024339Y-14791852D01*
X26733500Y-14734000D01*
X25953999Y-14734000D01*
X25954162Y-14546833D01*
X25812117Y-14203057D01*
X25549327Y-13939808D01*
X25457265Y-13901580D01*
X25557192Y-13801827D01*
X25699838Y-13458299D01*
X25700162Y-13086333D01*
X25558117Y-12742557D01*
X25525000Y-12709382D01*
X25525000Y-12382500D01*
X25467148Y-12091661D01*
X25461500Y-12083208D01*
X25461500Y-10604500D01*
X25403648Y-10313661D01*
X25238901Y-10067099D01*
X24222901Y-9051099D01*
X23976339Y-8886352D01*
X23685500Y-8828500D01*
X23492302Y-8828500D01*
X22444901Y-7781099D01*
X22198339Y-7616352D01*
X21907500Y-7558500D01*
X20682361Y-7558500D01*
X20483839Y-7425852D01*
X20193000Y-7368000D01*
X19805302Y-7368000D01*
X19809302Y-7364000D01*
X22860000Y-7364000D01*
X23150839Y-7306148D01*
X23397401Y-7141401D01*
X23682802Y-6856000D01*
X24892000Y-6856000D01*
X25182839Y-6798148D01*
X25429401Y-6633401D01*
X25778302Y-6284500D01*
X29391629Y-6284500D01*
X29751130Y-6644629D01*
X30264400Y-6857757D01*
X30820161Y-6858242D01*
X31333803Y-6646010D01*
X31727129Y-6253370D01*
X31940257Y-5740100D01*
X31940742Y-5184339D01*
X31730540Y-4675609D01*
X31913839Y-4639148D01*
X32160401Y-4474401D01*
X32516286Y-4118516D01*
X32690155Y-4190713D01*
X33346963Y-4191286D01*
X33953995Y-3940466D01*
X34290179Y-3604868D01*
X34463382Y-3778374D01*
M02*
