G04 #@! TF.FileFunction,Legend,Top*
%FSLAX46Y46*%
G04 Gerber Fmt 4.6, Leading zero omitted, Abs format (unit mm)*
G04 Created by KiCad (PCBNEW 4.0.4-stable) date 2016 October 10, Monday 23:42:28*
%MOMM*%
%LPD*%
G01*
G04 APERTURE LIST*
%ADD10C,0.100000*%
%ADD11C,0.250000*%
%ADD12C,0.300000*%
%ADD13C,0.120000*%
%ADD14C,0.150000*%
%ADD15C,0.060000*%
%ADD16C,0.010000*%
G04 APERTURE END LIST*
D10*
D11*
X16614095Y-32900881D02*
X16614095Y-31900881D01*
X16852190Y-31900881D01*
X16995048Y-31948500D01*
X17090286Y-32043738D01*
X17137905Y-32138976D01*
X17185524Y-32329452D01*
X17185524Y-32472310D01*
X17137905Y-32662786D01*
X17090286Y-32758024D01*
X16995048Y-32853262D01*
X16852190Y-32900881D01*
X16614095Y-32900881D01*
X17995048Y-32853262D02*
X17899810Y-32900881D01*
X17709333Y-32900881D01*
X17614095Y-32853262D01*
X17566476Y-32758024D01*
X17566476Y-32377071D01*
X17614095Y-32281833D01*
X17709333Y-32234214D01*
X17899810Y-32234214D01*
X17995048Y-32281833D01*
X18042667Y-32377071D01*
X18042667Y-32472310D01*
X17566476Y-32567548D01*
X18423619Y-32853262D02*
X18518857Y-32900881D01*
X18709333Y-32900881D01*
X18804572Y-32853262D01*
X18852191Y-32758024D01*
X18852191Y-32710405D01*
X18804572Y-32615167D01*
X18709333Y-32567548D01*
X18566476Y-32567548D01*
X18471238Y-32519929D01*
X18423619Y-32424690D01*
X18423619Y-32377071D01*
X18471238Y-32281833D01*
X18566476Y-32234214D01*
X18709333Y-32234214D01*
X18804572Y-32281833D01*
X19280762Y-32900881D02*
X19280762Y-32234214D01*
X19280762Y-31900881D02*
X19233143Y-31948500D01*
X19280762Y-31996119D01*
X19328381Y-31948500D01*
X19280762Y-31900881D01*
X19280762Y-31996119D01*
X20185524Y-32234214D02*
X20185524Y-33043738D01*
X20137905Y-33138976D01*
X20090286Y-33186595D01*
X19995047Y-33234214D01*
X19852190Y-33234214D01*
X19756952Y-33186595D01*
X20185524Y-32853262D02*
X20090286Y-32900881D01*
X19899809Y-32900881D01*
X19804571Y-32853262D01*
X19756952Y-32805643D01*
X19709333Y-32710405D01*
X19709333Y-32424690D01*
X19756952Y-32329452D01*
X19804571Y-32281833D01*
X19899809Y-32234214D01*
X20090286Y-32234214D01*
X20185524Y-32281833D01*
X20661714Y-32234214D02*
X20661714Y-32900881D01*
X20661714Y-32329452D02*
X20709333Y-32281833D01*
X20804571Y-32234214D01*
X20947429Y-32234214D01*
X21042667Y-32281833D01*
X21090286Y-32377071D01*
X21090286Y-32900881D01*
X21947429Y-32853262D02*
X21852191Y-32900881D01*
X21661714Y-32900881D01*
X21566476Y-32853262D01*
X21518857Y-32758024D01*
X21518857Y-32377071D01*
X21566476Y-32281833D01*
X21661714Y-32234214D01*
X21852191Y-32234214D01*
X21947429Y-32281833D01*
X21995048Y-32377071D01*
X21995048Y-32472310D01*
X21518857Y-32567548D01*
X22852191Y-32900881D02*
X22852191Y-31900881D01*
X22852191Y-32853262D02*
X22756953Y-32900881D01*
X22566476Y-32900881D01*
X22471238Y-32853262D01*
X22423619Y-32805643D01*
X22376000Y-32710405D01*
X22376000Y-32424690D01*
X22423619Y-32329452D01*
X22471238Y-32281833D01*
X22566476Y-32234214D01*
X22756953Y-32234214D01*
X22852191Y-32281833D01*
X24090286Y-32900881D02*
X24090286Y-31900881D01*
X24090286Y-32281833D02*
X24185524Y-32234214D01*
X24376001Y-32234214D01*
X24471239Y-32281833D01*
X24518858Y-32329452D01*
X24566477Y-32424690D01*
X24566477Y-32710405D01*
X24518858Y-32805643D01*
X24471239Y-32853262D01*
X24376001Y-32900881D01*
X24185524Y-32900881D01*
X24090286Y-32853262D01*
X24899810Y-32234214D02*
X25137905Y-32900881D01*
X25376001Y-32234214D02*
X25137905Y-32900881D01*
X25042667Y-33138976D01*
X24995048Y-33186595D01*
X24899810Y-33234214D01*
X26471239Y-32853262D02*
X26614096Y-32900881D01*
X26852192Y-32900881D01*
X26947430Y-32853262D01*
X26995049Y-32805643D01*
X27042668Y-32710405D01*
X27042668Y-32615167D01*
X26995049Y-32519929D01*
X26947430Y-32472310D01*
X26852192Y-32424690D01*
X26661715Y-32377071D01*
X26566477Y-32329452D01*
X26518858Y-32281833D01*
X26471239Y-32186595D01*
X26471239Y-32091357D01*
X26518858Y-31996119D01*
X26566477Y-31948500D01*
X26661715Y-31900881D01*
X26899811Y-31900881D01*
X27042668Y-31948500D01*
X27471239Y-32900881D02*
X27471239Y-31900881D01*
X27804573Y-32615167D01*
X28137906Y-31900881D01*
X28137906Y-32900881D01*
X28566477Y-32853262D02*
X28709334Y-32900881D01*
X28947430Y-32900881D01*
X29042668Y-32853262D01*
X29090287Y-32805643D01*
X29137906Y-32710405D01*
X29137906Y-32615167D01*
X29090287Y-32519929D01*
X29042668Y-32472310D01*
X28947430Y-32424690D01*
X28756953Y-32377071D01*
X28661715Y-32329452D01*
X28614096Y-32281833D01*
X28566477Y-32186595D01*
X28566477Y-32091357D01*
X28614096Y-31996119D01*
X28661715Y-31948500D01*
X28756953Y-31900881D01*
X28995049Y-31900881D01*
X29137906Y-31948500D01*
X30042668Y-32900881D02*
X29566477Y-32900881D01*
X29566477Y-31900881D01*
X30376001Y-32900881D02*
X30376001Y-31900881D01*
X30709334Y-31900881D02*
X31280763Y-31900881D01*
X30995048Y-32900881D02*
X30995048Y-31900881D01*
D12*
X15329762Y-30759310D02*
X15329762Y-29159310D01*
X15863096Y-30302167D01*
X16396429Y-29159310D01*
X16396429Y-30759310D01*
X17158333Y-30759310D02*
X17158333Y-29692643D01*
X17158333Y-29159310D02*
X17082143Y-29235500D01*
X17158333Y-29311690D01*
X17234524Y-29235500D01*
X17158333Y-29159310D01*
X17158333Y-29311690D01*
X18605953Y-30683119D02*
X18453572Y-30759310D01*
X18148810Y-30759310D01*
X17996429Y-30683119D01*
X17920238Y-30606929D01*
X17844048Y-30454548D01*
X17844048Y-29997405D01*
X17920238Y-29845024D01*
X17996429Y-29768833D01*
X18148810Y-29692643D01*
X18453572Y-29692643D01*
X18605953Y-29768833D01*
X19291667Y-30759310D02*
X19291667Y-29692643D01*
X19291667Y-29997405D02*
X19367858Y-29845024D01*
X19444048Y-29768833D01*
X19596429Y-29692643D01*
X19748810Y-29692643D01*
X20510715Y-30759310D02*
X20358334Y-30683119D01*
X20282143Y-30606929D01*
X20205953Y-30454548D01*
X20205953Y-29997405D01*
X20282143Y-29845024D01*
X20358334Y-29768833D01*
X20510715Y-29692643D01*
X20739286Y-29692643D01*
X20891667Y-29768833D01*
X20967858Y-29845024D01*
X21044048Y-29997405D01*
X21044048Y-30454548D01*
X20967858Y-30606929D01*
X20891667Y-30683119D01*
X20739286Y-30759310D01*
X20510715Y-30759310D01*
X22948810Y-30759310D02*
X22948810Y-29159310D01*
X23482144Y-30302167D01*
X24015477Y-29159310D01*
X24015477Y-30759310D01*
X25463096Y-30759310D02*
X25463096Y-29921214D01*
X25386905Y-29768833D01*
X25234524Y-29692643D01*
X24929762Y-29692643D01*
X24777381Y-29768833D01*
X25463096Y-30683119D02*
X25310715Y-30759310D01*
X24929762Y-30759310D01*
X24777381Y-30683119D01*
X24701191Y-30530738D01*
X24701191Y-30378357D01*
X24777381Y-30225976D01*
X24929762Y-30149786D01*
X25310715Y-30149786D01*
X25463096Y-30073595D01*
X26225000Y-29692643D02*
X26225000Y-31292643D01*
X26225000Y-29768833D02*
X26377381Y-29692643D01*
X26682143Y-29692643D01*
X26834524Y-29768833D01*
X26910715Y-29845024D01*
X26986905Y-29997405D01*
X26986905Y-30454548D01*
X26910715Y-30606929D01*
X26834524Y-30683119D01*
X26682143Y-30759310D01*
X26377381Y-30759310D01*
X26225000Y-30683119D01*
X27901191Y-30759310D02*
X27748810Y-30683119D01*
X27672619Y-30530738D01*
X27672619Y-29159310D01*
X29120238Y-30683119D02*
X28967857Y-30759310D01*
X28663095Y-30759310D01*
X28510714Y-30683119D01*
X28434524Y-30530738D01*
X28434524Y-29921214D01*
X28510714Y-29768833D01*
X28663095Y-29692643D01*
X28967857Y-29692643D01*
X29120238Y-29768833D01*
X29196429Y-29921214D01*
X29196429Y-30073595D01*
X28434524Y-30225976D01*
D13*
X1295524Y-24745905D02*
X1028857Y-24364952D01*
X838381Y-24745905D02*
X838381Y-23945905D01*
X1143143Y-23945905D01*
X1219334Y-23984000D01*
X1257429Y-24022095D01*
X1295524Y-24098286D01*
X1295524Y-24212571D01*
X1257429Y-24288762D01*
X1219334Y-24326857D01*
X1143143Y-24364952D01*
X838381Y-24364952D01*
X1943143Y-24707810D02*
X1866953Y-24745905D01*
X1714572Y-24745905D01*
X1638381Y-24707810D01*
X1600286Y-24631619D01*
X1600286Y-24326857D01*
X1638381Y-24250667D01*
X1714572Y-24212571D01*
X1866953Y-24212571D01*
X1943143Y-24250667D01*
X1981238Y-24326857D01*
X1981238Y-24403048D01*
X1600286Y-24479238D01*
X2286000Y-24707810D02*
X2362190Y-24745905D01*
X2514571Y-24745905D01*
X2590762Y-24707810D01*
X2628857Y-24631619D01*
X2628857Y-24593524D01*
X2590762Y-24517333D01*
X2514571Y-24479238D01*
X2400286Y-24479238D01*
X2324095Y-24441143D01*
X2286000Y-24364952D01*
X2286000Y-24326857D01*
X2324095Y-24250667D01*
X2400286Y-24212571D01*
X2514571Y-24212571D01*
X2590762Y-24250667D01*
X3276476Y-24707810D02*
X3200286Y-24745905D01*
X3047905Y-24745905D01*
X2971714Y-24707810D01*
X2933619Y-24631619D01*
X2933619Y-24326857D01*
X2971714Y-24250667D01*
X3047905Y-24212571D01*
X3200286Y-24212571D01*
X3276476Y-24250667D01*
X3314571Y-24326857D01*
X3314571Y-24403048D01*
X2933619Y-24479238D01*
X3543142Y-24212571D02*
X3847904Y-24212571D01*
X3657428Y-23945905D02*
X3657428Y-24631619D01*
X3695523Y-24707810D01*
X3771714Y-24745905D01*
X3847904Y-24745905D01*
X781237Y-14077905D02*
X781237Y-13277905D01*
X781237Y-13582667D02*
X857428Y-13544571D01*
X1009809Y-13544571D01*
X1085999Y-13582667D01*
X1124094Y-13620762D01*
X1162190Y-13696952D01*
X1162190Y-13925524D01*
X1124094Y-14001714D01*
X1085999Y-14039810D01*
X1009809Y-14077905D01*
X857428Y-14077905D01*
X781237Y-14039810D01*
X1619333Y-14077905D02*
X1543142Y-14039810D01*
X1505047Y-14001714D01*
X1466952Y-13925524D01*
X1466952Y-13696952D01*
X1505047Y-13620762D01*
X1543142Y-13582667D01*
X1619333Y-13544571D01*
X1733619Y-13544571D01*
X1809809Y-13582667D01*
X1847904Y-13620762D01*
X1886000Y-13696952D01*
X1886000Y-13925524D01*
X1847904Y-14001714D01*
X1809809Y-14039810D01*
X1733619Y-14077905D01*
X1619333Y-14077905D01*
X2343143Y-14077905D02*
X2266952Y-14039810D01*
X2228857Y-14001714D01*
X2190762Y-13925524D01*
X2190762Y-13696952D01*
X2228857Y-13620762D01*
X2266952Y-13582667D01*
X2343143Y-13544571D01*
X2457429Y-13544571D01*
X2533619Y-13582667D01*
X2571714Y-13620762D01*
X2609810Y-13696952D01*
X2609810Y-13925524D01*
X2571714Y-14001714D01*
X2533619Y-14039810D01*
X2457429Y-14077905D01*
X2343143Y-14077905D01*
X2838381Y-13544571D02*
X3143143Y-13544571D01*
X2952667Y-13277905D02*
X2952667Y-13963619D01*
X2990762Y-14039810D01*
X3066953Y-14077905D01*
X3143143Y-14077905D01*
X3562191Y-13277905D02*
X3638382Y-13277905D01*
X3714572Y-13316000D01*
X3752667Y-13354095D01*
X3790763Y-13430286D01*
X3828858Y-13582667D01*
X3828858Y-13773143D01*
X3790763Y-13925524D01*
X3752667Y-14001714D01*
X3714572Y-14039810D01*
X3638382Y-14077905D01*
X3562191Y-14077905D01*
X3486001Y-14039810D01*
X3447905Y-14001714D01*
X3409810Y-13925524D01*
X3371715Y-13773143D01*
X3371715Y-13582667D01*
X3409810Y-13430286D01*
X3447905Y-13354095D01*
X3486001Y-13316000D01*
X3562191Y-13277905D01*
X32010405Y-24117167D02*
X32810405Y-23850500D01*
X32010405Y-23583833D01*
X32734214Y-22860024D02*
X32772310Y-22898119D01*
X32810405Y-23012405D01*
X32810405Y-23088595D01*
X32772310Y-23202881D01*
X32696119Y-23279072D01*
X32619929Y-23317167D01*
X32467548Y-23355262D01*
X32353262Y-23355262D01*
X32200881Y-23317167D01*
X32124690Y-23279072D01*
X32048500Y-23202881D01*
X32010405Y-23088595D01*
X32010405Y-23012405D01*
X32048500Y-22898119D01*
X32086595Y-22860024D01*
X32734214Y-22060024D02*
X32772310Y-22098119D01*
X32810405Y-22212405D01*
X32810405Y-22288595D01*
X32772310Y-22402881D01*
X32696119Y-22479072D01*
X32619929Y-22517167D01*
X32467548Y-22555262D01*
X32353262Y-22555262D01*
X32200881Y-22517167D01*
X32124690Y-22479072D01*
X32048500Y-22402881D01*
X32010405Y-22288595D01*
X32010405Y-22212405D01*
X32048500Y-22098119D01*
X32086595Y-22060024D01*
X29889500Y-23723523D02*
X29851405Y-23799714D01*
X29851405Y-23913999D01*
X29889500Y-24028285D01*
X29965690Y-24104476D01*
X30041881Y-24142571D01*
X30194262Y-24180666D01*
X30308548Y-24180666D01*
X30460929Y-24142571D01*
X30537119Y-24104476D01*
X30613310Y-24028285D01*
X30651405Y-23913999D01*
X30651405Y-23837809D01*
X30613310Y-23723523D01*
X30575214Y-23685428D01*
X30308548Y-23685428D01*
X30308548Y-23837809D01*
X30651405Y-23342571D02*
X29851405Y-23342571D01*
X30651405Y-22885428D01*
X29851405Y-22885428D01*
X30651405Y-22504476D02*
X29851405Y-22504476D01*
X29851405Y-22314000D01*
X29889500Y-22199714D01*
X29965690Y-22123523D01*
X30041881Y-22085428D01*
X30194262Y-22047333D01*
X30308548Y-22047333D01*
X30460929Y-22085428D01*
X30537119Y-22123523D01*
X30613310Y-22199714D01*
X30651405Y-22314000D01*
X30651405Y-22504476D01*
X33216810Y-12414024D02*
X33254905Y-12299738D01*
X33254905Y-12109262D01*
X33216810Y-12033072D01*
X33178714Y-11994976D01*
X33102524Y-11956881D01*
X33026333Y-11956881D01*
X32950143Y-11994976D01*
X32912048Y-12033072D01*
X32873952Y-12109262D01*
X32835857Y-12261643D01*
X32797762Y-12337834D01*
X32759667Y-12375929D01*
X32683476Y-12414024D01*
X32607286Y-12414024D01*
X32531095Y-12375929D01*
X32493000Y-12337834D01*
X32454905Y-12261643D01*
X32454905Y-12071167D01*
X32493000Y-11956881D01*
X32454905Y-11690214D02*
X33254905Y-11499738D01*
X32683476Y-11347357D01*
X33254905Y-11194976D01*
X32454905Y-11004500D01*
X33178714Y-10242595D02*
X33216810Y-10280690D01*
X33254905Y-10394976D01*
X33254905Y-10471166D01*
X33216810Y-10585452D01*
X33140619Y-10661643D01*
X33064429Y-10699738D01*
X32912048Y-10737833D01*
X32797762Y-10737833D01*
X32645381Y-10699738D01*
X32569190Y-10661643D01*
X32493000Y-10585452D01*
X32454905Y-10471166D01*
X32454905Y-10394976D01*
X32493000Y-10280690D01*
X32531095Y-10242595D01*
X33254905Y-9518785D02*
X33254905Y-9899738D01*
X32454905Y-9899738D01*
X33254905Y-9252119D02*
X32454905Y-9252119D01*
X33254905Y-8794976D02*
X32797762Y-9137833D01*
X32454905Y-8794976D02*
X32912048Y-9252119D01*
X30930810Y-10140738D02*
X30968905Y-10026452D01*
X30968905Y-9835976D01*
X30930810Y-9759786D01*
X30892714Y-9721690D01*
X30816524Y-9683595D01*
X30740333Y-9683595D01*
X30664143Y-9721690D01*
X30626048Y-9759786D01*
X30587952Y-9835976D01*
X30549857Y-9988357D01*
X30511762Y-10064548D01*
X30473667Y-10102643D01*
X30397476Y-10140738D01*
X30321286Y-10140738D01*
X30245095Y-10102643D01*
X30207000Y-10064548D01*
X30168905Y-9988357D01*
X30168905Y-9797881D01*
X30207000Y-9683595D01*
X30168905Y-9416928D02*
X30968905Y-9226452D01*
X30397476Y-9074071D01*
X30968905Y-8921690D01*
X30168905Y-8731214D01*
X30968905Y-8426452D02*
X30168905Y-8426452D01*
X30168905Y-8235976D01*
X30207000Y-8121690D01*
X30283190Y-8045499D01*
X30359381Y-8007404D01*
X30511762Y-7969309D01*
X30626048Y-7969309D01*
X30778429Y-8007404D01*
X30854619Y-8045499D01*
X30930810Y-8121690D01*
X30968905Y-8235976D01*
X30968905Y-8426452D01*
X30968905Y-7626452D02*
X30168905Y-7626452D01*
X30168905Y-7093119D02*
X30168905Y-6940738D01*
X30207000Y-6864547D01*
X30283190Y-6788357D01*
X30435571Y-6750262D01*
X30702238Y-6750262D01*
X30854619Y-6788357D01*
X30930810Y-6864547D01*
X30968905Y-6940738D01*
X30968905Y-7093119D01*
X30930810Y-7169309D01*
X30854619Y-7245500D01*
X30702238Y-7283595D01*
X30435571Y-7283595D01*
X30283190Y-7245500D01*
X30207000Y-7169309D01*
X30168905Y-7093119D01*
D14*
X24897500Y-22230500D02*
X24897500Y-21705500D01*
X17647500Y-22230500D02*
X17647500Y-21705500D01*
X17647500Y-14980500D02*
X17647500Y-15505500D01*
X24897500Y-14980500D02*
X24897500Y-15505500D01*
X24897500Y-22230500D02*
X24372500Y-22230500D01*
X24897500Y-14980500D02*
X24372500Y-14980500D01*
X17647500Y-14980500D02*
X18172500Y-14980500D01*
X17647500Y-22230500D02*
X18172500Y-22230500D01*
X24897500Y-21705500D02*
X26272500Y-21705500D01*
X7463840Y-27574240D02*
X7512100Y-27574240D01*
X10262820Y-26873200D02*
X10262820Y-27574240D01*
X10262820Y-27574240D02*
X10013900Y-27574240D01*
X7463840Y-27574240D02*
X7263180Y-27574240D01*
X7263180Y-27574240D02*
X7263180Y-26873200D01*
X33940269Y-25527000D02*
G75*
G03X33940269Y-25527000I-1047269J0D01*
G01*
X28800500Y-16669500D02*
X28800500Y-15969500D01*
X30000500Y-15969500D02*
X30000500Y-16669500D01*
X26381000Y-23526000D02*
X26381000Y-24226000D01*
X25181000Y-24226000D02*
X25181000Y-23526000D01*
X16352000Y-23587000D02*
X15652000Y-23587000D01*
X15652000Y-22387000D02*
X16352000Y-22387000D01*
X16164000Y-13685000D02*
X16164000Y-12985000D01*
X17364000Y-12985000D02*
X17364000Y-13685000D01*
X10256000Y-21936000D02*
X9556000Y-21936000D01*
X9556000Y-20736000D02*
X10256000Y-20736000D01*
X10256000Y-17237000D02*
X9556000Y-17237000D01*
X9556000Y-16037000D02*
X10256000Y-16037000D01*
X7493000Y-6159500D02*
X7493000Y-9207500D01*
X11176000Y-9207500D02*
X13081000Y-9207500D01*
X13081000Y-9207500D02*
X13081000Y-6159500D01*
X13081000Y-6159500D02*
X11176000Y-6159500D01*
X9525000Y-6159500D02*
X7493000Y-6159500D01*
X7693000Y-6159500D02*
X7693000Y-9207500D01*
X7493000Y-9207500D02*
X9525000Y-9207500D01*
X12982500Y-14064500D02*
X12982500Y-14764500D01*
X11782500Y-14764500D02*
X11782500Y-14064500D01*
X12982500Y-10381500D02*
X12982500Y-11081500D01*
X11782500Y-11081500D02*
X11782500Y-10381500D01*
X31524500Y-19525500D02*
X31524500Y-20225500D01*
X30324500Y-20225500D02*
X30324500Y-19525500D01*
X31524500Y-15969500D02*
X31524500Y-16669500D01*
X30324500Y-16669500D02*
X30324500Y-15969500D01*
X7366000Y-11811000D02*
X7366000Y-12192000D01*
X7366000Y-10795000D02*
X7366000Y-11176000D01*
X7366000Y-11176000D02*
X7747000Y-11811000D01*
X7747000Y-11811000D02*
X6985000Y-11811000D01*
X6985000Y-11811000D02*
X7366000Y-11176000D01*
X7874000Y-11176000D02*
X6858000Y-11176000D01*
X6466000Y-9493500D02*
X6466000Y-13033500D01*
X8266000Y-9493500D02*
X8266000Y-13033500D01*
X720000Y-4615000D02*
X720000Y-6515000D01*
X1820000Y-4615000D02*
X1820000Y-6515000D01*
X1270000Y-5515000D02*
X1270000Y-5965000D01*
X1520000Y-5465000D02*
X1020000Y-5465000D01*
X1270000Y-5465000D02*
X1520000Y-5715000D01*
X1520000Y-5715000D02*
X1020000Y-5715000D01*
X1020000Y-5715000D02*
X1270000Y-5465000D01*
X1820000Y-33485000D02*
X1820000Y-31585000D01*
X720000Y-33485000D02*
X720000Y-31585000D01*
X1270000Y-32585000D02*
X1270000Y-32135000D01*
X1020000Y-32635000D02*
X1520000Y-32635000D01*
X1270000Y-32635000D02*
X1020000Y-32385000D01*
X1020000Y-32385000D02*
X1520000Y-32385000D01*
X1520000Y-32385000D02*
X1270000Y-32635000D01*
X1270000Y-1905000D02*
X1905000Y-1270000D01*
X1905000Y-1270000D02*
X3175000Y-1270000D01*
X3175000Y-1270000D02*
X3810000Y-1905000D01*
X3810000Y-1905000D02*
X4445000Y-1270000D01*
X4445000Y-1270000D02*
X5715000Y-1270000D01*
X5715000Y-1270000D02*
X6350000Y-1905000D01*
X6350000Y-1905000D02*
X6985000Y-1270000D01*
X6985000Y-1270000D02*
X8255000Y-1270000D01*
X8255000Y-1270000D02*
X8890000Y-1905000D01*
X8890000Y-1905000D02*
X9525000Y-1270000D01*
X9525000Y-1270000D02*
X10795000Y-1270000D01*
X10795000Y-1270000D02*
X11430000Y-1905000D01*
X11430000Y-1905000D02*
X12065000Y-1270000D01*
X12065000Y-1270000D02*
X13335000Y-1270000D01*
X13335000Y-1270000D02*
X13970000Y-1905000D01*
X13970000Y-1905000D02*
X14605000Y-1270000D01*
X14605000Y-1270000D02*
X15875000Y-1270000D01*
X15875000Y-1270000D02*
X16510000Y-1905000D01*
X16510000Y-1905000D02*
X17145000Y-1270000D01*
X17145000Y-1270000D02*
X18415000Y-1270000D01*
X18415000Y-1270000D02*
X19050000Y-1905000D01*
X19050000Y-1905000D02*
X19685000Y-1270000D01*
X19685000Y-1270000D02*
X20955000Y-1270000D01*
X20955000Y-1270000D02*
X21590000Y-1905000D01*
X21590000Y-1905000D02*
X22225000Y-1270000D01*
X22225000Y-1270000D02*
X23495000Y-1270000D01*
X23495000Y-1270000D02*
X24130000Y-1905000D01*
X24130000Y-1905000D02*
X24765000Y-1270000D01*
X24765000Y-1270000D02*
X26035000Y-1270000D01*
X26035000Y-1270000D02*
X26670000Y-1905000D01*
X26670000Y-1905000D02*
X27305000Y-1270000D01*
X27305000Y-1270000D02*
X28575000Y-1270000D01*
X28575000Y-1270000D02*
X29210000Y-1905000D01*
X29210000Y-1905000D02*
X29845000Y-1270000D01*
X29845000Y-1270000D02*
X31115000Y-1270000D01*
X31115000Y-1270000D02*
X31750000Y-1905000D01*
X31750000Y-1905000D02*
X32385000Y-1270000D01*
X32385000Y-1270000D02*
X33655000Y-1270000D01*
X33655000Y-1270000D02*
X34290000Y-1905000D01*
X34290000Y-1905000D02*
X34925000Y-1270000D01*
X34925000Y-1270000D02*
X36195000Y-1270000D01*
X36195000Y-1270000D02*
X36830000Y-1905000D01*
X36830000Y-1905000D02*
X36830000Y-3175000D01*
X36830000Y-3175000D02*
X36195000Y-3810000D01*
X36195000Y-3810000D02*
X34925000Y-3810000D01*
X34925000Y-3810000D02*
X34290000Y-3175000D01*
X34290000Y-3175000D02*
X33655000Y-3810000D01*
X33655000Y-3810000D02*
X32385000Y-3810000D01*
X32385000Y-3810000D02*
X31750000Y-3175000D01*
X31750000Y-3175000D02*
X31115000Y-3810000D01*
X31115000Y-3810000D02*
X29845000Y-3810000D01*
X29845000Y-3810000D02*
X29210000Y-3175000D01*
X29210000Y-3175000D02*
X28575000Y-3810000D01*
X28575000Y-3810000D02*
X27305000Y-3810000D01*
X27305000Y-3810000D02*
X26670000Y-3175000D01*
X26670000Y-3175000D02*
X26035000Y-3810000D01*
X26035000Y-3810000D02*
X24765000Y-3810000D01*
X24765000Y-3810000D02*
X24130000Y-3175000D01*
X24130000Y-3175000D02*
X23495000Y-3810000D01*
X23495000Y-3810000D02*
X22225000Y-3810000D01*
X22225000Y-3810000D02*
X21590000Y-3175000D01*
X21590000Y-3175000D02*
X20955000Y-3810000D01*
X20955000Y-3810000D02*
X19685000Y-3810000D01*
X19685000Y-3810000D02*
X19050000Y-3175000D01*
X19050000Y-3175000D02*
X18415000Y-3810000D01*
X18415000Y-3810000D02*
X17145000Y-3810000D01*
X17145000Y-3810000D02*
X16510000Y-3175000D01*
X16510000Y-3175000D02*
X15875000Y-3810000D01*
X15875000Y-3810000D02*
X14605000Y-3810000D01*
X14605000Y-3810000D02*
X13970000Y-3175000D01*
X13970000Y-3175000D02*
X13335000Y-3810000D01*
X13335000Y-3810000D02*
X12065000Y-3810000D01*
X12065000Y-3810000D02*
X11430000Y-3175000D01*
X11430000Y-3175000D02*
X10795000Y-3810000D01*
X10795000Y-3810000D02*
X9525000Y-3810000D01*
X9525000Y-3810000D02*
X8890000Y-3175000D01*
X8890000Y-3175000D02*
X8255000Y-3810000D01*
X8255000Y-3810000D02*
X6985000Y-3810000D01*
X6985000Y-3810000D02*
X6350000Y-3175000D01*
X6350000Y-3175000D02*
X5715000Y-3810000D01*
X5715000Y-3810000D02*
X4445000Y-3810000D01*
X4445000Y-3810000D02*
X3810000Y-3175000D01*
X3810000Y-3175000D02*
X3175000Y-3810000D01*
X3175000Y-3810000D02*
X1905000Y-3810000D01*
X1905000Y-3810000D02*
X1270000Y-3175000D01*
X1270000Y-3175000D02*
X1270000Y-1905000D01*
X1270000Y-34925000D02*
X1905000Y-34290000D01*
X1905000Y-34290000D02*
X3175000Y-34290000D01*
X3175000Y-34290000D02*
X3810000Y-34925000D01*
X3810000Y-34925000D02*
X4445000Y-34290000D01*
X4445000Y-34290000D02*
X5715000Y-34290000D01*
X5715000Y-34290000D02*
X6350000Y-34925000D01*
X6350000Y-34925000D02*
X6985000Y-34290000D01*
X6985000Y-34290000D02*
X8255000Y-34290000D01*
X8255000Y-34290000D02*
X8890000Y-34925000D01*
X8890000Y-34925000D02*
X9525000Y-34290000D01*
X9525000Y-34290000D02*
X10795000Y-34290000D01*
X10795000Y-34290000D02*
X11430000Y-34925000D01*
X11430000Y-34925000D02*
X12065000Y-34290000D01*
X12065000Y-34290000D02*
X13335000Y-34290000D01*
X13335000Y-34290000D02*
X13970000Y-34925000D01*
X13970000Y-34925000D02*
X14605000Y-34290000D01*
X14605000Y-34290000D02*
X15875000Y-34290000D01*
X15875000Y-34290000D02*
X16510000Y-34925000D01*
X16510000Y-34925000D02*
X17145000Y-34290000D01*
X17145000Y-34290000D02*
X18415000Y-34290000D01*
X18415000Y-34290000D02*
X19050000Y-34925000D01*
X19050000Y-34925000D02*
X19685000Y-34290000D01*
X19685000Y-34290000D02*
X20955000Y-34290000D01*
X20955000Y-34290000D02*
X21590000Y-34925000D01*
X21590000Y-34925000D02*
X22225000Y-34290000D01*
X22225000Y-34290000D02*
X23495000Y-34290000D01*
X23495000Y-34290000D02*
X24130000Y-34925000D01*
X24130000Y-34925000D02*
X24765000Y-34290000D01*
X24765000Y-34290000D02*
X26035000Y-34290000D01*
X26035000Y-34290000D02*
X26670000Y-34925000D01*
X26670000Y-34925000D02*
X27305000Y-34290000D01*
X27305000Y-34290000D02*
X28575000Y-34290000D01*
X28575000Y-34290000D02*
X29210000Y-34925000D01*
X29210000Y-34925000D02*
X29845000Y-34290000D01*
X29845000Y-34290000D02*
X31115000Y-34290000D01*
X31115000Y-34290000D02*
X31750000Y-34925000D01*
X31750000Y-34925000D02*
X32385000Y-34290000D01*
X32385000Y-34290000D02*
X33655000Y-34290000D01*
X33655000Y-34290000D02*
X34290000Y-34925000D01*
X34290000Y-34925000D02*
X34925000Y-34290000D01*
X34925000Y-34290000D02*
X36195000Y-34290000D01*
X36195000Y-34290000D02*
X36830000Y-34925000D01*
X36830000Y-34925000D02*
X36830000Y-36195000D01*
X36830000Y-36195000D02*
X36195000Y-36830000D01*
X36195000Y-36830000D02*
X34925000Y-36830000D01*
X34925000Y-36830000D02*
X34290000Y-36195000D01*
X34290000Y-36195000D02*
X33655000Y-36830000D01*
X33655000Y-36830000D02*
X32385000Y-36830000D01*
X32385000Y-36830000D02*
X31750000Y-36195000D01*
X31750000Y-36195000D02*
X31115000Y-36830000D01*
X31115000Y-36830000D02*
X29845000Y-36830000D01*
X29845000Y-36830000D02*
X29210000Y-36195000D01*
X29210000Y-36195000D02*
X28575000Y-36830000D01*
X28575000Y-36830000D02*
X27305000Y-36830000D01*
X27305000Y-36830000D02*
X26670000Y-36195000D01*
X26670000Y-36195000D02*
X26035000Y-36830000D01*
X26035000Y-36830000D02*
X24765000Y-36830000D01*
X24765000Y-36830000D02*
X24130000Y-36195000D01*
X24130000Y-36195000D02*
X23495000Y-36830000D01*
X23495000Y-36830000D02*
X22225000Y-36830000D01*
X22225000Y-36830000D02*
X21590000Y-36195000D01*
X21590000Y-36195000D02*
X20955000Y-36830000D01*
X20955000Y-36830000D02*
X19685000Y-36830000D01*
X19685000Y-36830000D02*
X19050000Y-36195000D01*
X19050000Y-36195000D02*
X18415000Y-36830000D01*
X18415000Y-36830000D02*
X17145000Y-36830000D01*
X17145000Y-36830000D02*
X16510000Y-36195000D01*
X16510000Y-36195000D02*
X15875000Y-36830000D01*
X15875000Y-36830000D02*
X14605000Y-36830000D01*
X14605000Y-36830000D02*
X13970000Y-36195000D01*
X13970000Y-36195000D02*
X13335000Y-36830000D01*
X13335000Y-36830000D02*
X12065000Y-36830000D01*
X12065000Y-36830000D02*
X11430000Y-36195000D01*
X11430000Y-36195000D02*
X10795000Y-36830000D01*
X10795000Y-36830000D02*
X9525000Y-36830000D01*
X9525000Y-36830000D02*
X8890000Y-36195000D01*
X8890000Y-36195000D02*
X8255000Y-36830000D01*
X8255000Y-36830000D02*
X6985000Y-36830000D01*
X6985000Y-36830000D02*
X6350000Y-36195000D01*
X6350000Y-36195000D02*
X5715000Y-36830000D01*
X5715000Y-36830000D02*
X4445000Y-36830000D01*
X4445000Y-36830000D02*
X3810000Y-36195000D01*
X3810000Y-36195000D02*
X3175000Y-36830000D01*
X3175000Y-36830000D02*
X1905000Y-36830000D01*
X1905000Y-36830000D02*
X1270000Y-36195000D01*
X1270000Y-36195000D02*
X1270000Y-34925000D01*
X36195000Y-34226500D02*
X34925000Y-34226500D01*
X36195000Y-3746500D02*
X36830000Y-4381500D01*
X36830000Y-4381500D02*
X36830000Y-5651500D01*
X36830000Y-5651500D02*
X36195000Y-6286500D01*
X36195000Y-6286500D02*
X36830000Y-6921500D01*
X36830000Y-6921500D02*
X36830000Y-8191500D01*
X36830000Y-8191500D02*
X36195000Y-8826500D01*
X36195000Y-8826500D02*
X36830000Y-9461500D01*
X36830000Y-9461500D02*
X36830000Y-10731500D01*
X36830000Y-10731500D02*
X36195000Y-11366500D01*
X36195000Y-11366500D02*
X36830000Y-12001500D01*
X36830000Y-12001500D02*
X36830000Y-13271500D01*
X36830000Y-13271500D02*
X36195000Y-13906500D01*
X36195000Y-13906500D02*
X36830000Y-14541500D01*
X36830000Y-14541500D02*
X36830000Y-15811500D01*
X36830000Y-15811500D02*
X36195000Y-16446500D01*
X36195000Y-16446500D02*
X36830000Y-17081500D01*
X36830000Y-17081500D02*
X36830000Y-18351500D01*
X36830000Y-18351500D02*
X36195000Y-18986500D01*
X36195000Y-18986500D02*
X36830000Y-19621500D01*
X36830000Y-19621500D02*
X36830000Y-20891500D01*
X36830000Y-20891500D02*
X36195000Y-21526500D01*
X36195000Y-21526500D02*
X36830000Y-22161500D01*
X36830000Y-22161500D02*
X36830000Y-23431500D01*
X36830000Y-23431500D02*
X36195000Y-24066500D01*
X36195000Y-24066500D02*
X36830000Y-24701500D01*
X36830000Y-24701500D02*
X36830000Y-25971500D01*
X36830000Y-25971500D02*
X36195000Y-26606500D01*
X36195000Y-26606500D02*
X36830000Y-27241500D01*
X36830000Y-27241500D02*
X36830000Y-28511500D01*
X36830000Y-28511500D02*
X36195000Y-29146500D01*
X36195000Y-29146500D02*
X36830000Y-29781500D01*
X36830000Y-29781500D02*
X36830000Y-31051500D01*
X36830000Y-31051500D02*
X36195000Y-31686500D01*
X36195000Y-31686500D02*
X36830000Y-32321500D01*
X36830000Y-32321500D02*
X36830000Y-33591500D01*
X36830000Y-33591500D02*
X36195000Y-34226500D01*
X34925000Y-34226500D02*
X34290000Y-33591500D01*
X34290000Y-33591500D02*
X34290000Y-32321500D01*
X34290000Y-32321500D02*
X34925000Y-31686500D01*
X34925000Y-31686500D02*
X34290000Y-31051500D01*
X34290000Y-31051500D02*
X34290000Y-29781500D01*
X34290000Y-29781500D02*
X34925000Y-29146500D01*
X34925000Y-29146500D02*
X34290000Y-28511500D01*
X34290000Y-28511500D02*
X34290000Y-27241500D01*
X34290000Y-27241500D02*
X34925000Y-26606500D01*
X34925000Y-26606500D02*
X34290000Y-25971500D01*
X34290000Y-25971500D02*
X34290000Y-24701500D01*
X34290000Y-24701500D02*
X34925000Y-24066500D01*
X34925000Y-24066500D02*
X34290000Y-23431500D01*
X34290000Y-23431500D02*
X34290000Y-22161500D01*
X34290000Y-22161500D02*
X34925000Y-21526500D01*
X34925000Y-21526500D02*
X34290000Y-20891500D01*
X34290000Y-20891500D02*
X34290000Y-19621500D01*
X34290000Y-19621500D02*
X34925000Y-18986500D01*
X34925000Y-18986500D02*
X34290000Y-18351500D01*
X34290000Y-18351500D02*
X34290000Y-17081500D01*
X34290000Y-17081500D02*
X34925000Y-16446500D01*
X34925000Y-16446500D02*
X34290000Y-15811500D01*
X34290000Y-15811500D02*
X34290000Y-14541500D01*
X34290000Y-14541500D02*
X34925000Y-13906500D01*
X34925000Y-13906500D02*
X34290000Y-13271500D01*
X34290000Y-13271500D02*
X34290000Y-12001500D01*
X34290000Y-12001500D02*
X34925000Y-11366500D01*
X34925000Y-11366500D02*
X34290000Y-10731500D01*
X34290000Y-10731500D02*
X34290000Y-9461500D01*
X34290000Y-9461500D02*
X34925000Y-8826500D01*
X34925000Y-8826500D02*
X34290000Y-8191500D01*
X34290000Y-8191500D02*
X34290000Y-6921500D01*
X34290000Y-6921500D02*
X34925000Y-6286500D01*
X34925000Y-6286500D02*
X34290000Y-5651500D01*
X34290000Y-5651500D02*
X34290000Y-4381500D01*
X34290000Y-4381500D02*
X34925000Y-3746500D01*
X34925000Y-3746500D02*
X36195000Y-3746500D01*
X10765840Y-27574240D02*
X10814100Y-27574240D01*
X13564820Y-26873200D02*
X13564820Y-27574240D01*
X13564820Y-27574240D02*
X13315900Y-27574240D01*
X10765840Y-27574240D02*
X10565180Y-27574240D01*
X10565180Y-27574240D02*
X10565180Y-26873200D01*
X11882500Y-28662000D02*
X12882500Y-28662000D01*
X12882500Y-30012000D02*
X11882500Y-30012000D01*
X9279000Y-28662000D02*
X10279000Y-28662000D01*
X10279000Y-30012000D02*
X9279000Y-30012000D01*
X9279000Y-17549500D02*
X10279000Y-17549500D01*
X10279000Y-18899500D02*
X9279000Y-18899500D01*
X9279000Y-19137000D02*
X10279000Y-19137000D01*
X10279000Y-20487000D02*
X9279000Y-20487000D01*
X9279000Y-23836000D02*
X10279000Y-23836000D01*
X10279000Y-25186000D02*
X9279000Y-25186000D01*
X11882500Y-23836000D02*
X12882500Y-23836000D01*
X12882500Y-25186000D02*
X11882500Y-25186000D01*
X9279000Y-22248500D02*
X10279000Y-22248500D01*
X10279000Y-23598500D02*
X9279000Y-23598500D01*
X29853000Y-13358500D02*
X30853000Y-13358500D01*
X30853000Y-14708500D02*
X29853000Y-14708500D01*
X3596000Y-5278500D02*
X3596000Y-6278500D01*
X2246000Y-6278500D02*
X2246000Y-5278500D01*
X3770000Y-12120500D02*
X3770000Y-11120500D01*
X5120000Y-11120500D02*
X5120000Y-12120500D01*
X3770000Y-9199500D02*
X3770000Y-8199500D01*
X5120000Y-8199500D02*
X5120000Y-9199500D01*
X2246000Y-32758000D02*
X2246000Y-31758000D01*
X3596000Y-31758000D02*
X3596000Y-32758000D01*
X5120000Y-28900500D02*
X5120000Y-29900500D01*
X3770000Y-29900500D02*
X3770000Y-28900500D01*
X3770000Y-26979500D02*
X3770000Y-25979500D01*
X5120000Y-25979500D02*
X5120000Y-26979500D01*
X355000Y-11010000D02*
X-195000Y-11010000D01*
X-195000Y-11010000D02*
X-195000Y-9310000D01*
X-195000Y-9310000D02*
X355000Y-9310000D01*
X3455000Y-8410000D02*
X3455000Y-11910000D01*
X355000Y-11910000D02*
X355000Y-8410000D01*
X355000Y-28790000D02*
X-195000Y-28790000D01*
X-195000Y-28790000D02*
X-195000Y-27090000D01*
X-195000Y-27090000D02*
X355000Y-27090000D01*
X3455000Y-26190000D02*
X3455000Y-29690000D01*
X355000Y-29690000D02*
X355000Y-26190000D01*
X9382760Y-12924840D02*
X9382760Y-12973100D01*
X10083800Y-15723820D02*
X9382760Y-15723820D01*
X9382760Y-15723820D02*
X9382760Y-15474900D01*
X9382760Y-12924840D02*
X9382760Y-12724180D01*
X9382760Y-12724180D02*
X10083800Y-12724180D01*
X9382760Y-9622840D02*
X9382760Y-9671100D01*
X10083800Y-12421820D02*
X9382760Y-12421820D01*
X9382760Y-12421820D02*
X9382760Y-12172900D01*
X9382760Y-9622840D02*
X9382760Y-9422180D01*
X9382760Y-9422180D02*
X10083800Y-9422180D01*
D10*
X29796500Y-21058000D02*
X29796500Y-21158000D01*
X28496500Y-21058000D02*
X28496500Y-21158000D01*
X29796500Y-18058000D02*
X29796500Y-17958000D01*
X28496500Y-18058000D02*
X28496500Y-17958000D01*
X28496500Y-18658000D02*
X28496500Y-19258000D01*
X29796500Y-18658000D02*
X29796500Y-19258000D01*
X29796500Y-19858000D02*
X29796500Y-20458000D01*
X28496500Y-19858000D02*
X28496500Y-20458000D01*
D15*
X28746500Y-21278000D02*
X29546500Y-21278000D01*
D10*
X28496500Y-21158000D02*
X29796500Y-21158000D01*
X28496500Y-17958000D02*
X29796500Y-17958000D01*
D14*
X31590769Y-5461000D02*
G75*
G03X31590769Y-5461000I-1047269J0D01*
G01*
X33876769Y-7556500D02*
G75*
G03X33876769Y-7556500I-1047269J0D01*
G01*
X31273269Y-25463500D02*
G75*
G03X31273269Y-25463500I-1047269J0D01*
G01*
D16*
G36*
X28338004Y-8607581D02*
X28351090Y-8613440D01*
X28423216Y-8680302D01*
X28444821Y-8787373D01*
X28418866Y-8928845D01*
X28348317Y-9098910D01*
X28236136Y-9291763D01*
X28085287Y-9501595D01*
X27898733Y-9722601D01*
X27679438Y-9948973D01*
X27659964Y-9967720D01*
X27356110Y-10240080D01*
X27036673Y-10487474D01*
X26687266Y-10719639D01*
X26293505Y-10946316D01*
X25958261Y-11119652D01*
X25788163Y-11204527D01*
X25675698Y-11262493D01*
X25615253Y-11297912D01*
X25601214Y-11315147D01*
X25627970Y-11318560D01*
X25689906Y-11312514D01*
X25713882Y-11309586D01*
X26178600Y-11218582D01*
X26640024Y-11063726D01*
X27085473Y-10851095D01*
X27502268Y-10586763D01*
X27877727Y-10276808D01*
X27886423Y-10268575D01*
X27997941Y-10164586D01*
X28090607Y-10081803D01*
X28152657Y-10030524D01*
X28171639Y-10018888D01*
X28185207Y-10051155D01*
X28192405Y-10136562D01*
X28193640Y-10258022D01*
X28189321Y-10398445D01*
X28179854Y-10540744D01*
X28165649Y-10667829D01*
X28154632Y-10731527D01*
X28054588Y-11041229D01*
X27893365Y-11319475D01*
X27674378Y-11563185D01*
X27401046Y-11769282D01*
X27076784Y-11934688D01*
X26705010Y-12056325D01*
X26676197Y-12063385D01*
X26498830Y-12094144D01*
X26267197Y-12116913D01*
X25997136Y-12131674D01*
X25704485Y-12138407D01*
X25405082Y-12137093D01*
X25114765Y-12127716D01*
X24849372Y-12110254D01*
X24624741Y-12084691D01*
X24518325Y-12065924D01*
X24307043Y-12019652D01*
X24155792Y-11981305D01*
X24055055Y-11946921D01*
X23995314Y-11912542D01*
X23967053Y-11874205D01*
X23960666Y-11833864D01*
X23993620Y-11746849D01*
X24057680Y-11699034D01*
X24193640Y-11608963D01*
X24345743Y-11477128D01*
X24494223Y-11322499D01*
X24619318Y-11164047D01*
X24627558Y-11152020D01*
X24690287Y-11051137D01*
X24775160Y-10903173D01*
X24873195Y-10724365D01*
X24975409Y-10530950D01*
X25029974Y-10424583D01*
X25147430Y-10202255D01*
X25262455Y-10001684D01*
X25366737Y-9836652D01*
X25451962Y-9720941D01*
X25459895Y-9711725D01*
X25675989Y-9518341D01*
X25933940Y-9378313D01*
X26228377Y-9292584D01*
X26553926Y-9262097D01*
X26905212Y-9287794D01*
X27276862Y-9370619D01*
X27323660Y-9384779D01*
X27437294Y-9415487D01*
X27522095Y-9429718D01*
X27557748Y-9425287D01*
X27706732Y-9210371D01*
X27845007Y-8999474D01*
X27957814Y-8815279D01*
X27980708Y-8775347D01*
X28062481Y-8648978D01*
X28139039Y-8583374D01*
X28225755Y-8571815D01*
X28338004Y-8607581D01*
X28338004Y-8607581D01*
G37*
X28338004Y-8607581D02*
X28351090Y-8613440D01*
X28423216Y-8680302D01*
X28444821Y-8787373D01*
X28418866Y-8928845D01*
X28348317Y-9098910D01*
X28236136Y-9291763D01*
X28085287Y-9501595D01*
X27898733Y-9722601D01*
X27679438Y-9948973D01*
X27659964Y-9967720D01*
X27356110Y-10240080D01*
X27036673Y-10487474D01*
X26687266Y-10719639D01*
X26293505Y-10946316D01*
X25958261Y-11119652D01*
X25788163Y-11204527D01*
X25675698Y-11262493D01*
X25615253Y-11297912D01*
X25601214Y-11315147D01*
X25627970Y-11318560D01*
X25689906Y-11312514D01*
X25713882Y-11309586D01*
X26178600Y-11218582D01*
X26640024Y-11063726D01*
X27085473Y-10851095D01*
X27502268Y-10586763D01*
X27877727Y-10276808D01*
X27886423Y-10268575D01*
X27997941Y-10164586D01*
X28090607Y-10081803D01*
X28152657Y-10030524D01*
X28171639Y-10018888D01*
X28185207Y-10051155D01*
X28192405Y-10136562D01*
X28193640Y-10258022D01*
X28189321Y-10398445D01*
X28179854Y-10540744D01*
X28165649Y-10667829D01*
X28154632Y-10731527D01*
X28054588Y-11041229D01*
X27893365Y-11319475D01*
X27674378Y-11563185D01*
X27401046Y-11769282D01*
X27076784Y-11934688D01*
X26705010Y-12056325D01*
X26676197Y-12063385D01*
X26498830Y-12094144D01*
X26267197Y-12116913D01*
X25997136Y-12131674D01*
X25704485Y-12138407D01*
X25405082Y-12137093D01*
X25114765Y-12127716D01*
X24849372Y-12110254D01*
X24624741Y-12084691D01*
X24518325Y-12065924D01*
X24307043Y-12019652D01*
X24155792Y-11981305D01*
X24055055Y-11946921D01*
X23995314Y-11912542D01*
X23967053Y-11874205D01*
X23960666Y-11833864D01*
X23993620Y-11746849D01*
X24057680Y-11699034D01*
X24193640Y-11608963D01*
X24345743Y-11477128D01*
X24494223Y-11322499D01*
X24619318Y-11164047D01*
X24627558Y-11152020D01*
X24690287Y-11051137D01*
X24775160Y-10903173D01*
X24873195Y-10724365D01*
X24975409Y-10530950D01*
X25029974Y-10424583D01*
X25147430Y-10202255D01*
X25262455Y-10001684D01*
X25366737Y-9836652D01*
X25451962Y-9720941D01*
X25459895Y-9711725D01*
X25675989Y-9518341D01*
X25933940Y-9378313D01*
X26228377Y-9292584D01*
X26553926Y-9262097D01*
X26905212Y-9287794D01*
X27276862Y-9370619D01*
X27323660Y-9384779D01*
X27437294Y-9415487D01*
X27522095Y-9429718D01*
X27557748Y-9425287D01*
X27706732Y-9210371D01*
X27845007Y-8999474D01*
X27957814Y-8815279D01*
X27980708Y-8775347D01*
X28062481Y-8648978D01*
X28139039Y-8583374D01*
X28225755Y-8571815D01*
X28338004Y-8607581D01*
G36*
X25918583Y-5054922D02*
X26363291Y-5083895D01*
X26760009Y-5135751D01*
X27100494Y-5209293D01*
X27215041Y-5243199D01*
X27331753Y-5296795D01*
X27382142Y-5357983D01*
X27364850Y-5422188D01*
X27285597Y-5481243D01*
X27149636Y-5571314D01*
X26997534Y-5703149D01*
X26849053Y-5857778D01*
X26723958Y-6016229D01*
X26715719Y-6028257D01*
X26653287Y-6128760D01*
X26568668Y-6276527D01*
X26470737Y-6455473D01*
X26368373Y-6649513D01*
X26310971Y-6761641D01*
X26190686Y-6990119D01*
X26075257Y-7191821D01*
X25972172Y-7354305D01*
X25888920Y-7465130D01*
X25884666Y-7469924D01*
X25661948Y-7666197D01*
X25399083Y-7807085D01*
X25100618Y-7891792D01*
X24771104Y-7919525D01*
X24415089Y-7889489D01*
X24037121Y-7800890D01*
X24019617Y-7795498D01*
X23905983Y-7764789D01*
X23821182Y-7750559D01*
X23785529Y-7754990D01*
X23636545Y-7969906D01*
X23498269Y-8180803D01*
X23385463Y-8364998D01*
X23362569Y-8404930D01*
X23296586Y-8515495D01*
X23245783Y-8576605D01*
X23194504Y-8602267D01*
X23137090Y-8606655D01*
X23037293Y-8591233D01*
X22964069Y-8558669D01*
X22911459Y-8477033D01*
X22909770Y-8356424D01*
X22955652Y-8202949D01*
X23045751Y-8022718D01*
X23176717Y-7821841D01*
X23345197Y-7606424D01*
X23547840Y-7382579D01*
X23683313Y-7247835D01*
X23990282Y-6972782D01*
X24312321Y-6723814D01*
X24663752Y-6491322D01*
X25058898Y-6265696D01*
X25424694Y-6079500D01*
X25611645Y-5985823D01*
X25733206Y-5917832D01*
X25789200Y-5874281D01*
X25779448Y-5853923D01*
X25703774Y-5855510D01*
X25562000Y-5877798D01*
X25400542Y-5909762D01*
X24880323Y-6051111D01*
X24398851Y-6250511D01*
X23957531Y-6507232D01*
X23557768Y-6820547D01*
X23450317Y-6921395D01*
X23342606Y-7023971D01*
X23252788Y-7104672D01*
X23193142Y-7152719D01*
X23176914Y-7161388D01*
X23163946Y-7128947D01*
X23154358Y-7042929D01*
X23149840Y-6920292D01*
X23149696Y-6887986D01*
X23175989Y-6546590D01*
X23256193Y-6245583D01*
X23393966Y-5975826D01*
X23509065Y-5832592D01*
X25912703Y-5832592D01*
X25917546Y-5853565D01*
X25936222Y-5856111D01*
X25965259Y-5843203D01*
X25959740Y-5832592D01*
X25917874Y-5828370D01*
X25912703Y-5832592D01*
X23509065Y-5832592D01*
X23592968Y-5728180D01*
X23628576Y-5692128D01*
X23882630Y-5481340D01*
X24176335Y-5313638D01*
X24513575Y-5187939D01*
X24898239Y-5103163D01*
X25334213Y-5058228D01*
X25825384Y-5052051D01*
X25918583Y-5054922D01*
X25918583Y-5054922D01*
G37*
X25918583Y-5054922D02*
X26363291Y-5083895D01*
X26760009Y-5135751D01*
X27100494Y-5209293D01*
X27215041Y-5243199D01*
X27331753Y-5296795D01*
X27382142Y-5357983D01*
X27364850Y-5422188D01*
X27285597Y-5481243D01*
X27149636Y-5571314D01*
X26997534Y-5703149D01*
X26849053Y-5857778D01*
X26723958Y-6016229D01*
X26715719Y-6028257D01*
X26653287Y-6128760D01*
X26568668Y-6276527D01*
X26470737Y-6455473D01*
X26368373Y-6649513D01*
X26310971Y-6761641D01*
X26190686Y-6990119D01*
X26075257Y-7191821D01*
X25972172Y-7354305D01*
X25888920Y-7465130D01*
X25884666Y-7469924D01*
X25661948Y-7666197D01*
X25399083Y-7807085D01*
X25100618Y-7891792D01*
X24771104Y-7919525D01*
X24415089Y-7889489D01*
X24037121Y-7800890D01*
X24019617Y-7795498D01*
X23905983Y-7764789D01*
X23821182Y-7750559D01*
X23785529Y-7754990D01*
X23636545Y-7969906D01*
X23498269Y-8180803D01*
X23385463Y-8364998D01*
X23362569Y-8404930D01*
X23296586Y-8515495D01*
X23245783Y-8576605D01*
X23194504Y-8602267D01*
X23137090Y-8606655D01*
X23037293Y-8591233D01*
X22964069Y-8558669D01*
X22911459Y-8477033D01*
X22909770Y-8356424D01*
X22955652Y-8202949D01*
X23045751Y-8022718D01*
X23176717Y-7821841D01*
X23345197Y-7606424D01*
X23547840Y-7382579D01*
X23683313Y-7247835D01*
X23990282Y-6972782D01*
X24312321Y-6723814D01*
X24663752Y-6491322D01*
X25058898Y-6265696D01*
X25424694Y-6079500D01*
X25611645Y-5985823D01*
X25733206Y-5917832D01*
X25789200Y-5874281D01*
X25779448Y-5853923D01*
X25703774Y-5855510D01*
X25562000Y-5877798D01*
X25400542Y-5909762D01*
X24880323Y-6051111D01*
X24398851Y-6250511D01*
X23957531Y-6507232D01*
X23557768Y-6820547D01*
X23450317Y-6921395D01*
X23342606Y-7023971D01*
X23252788Y-7104672D01*
X23193142Y-7152719D01*
X23176914Y-7161388D01*
X23163946Y-7128947D01*
X23154358Y-7042929D01*
X23149840Y-6920292D01*
X23149696Y-6887986D01*
X23175989Y-6546590D01*
X23256193Y-6245583D01*
X23393966Y-5975826D01*
X23509065Y-5832592D01*
X25912703Y-5832592D01*
X25917546Y-5853565D01*
X25936222Y-5856111D01*
X25965259Y-5843203D01*
X25959740Y-5832592D01*
X25917874Y-5828370D01*
X25912703Y-5832592D01*
X23509065Y-5832592D01*
X23592968Y-5728180D01*
X23628576Y-5692128D01*
X23882630Y-5481340D01*
X24176335Y-5313638D01*
X24513575Y-5187939D01*
X24898239Y-5103163D01*
X25334213Y-5058228D01*
X25825384Y-5052051D01*
X25918583Y-5054922D01*
D13*
X26866905Y-22580524D02*
X27514524Y-22580524D01*
X27590714Y-22542429D01*
X27628810Y-22504333D01*
X27666905Y-22428143D01*
X27666905Y-22275762D01*
X27628810Y-22199571D01*
X27590714Y-22161476D01*
X27514524Y-22123381D01*
X26866905Y-22123381D01*
X27666905Y-21323381D02*
X27666905Y-21780524D01*
X27666905Y-21551953D02*
X26866905Y-21551953D01*
X26981190Y-21628143D01*
X27057381Y-21704334D01*
X27095476Y-21780524D01*
X7994595Y-29921190D02*
X7956500Y-29997381D01*
X7880310Y-30073571D01*
X7766024Y-30187857D01*
X7727929Y-30264048D01*
X7727929Y-30340238D01*
X7918405Y-30302143D02*
X7880310Y-30378333D01*
X7804119Y-30454524D01*
X7651738Y-30492619D01*
X7385071Y-30492619D01*
X7232690Y-30454524D01*
X7156500Y-30378333D01*
X7118405Y-30302143D01*
X7118405Y-30149762D01*
X7156500Y-30073571D01*
X7232690Y-29997381D01*
X7385071Y-29959286D01*
X7651738Y-29959286D01*
X7804119Y-29997381D01*
X7880310Y-30073571D01*
X7918405Y-30149762D01*
X7918405Y-30302143D01*
X7194595Y-29654524D02*
X7156500Y-29616429D01*
X7118405Y-29540238D01*
X7118405Y-29349762D01*
X7156500Y-29273572D01*
X7194595Y-29235476D01*
X7270786Y-29197381D01*
X7346976Y-29197381D01*
X7461262Y-29235476D01*
X7918405Y-29692619D01*
X7918405Y-29197381D01*
X4806905Y-19640476D02*
X4006905Y-19640476D01*
X4006905Y-19335714D01*
X4045000Y-19259523D01*
X4083095Y-19221428D01*
X4159286Y-19183333D01*
X4273571Y-19183333D01*
X4349762Y-19221428D01*
X4387857Y-19259523D01*
X4425952Y-19335714D01*
X4425952Y-19640476D01*
X4806905Y-18421428D02*
X4806905Y-18878571D01*
X4806905Y-18650000D02*
X4006905Y-18650000D01*
X4121190Y-18726190D01*
X4197381Y-18802381D01*
X4235476Y-18878571D01*
X28352714Y-15690833D02*
X28390810Y-15728928D01*
X28428905Y-15843214D01*
X28428905Y-15919404D01*
X28390810Y-16033690D01*
X28314619Y-16109881D01*
X28238429Y-16147976D01*
X28086048Y-16186071D01*
X27971762Y-16186071D01*
X27819381Y-16147976D01*
X27743190Y-16109881D01*
X27667000Y-16033690D01*
X27628905Y-15919404D01*
X27628905Y-15843214D01*
X27667000Y-15728928D01*
X27705095Y-15690833D01*
X28428905Y-14928928D02*
X28428905Y-15386071D01*
X28428905Y-15157500D02*
X27628905Y-15157500D01*
X27743190Y-15233690D01*
X27819381Y-15309881D01*
X27857476Y-15386071D01*
X27590714Y-24517333D02*
X27628810Y-24555428D01*
X27666905Y-24669714D01*
X27666905Y-24745904D01*
X27628810Y-24860190D01*
X27552619Y-24936381D01*
X27476429Y-24974476D01*
X27324048Y-25012571D01*
X27209762Y-25012571D01*
X27057381Y-24974476D01*
X26981190Y-24936381D01*
X26905000Y-24860190D01*
X26866905Y-24745904D01*
X26866905Y-24669714D01*
X26905000Y-24555428D01*
X26943095Y-24517333D01*
X26943095Y-24212571D02*
X26905000Y-24174476D01*
X26866905Y-24098285D01*
X26866905Y-23907809D01*
X26905000Y-23831619D01*
X26943095Y-23793523D01*
X27019286Y-23755428D01*
X27095476Y-23755428D01*
X27209762Y-23793523D01*
X27666905Y-24250666D01*
X27666905Y-23755428D01*
X15271714Y-21532833D02*
X15309810Y-21570928D01*
X15347905Y-21685214D01*
X15347905Y-21761404D01*
X15309810Y-21875690D01*
X15233619Y-21951881D01*
X15157429Y-21989976D01*
X15005048Y-22028071D01*
X14890762Y-22028071D01*
X14738381Y-21989976D01*
X14662190Y-21951881D01*
X14586000Y-21875690D01*
X14547905Y-21761404D01*
X14547905Y-21685214D01*
X14586000Y-21570928D01*
X14624095Y-21532833D01*
X14547905Y-21266166D02*
X14547905Y-20770928D01*
X14852667Y-21037595D01*
X14852667Y-20923309D01*
X14890762Y-20847119D01*
X14928857Y-20809023D01*
X15005048Y-20770928D01*
X15195524Y-20770928D01*
X15271714Y-20809023D01*
X15309810Y-20847119D01*
X15347905Y-20923309D01*
X15347905Y-21151881D01*
X15309810Y-21228071D01*
X15271714Y-21266166D01*
X16795714Y-11118833D02*
X16833810Y-11156928D01*
X16871905Y-11271214D01*
X16871905Y-11347404D01*
X16833810Y-11461690D01*
X16757619Y-11537881D01*
X16681429Y-11575976D01*
X16529048Y-11614071D01*
X16414762Y-11614071D01*
X16262381Y-11575976D01*
X16186190Y-11537881D01*
X16110000Y-11461690D01*
X16071905Y-11347404D01*
X16071905Y-11271214D01*
X16110000Y-11156928D01*
X16148095Y-11118833D01*
X16338571Y-10433119D02*
X16871905Y-10433119D01*
X16033810Y-10623595D02*
X16605238Y-10814071D01*
X16605238Y-10318833D01*
X12287214Y-21532833D02*
X12325310Y-21570928D01*
X12363405Y-21685214D01*
X12363405Y-21761404D01*
X12325310Y-21875690D01*
X12249119Y-21951881D01*
X12172929Y-21989976D01*
X12020548Y-22028071D01*
X11906262Y-22028071D01*
X11753881Y-21989976D01*
X11677690Y-21951881D01*
X11601500Y-21875690D01*
X11563405Y-21761404D01*
X11563405Y-21685214D01*
X11601500Y-21570928D01*
X11639595Y-21532833D01*
X11563405Y-20809023D02*
X11563405Y-21189976D01*
X11944357Y-21228071D01*
X11906262Y-21189976D01*
X11868167Y-21113785D01*
X11868167Y-20923309D01*
X11906262Y-20847119D01*
X11944357Y-20809023D01*
X12020548Y-20770928D01*
X12211024Y-20770928D01*
X12287214Y-20809023D01*
X12325310Y-20847119D01*
X12363405Y-20923309D01*
X12363405Y-21113785D01*
X12325310Y-21189976D01*
X12287214Y-21228071D01*
X12287214Y-16770333D02*
X12325310Y-16808428D01*
X12363405Y-16922714D01*
X12363405Y-16998904D01*
X12325310Y-17113190D01*
X12249119Y-17189381D01*
X12172929Y-17227476D01*
X12020548Y-17265571D01*
X11906262Y-17265571D01*
X11753881Y-17227476D01*
X11677690Y-17189381D01*
X11601500Y-17113190D01*
X11563405Y-16998904D01*
X11563405Y-16922714D01*
X11601500Y-16808428D01*
X11639595Y-16770333D01*
X11563405Y-16084619D02*
X11563405Y-16237000D01*
X11601500Y-16313190D01*
X11639595Y-16351285D01*
X11753881Y-16427476D01*
X11906262Y-16465571D01*
X12211024Y-16465571D01*
X12287214Y-16427476D01*
X12325310Y-16389381D01*
X12363405Y-16313190D01*
X12363405Y-16160809D01*
X12325310Y-16084619D01*
X12287214Y-16046523D01*
X12211024Y-16008428D01*
X12020548Y-16008428D01*
X11944357Y-16046523D01*
X11906262Y-16084619D01*
X11868167Y-16160809D01*
X11868167Y-16313190D01*
X11906262Y-16389381D01*
X11944357Y-16427476D01*
X12020548Y-16465571D01*
X10572714Y-7626333D02*
X10610810Y-7664428D01*
X10648905Y-7778714D01*
X10648905Y-7854904D01*
X10610810Y-7969190D01*
X10534619Y-8045381D01*
X10458429Y-8083476D01*
X10306048Y-8121571D01*
X10191762Y-8121571D01*
X10039381Y-8083476D01*
X9963190Y-8045381D01*
X9887000Y-7969190D01*
X9848905Y-7854904D01*
X9848905Y-7778714D01*
X9887000Y-7664428D01*
X9925095Y-7626333D01*
X9848905Y-7359666D02*
X9848905Y-6826333D01*
X10648905Y-7169190D01*
X14255714Y-15373333D02*
X14293810Y-15411428D01*
X14331905Y-15525714D01*
X14331905Y-15601904D01*
X14293810Y-15716190D01*
X14217619Y-15792381D01*
X14141429Y-15830476D01*
X13989048Y-15868571D01*
X13874762Y-15868571D01*
X13722381Y-15830476D01*
X13646190Y-15792381D01*
X13570000Y-15716190D01*
X13531905Y-15601904D01*
X13531905Y-15525714D01*
X13570000Y-15411428D01*
X13608095Y-15373333D01*
X13874762Y-14916190D02*
X13836667Y-14992381D01*
X13798571Y-15030476D01*
X13722381Y-15068571D01*
X13684286Y-15068571D01*
X13608095Y-15030476D01*
X13570000Y-14992381D01*
X13531905Y-14916190D01*
X13531905Y-14763809D01*
X13570000Y-14687619D01*
X13608095Y-14649523D01*
X13684286Y-14611428D01*
X13722381Y-14611428D01*
X13798571Y-14649523D01*
X13836667Y-14687619D01*
X13874762Y-14763809D01*
X13874762Y-14916190D01*
X13912857Y-14992381D01*
X13950952Y-15030476D01*
X14027143Y-15068571D01*
X14179524Y-15068571D01*
X14255714Y-15030476D01*
X14293810Y-14992381D01*
X14331905Y-14916190D01*
X14331905Y-14763809D01*
X14293810Y-14687619D01*
X14255714Y-14649523D01*
X14179524Y-14611428D01*
X14027143Y-14611428D01*
X13950952Y-14649523D01*
X13912857Y-14687619D01*
X13874762Y-14763809D01*
X14255714Y-10039333D02*
X14293810Y-10077428D01*
X14331905Y-10191714D01*
X14331905Y-10267904D01*
X14293810Y-10382190D01*
X14217619Y-10458381D01*
X14141429Y-10496476D01*
X13989048Y-10534571D01*
X13874762Y-10534571D01*
X13722381Y-10496476D01*
X13646190Y-10458381D01*
X13570000Y-10382190D01*
X13531905Y-10267904D01*
X13531905Y-10191714D01*
X13570000Y-10077428D01*
X13608095Y-10039333D01*
X14331905Y-9658381D02*
X14331905Y-9506000D01*
X14293810Y-9429809D01*
X14255714Y-9391714D01*
X14141429Y-9315523D01*
X13989048Y-9277428D01*
X13684286Y-9277428D01*
X13608095Y-9315523D01*
X13570000Y-9353619D01*
X13531905Y-9429809D01*
X13531905Y-9582190D01*
X13570000Y-9658381D01*
X13608095Y-9696476D01*
X13684286Y-9734571D01*
X13874762Y-9734571D01*
X13950952Y-9696476D01*
X13989048Y-9658381D01*
X14027143Y-9582190D01*
X14027143Y-9429809D01*
X13989048Y-9353619D01*
X13950952Y-9315523D01*
X13874762Y-9277428D01*
X32734214Y-20326286D02*
X32772310Y-20364381D01*
X32810405Y-20478667D01*
X32810405Y-20554857D01*
X32772310Y-20669143D01*
X32696119Y-20745334D01*
X32619929Y-20783429D01*
X32467548Y-20821524D01*
X32353262Y-20821524D01*
X32200881Y-20783429D01*
X32124690Y-20745334D01*
X32048500Y-20669143D01*
X32010405Y-20554857D01*
X32010405Y-20478667D01*
X32048500Y-20364381D01*
X32086595Y-20326286D01*
X32810405Y-19564381D02*
X32810405Y-20021524D01*
X32810405Y-19792953D02*
X32010405Y-19792953D01*
X32124690Y-19869143D01*
X32200881Y-19945334D01*
X32238976Y-20021524D01*
X32010405Y-19069143D02*
X32010405Y-18992952D01*
X32048500Y-18916762D01*
X32086595Y-18878667D01*
X32162786Y-18840571D01*
X32315167Y-18802476D01*
X32505643Y-18802476D01*
X32658024Y-18840571D01*
X32734214Y-18878667D01*
X32772310Y-18916762D01*
X32810405Y-18992952D01*
X32810405Y-19069143D01*
X32772310Y-19145333D01*
X32734214Y-19183429D01*
X32658024Y-19221524D01*
X32505643Y-19259619D01*
X32315167Y-19259619D01*
X32162786Y-19221524D01*
X32086595Y-19183429D01*
X32048500Y-19145333D01*
X32010405Y-19069143D01*
X32670714Y-16389286D02*
X32708810Y-16427381D01*
X32746905Y-16541667D01*
X32746905Y-16617857D01*
X32708810Y-16732143D01*
X32632619Y-16808334D01*
X32556429Y-16846429D01*
X32404048Y-16884524D01*
X32289762Y-16884524D01*
X32137381Y-16846429D01*
X32061190Y-16808334D01*
X31985000Y-16732143D01*
X31946905Y-16617857D01*
X31946905Y-16541667D01*
X31985000Y-16427381D01*
X32023095Y-16389286D01*
X32746905Y-15627381D02*
X32746905Y-16084524D01*
X32746905Y-15855953D02*
X31946905Y-15855953D01*
X32061190Y-15932143D01*
X32137381Y-16008334D01*
X32175476Y-16084524D01*
X32746905Y-14865476D02*
X32746905Y-15322619D01*
X32746905Y-15094048D02*
X31946905Y-15094048D01*
X32061190Y-15170238D01*
X32137381Y-15246429D01*
X32175476Y-15322619D01*
X8172405Y-15258976D02*
X7372405Y-15258976D01*
X7372405Y-15068500D01*
X7410500Y-14954214D01*
X7486690Y-14878023D01*
X7562881Y-14839928D01*
X7715262Y-14801833D01*
X7829548Y-14801833D01*
X7981929Y-14839928D01*
X8058119Y-14878023D01*
X8134310Y-14954214D01*
X8172405Y-15068500D01*
X8172405Y-15258976D01*
X8172405Y-14039928D02*
X8172405Y-14497071D01*
X8172405Y-14268500D02*
X7372405Y-14268500D01*
X7486690Y-14344690D01*
X7562881Y-14420881D01*
X7600976Y-14497071D01*
X4997405Y-5670476D02*
X4197405Y-5670476D01*
X4197405Y-5480000D01*
X4235500Y-5365714D01*
X4311690Y-5289523D01*
X4387881Y-5251428D01*
X4540262Y-5213333D01*
X4654548Y-5213333D01*
X4806929Y-5251428D01*
X4883119Y-5289523D01*
X4959310Y-5365714D01*
X4997405Y-5480000D01*
X4997405Y-5670476D01*
X4273595Y-4908571D02*
X4235500Y-4870476D01*
X4197405Y-4794285D01*
X4197405Y-4603809D01*
X4235500Y-4527619D01*
X4273595Y-4489523D01*
X4349786Y-4451428D01*
X4425976Y-4451428D01*
X4540262Y-4489523D01*
X4997405Y-4946666D01*
X4997405Y-4451428D01*
X5314905Y-33356476D02*
X4514905Y-33356476D01*
X4514905Y-33166000D01*
X4553000Y-33051714D01*
X4629190Y-32975523D01*
X4705381Y-32937428D01*
X4857762Y-32899333D01*
X4972048Y-32899333D01*
X5124429Y-32937428D01*
X5200619Y-32975523D01*
X5276810Y-33051714D01*
X5314905Y-33166000D01*
X5314905Y-33356476D01*
X4514905Y-32632666D02*
X4514905Y-32137428D01*
X4819667Y-32404095D01*
X4819667Y-32289809D01*
X4857762Y-32213619D01*
X4895857Y-32175523D01*
X4972048Y-32137428D01*
X5162524Y-32137428D01*
X5238714Y-32175523D01*
X5276810Y-32213619D01*
X5314905Y-32289809D01*
X5314905Y-32518381D01*
X5276810Y-32594571D01*
X5238714Y-32632666D01*
X7283405Y-5670476D02*
X6483405Y-5670476D01*
X6483405Y-5365714D01*
X6521500Y-5289523D01*
X6559595Y-5251428D01*
X6635786Y-5213333D01*
X6750071Y-5213333D01*
X6826262Y-5251428D01*
X6864357Y-5289523D01*
X6902452Y-5365714D01*
X6902452Y-5670476D01*
X6559595Y-4908571D02*
X6521500Y-4870476D01*
X6483405Y-4794285D01*
X6483405Y-4603809D01*
X6521500Y-4527619D01*
X6559595Y-4489523D01*
X6635786Y-4451428D01*
X6711976Y-4451428D01*
X6826262Y-4489523D01*
X7283405Y-4946666D01*
X7283405Y-4451428D01*
X7981905Y-33356476D02*
X7181905Y-33356476D01*
X7181905Y-33051714D01*
X7220000Y-32975523D01*
X7258095Y-32937428D01*
X7334286Y-32899333D01*
X7448571Y-32899333D01*
X7524762Y-32937428D01*
X7562857Y-32975523D01*
X7600952Y-33051714D01*
X7600952Y-33356476D01*
X7181905Y-32632666D02*
X7181905Y-32137428D01*
X7486667Y-32404095D01*
X7486667Y-32289809D01*
X7524762Y-32213619D01*
X7562857Y-32175523D01*
X7639048Y-32137428D01*
X7829524Y-32137428D01*
X7905714Y-32175523D01*
X7943810Y-32213619D01*
X7981905Y-32289809D01*
X7981905Y-32518381D01*
X7943810Y-32594571D01*
X7905714Y-32632666D01*
X33699405Y-33610476D02*
X32899405Y-33610476D01*
X32899405Y-33305714D01*
X32937500Y-33229523D01*
X32975595Y-33191428D01*
X33051786Y-33153333D01*
X33166071Y-33153333D01*
X33242262Y-33191428D01*
X33280357Y-33229523D01*
X33318452Y-33305714D01*
X33318452Y-33610476D01*
X33166071Y-32467619D02*
X33699405Y-32467619D01*
X32861310Y-32658095D02*
X33432738Y-32848571D01*
X33432738Y-32353333D01*
X14789095Y-26111190D02*
X14751000Y-26187381D01*
X14674810Y-26263571D01*
X14560524Y-26377857D01*
X14522429Y-26454048D01*
X14522429Y-26530238D01*
X14712905Y-26492143D02*
X14674810Y-26568333D01*
X14598619Y-26644524D01*
X14446238Y-26682619D01*
X14179571Y-26682619D01*
X14027190Y-26644524D01*
X13951000Y-26568333D01*
X13912905Y-26492143D01*
X13912905Y-26339762D01*
X13951000Y-26263571D01*
X14027190Y-26187381D01*
X14179571Y-26149286D01*
X14446238Y-26149286D01*
X14598619Y-26187381D01*
X14674810Y-26263571D01*
X14712905Y-26339762D01*
X14712905Y-26492143D01*
X14712905Y-25387381D02*
X14712905Y-25844524D01*
X14712905Y-25615953D02*
X13912905Y-25615953D01*
X14027190Y-25692143D01*
X14103381Y-25768334D01*
X14141476Y-25844524D01*
X12109405Y-31121333D02*
X11728452Y-31388000D01*
X12109405Y-31578476D02*
X11309405Y-31578476D01*
X11309405Y-31273714D01*
X11347500Y-31197523D01*
X11385595Y-31159428D01*
X11461786Y-31121333D01*
X11576071Y-31121333D01*
X11652262Y-31159428D01*
X11690357Y-31197523D01*
X11728452Y-31273714D01*
X11728452Y-31578476D01*
X12109405Y-30359428D02*
X12109405Y-30816571D01*
X12109405Y-30588000D02*
X11309405Y-30588000D01*
X11423690Y-30664190D01*
X11499881Y-30740381D01*
X11537976Y-30816571D01*
X10839405Y-31121333D02*
X10458452Y-31388000D01*
X10839405Y-31578476D02*
X10039405Y-31578476D01*
X10039405Y-31273714D01*
X10077500Y-31197523D01*
X10115595Y-31159428D01*
X10191786Y-31121333D01*
X10306071Y-31121333D01*
X10382262Y-31159428D01*
X10420357Y-31197523D01*
X10458452Y-31273714D01*
X10458452Y-31578476D01*
X10115595Y-30816571D02*
X10077500Y-30778476D01*
X10039405Y-30702285D01*
X10039405Y-30511809D01*
X10077500Y-30435619D01*
X10115595Y-30397523D01*
X10191786Y-30359428D01*
X10267976Y-30359428D01*
X10382262Y-30397523D01*
X10839405Y-30854666D01*
X10839405Y-30359428D01*
X12363405Y-18294333D02*
X11982452Y-18561000D01*
X12363405Y-18751476D02*
X11563405Y-18751476D01*
X11563405Y-18446714D01*
X11601500Y-18370523D01*
X11639595Y-18332428D01*
X11715786Y-18294333D01*
X11830071Y-18294333D01*
X11906262Y-18332428D01*
X11944357Y-18370523D01*
X11982452Y-18446714D01*
X11982452Y-18751476D01*
X11563405Y-18027666D02*
X11563405Y-17532428D01*
X11868167Y-17799095D01*
X11868167Y-17684809D01*
X11906262Y-17608619D01*
X11944357Y-17570523D01*
X12020548Y-17532428D01*
X12211024Y-17532428D01*
X12287214Y-17570523D01*
X12325310Y-17608619D01*
X12363405Y-17684809D01*
X12363405Y-17913381D01*
X12325310Y-17989571D01*
X12287214Y-18027666D01*
X12363405Y-19945333D02*
X11982452Y-20212000D01*
X12363405Y-20402476D02*
X11563405Y-20402476D01*
X11563405Y-20097714D01*
X11601500Y-20021523D01*
X11639595Y-19983428D01*
X11715786Y-19945333D01*
X11830071Y-19945333D01*
X11906262Y-19983428D01*
X11944357Y-20021523D01*
X11982452Y-20097714D01*
X11982452Y-20402476D01*
X11830071Y-19259619D02*
X12363405Y-19259619D01*
X11525310Y-19450095D02*
X12096738Y-19640571D01*
X12096738Y-19145333D01*
X8299405Y-24707833D02*
X7918452Y-24974500D01*
X8299405Y-25164976D02*
X7499405Y-25164976D01*
X7499405Y-24860214D01*
X7537500Y-24784023D01*
X7575595Y-24745928D01*
X7651786Y-24707833D01*
X7766071Y-24707833D01*
X7842262Y-24745928D01*
X7880357Y-24784023D01*
X7918452Y-24860214D01*
X7918452Y-25164976D01*
X7499405Y-23984023D02*
X7499405Y-24364976D01*
X7880357Y-24403071D01*
X7842262Y-24364976D01*
X7804167Y-24288785D01*
X7804167Y-24098309D01*
X7842262Y-24022119D01*
X7880357Y-23984023D01*
X7956548Y-23945928D01*
X8147024Y-23945928D01*
X8223214Y-23984023D01*
X8261310Y-24022119D01*
X8299405Y-24098309D01*
X8299405Y-24288785D01*
X8261310Y-24364976D01*
X8223214Y-24403071D01*
X14712905Y-24517333D02*
X14331952Y-24784000D01*
X14712905Y-24974476D02*
X13912905Y-24974476D01*
X13912905Y-24669714D01*
X13951000Y-24593523D01*
X13989095Y-24555428D01*
X14065286Y-24517333D01*
X14179571Y-24517333D01*
X14255762Y-24555428D01*
X14293857Y-24593523D01*
X14331952Y-24669714D01*
X14331952Y-24974476D01*
X13912905Y-23831619D02*
X13912905Y-23984000D01*
X13951000Y-24060190D01*
X13989095Y-24098285D01*
X14103381Y-24174476D01*
X14255762Y-24212571D01*
X14560524Y-24212571D01*
X14636714Y-24174476D01*
X14674810Y-24136381D01*
X14712905Y-24060190D01*
X14712905Y-23907809D01*
X14674810Y-23831619D01*
X14636714Y-23793523D01*
X14560524Y-23755428D01*
X14370048Y-23755428D01*
X14293857Y-23793523D01*
X14255762Y-23831619D01*
X14217667Y-23907809D01*
X14217667Y-24060190D01*
X14255762Y-24136381D01*
X14293857Y-24174476D01*
X14370048Y-24212571D01*
X8299405Y-23120333D02*
X7918452Y-23387000D01*
X8299405Y-23577476D02*
X7499405Y-23577476D01*
X7499405Y-23272714D01*
X7537500Y-23196523D01*
X7575595Y-23158428D01*
X7651786Y-23120333D01*
X7766071Y-23120333D01*
X7842262Y-23158428D01*
X7880357Y-23196523D01*
X7918452Y-23272714D01*
X7918452Y-23577476D01*
X7499405Y-22853666D02*
X7499405Y-22320333D01*
X8299405Y-22663190D01*
X28428905Y-14166833D02*
X28047952Y-14433500D01*
X28428905Y-14623976D02*
X27628905Y-14623976D01*
X27628905Y-14319214D01*
X27667000Y-14243023D01*
X27705095Y-14204928D01*
X27781286Y-14166833D01*
X27895571Y-14166833D01*
X27971762Y-14204928D01*
X28009857Y-14243023D01*
X28047952Y-14319214D01*
X28047952Y-14623976D01*
X27971762Y-13709690D02*
X27933667Y-13785881D01*
X27895571Y-13823976D01*
X27819381Y-13862071D01*
X27781286Y-13862071D01*
X27705095Y-13823976D01*
X27667000Y-13785881D01*
X27628905Y-13709690D01*
X27628905Y-13557309D01*
X27667000Y-13481119D01*
X27705095Y-13443023D01*
X27781286Y-13404928D01*
X27819381Y-13404928D01*
X27895571Y-13443023D01*
X27933667Y-13481119D01*
X27971762Y-13557309D01*
X27971762Y-13709690D01*
X28009857Y-13785881D01*
X28047952Y-13823976D01*
X28124143Y-13862071D01*
X28276524Y-13862071D01*
X28352714Y-13823976D01*
X28390810Y-13785881D01*
X28428905Y-13709690D01*
X28428905Y-13557309D01*
X28390810Y-13481119D01*
X28352714Y-13443023D01*
X28276524Y-13404928D01*
X28124143Y-13404928D01*
X28047952Y-13443023D01*
X28009857Y-13481119D01*
X27971762Y-13557309D01*
X6140405Y-5213333D02*
X5759452Y-5480000D01*
X6140405Y-5670476D02*
X5340405Y-5670476D01*
X5340405Y-5365714D01*
X5378500Y-5289523D01*
X5416595Y-5251428D01*
X5492786Y-5213333D01*
X5607071Y-5213333D01*
X5683262Y-5251428D01*
X5721357Y-5289523D01*
X5759452Y-5365714D01*
X5759452Y-5670476D01*
X6140405Y-4832381D02*
X6140405Y-4680000D01*
X6102310Y-4603809D01*
X6064214Y-4565714D01*
X5949929Y-4489523D01*
X5797548Y-4451428D01*
X5492786Y-4451428D01*
X5416595Y-4489523D01*
X5378500Y-4527619D01*
X5340405Y-4603809D01*
X5340405Y-4756190D01*
X5378500Y-4832381D01*
X5416595Y-4870476D01*
X5492786Y-4908571D01*
X5683262Y-4908571D01*
X5759452Y-4870476D01*
X5797548Y-4832381D01*
X5835643Y-4756190D01*
X5835643Y-4603809D01*
X5797548Y-4527619D01*
X5759452Y-4489523D01*
X5683262Y-4451428D01*
X6140405Y-12452286D02*
X5759452Y-12718953D01*
X6140405Y-12909429D02*
X5340405Y-12909429D01*
X5340405Y-12604667D01*
X5378500Y-12528476D01*
X5416595Y-12490381D01*
X5492786Y-12452286D01*
X5607071Y-12452286D01*
X5683262Y-12490381D01*
X5721357Y-12528476D01*
X5759452Y-12604667D01*
X5759452Y-12909429D01*
X6140405Y-11690381D02*
X6140405Y-12147524D01*
X6140405Y-11918953D02*
X5340405Y-11918953D01*
X5454690Y-11995143D01*
X5530881Y-12071334D01*
X5568976Y-12147524D01*
X5340405Y-11195143D02*
X5340405Y-11118952D01*
X5378500Y-11042762D01*
X5416595Y-11004667D01*
X5492786Y-10966571D01*
X5645167Y-10928476D01*
X5835643Y-10928476D01*
X5988024Y-10966571D01*
X6064214Y-11004667D01*
X6102310Y-11042762D01*
X6140405Y-11118952D01*
X6140405Y-11195143D01*
X6102310Y-11271333D01*
X6064214Y-11309429D01*
X5988024Y-11347524D01*
X5835643Y-11385619D01*
X5645167Y-11385619D01*
X5492786Y-11347524D01*
X5416595Y-11309429D01*
X5378500Y-11271333D01*
X5340405Y-11195143D01*
X6140405Y-8959786D02*
X5759452Y-9226453D01*
X6140405Y-9416929D02*
X5340405Y-9416929D01*
X5340405Y-9112167D01*
X5378500Y-9035976D01*
X5416595Y-8997881D01*
X5492786Y-8959786D01*
X5607071Y-8959786D01*
X5683262Y-8997881D01*
X5721357Y-9035976D01*
X5759452Y-9112167D01*
X5759452Y-9416929D01*
X6140405Y-8197881D02*
X6140405Y-8655024D01*
X6140405Y-8426453D02*
X5340405Y-8426453D01*
X5454690Y-8502643D01*
X5530881Y-8578834D01*
X5568976Y-8655024D01*
X6140405Y-7435976D02*
X6140405Y-7893119D01*
X6140405Y-7664548D02*
X5340405Y-7664548D01*
X5454690Y-7740738D01*
X5530881Y-7816929D01*
X5568976Y-7893119D01*
X6648405Y-32899286D02*
X6267452Y-33165953D01*
X6648405Y-33356429D02*
X5848405Y-33356429D01*
X5848405Y-33051667D01*
X5886500Y-32975476D01*
X5924595Y-32937381D01*
X6000786Y-32899286D01*
X6115071Y-32899286D01*
X6191262Y-32937381D01*
X6229357Y-32975476D01*
X6267452Y-33051667D01*
X6267452Y-33356429D01*
X6648405Y-32137381D02*
X6648405Y-32594524D01*
X6648405Y-32365953D02*
X5848405Y-32365953D01*
X5962690Y-32442143D01*
X6038881Y-32518334D01*
X6076976Y-32594524D01*
X5924595Y-31832619D02*
X5886500Y-31794524D01*
X5848405Y-31718333D01*
X5848405Y-31527857D01*
X5886500Y-31451667D01*
X5924595Y-31413571D01*
X6000786Y-31375476D01*
X6076976Y-31375476D01*
X6191262Y-31413571D01*
X6648405Y-31870714D01*
X6648405Y-31375476D01*
X6648405Y-30041786D02*
X6267452Y-30308453D01*
X6648405Y-30498929D02*
X5848405Y-30498929D01*
X5848405Y-30194167D01*
X5886500Y-30117976D01*
X5924595Y-30079881D01*
X6000786Y-30041786D01*
X6115071Y-30041786D01*
X6191262Y-30079881D01*
X6229357Y-30117976D01*
X6267452Y-30194167D01*
X6267452Y-30498929D01*
X6648405Y-29279881D02*
X6648405Y-29737024D01*
X6648405Y-29508453D02*
X5848405Y-29508453D01*
X5962690Y-29584643D01*
X6038881Y-29660834D01*
X6076976Y-29737024D01*
X5848405Y-29013214D02*
X5848405Y-28517976D01*
X6153167Y-28784643D01*
X6153167Y-28670357D01*
X6191262Y-28594167D01*
X6229357Y-28556071D01*
X6305548Y-28517976D01*
X6496024Y-28517976D01*
X6572214Y-28556071D01*
X6610310Y-28594167D01*
X6648405Y-28670357D01*
X6648405Y-28898929D01*
X6610310Y-28975119D01*
X6572214Y-29013214D01*
X6648405Y-26739786D02*
X6267452Y-27006453D01*
X6648405Y-27196929D02*
X5848405Y-27196929D01*
X5848405Y-26892167D01*
X5886500Y-26815976D01*
X5924595Y-26777881D01*
X6000786Y-26739786D01*
X6115071Y-26739786D01*
X6191262Y-26777881D01*
X6229357Y-26815976D01*
X6267452Y-26892167D01*
X6267452Y-27196929D01*
X6648405Y-25977881D02*
X6648405Y-26435024D01*
X6648405Y-26206453D02*
X5848405Y-26206453D01*
X5962690Y-26282643D01*
X6038881Y-26358834D01*
X6076976Y-26435024D01*
X6115071Y-25292167D02*
X6648405Y-25292167D01*
X5810310Y-25482643D02*
X6381738Y-25673119D01*
X6381738Y-25177881D01*
X13531905Y-14135024D02*
X14179524Y-14135024D01*
X14255714Y-14096929D01*
X14293810Y-14058833D01*
X14331905Y-13982643D01*
X14331905Y-13830262D01*
X14293810Y-13754071D01*
X14255714Y-13715976D01*
X14179524Y-13677881D01*
X13531905Y-13677881D01*
X13608095Y-13335024D02*
X13570000Y-13296929D01*
X13531905Y-13220738D01*
X13531905Y-13030262D01*
X13570000Y-12954072D01*
X13608095Y-12915976D01*
X13684286Y-12877881D01*
X13760476Y-12877881D01*
X13874762Y-12915976D01*
X14331905Y-13373119D01*
X14331905Y-12877881D01*
X13531905Y-12166524D02*
X14179524Y-12166524D01*
X14255714Y-12128429D01*
X14293810Y-12090333D01*
X14331905Y-12014143D01*
X14331905Y-11861762D01*
X14293810Y-11785571D01*
X14255714Y-11747476D01*
X14179524Y-11709381D01*
X13531905Y-11709381D01*
X13531905Y-11404619D02*
X13531905Y-10909381D01*
X13836667Y-11176048D01*
X13836667Y-11061762D01*
X13874762Y-10985572D01*
X13912857Y-10947476D01*
X13989048Y-10909381D01*
X14179524Y-10909381D01*
X14255714Y-10947476D01*
X14293810Y-10985572D01*
X14331905Y-11061762D01*
X14331905Y-11290334D01*
X14293810Y-11366524D01*
X14255714Y-11404619D01*
X27628905Y-17983119D02*
X28428905Y-17449786D01*
X27628905Y-17449786D02*
X28428905Y-17983119D01*
X28428905Y-16725976D02*
X28428905Y-17183119D01*
X28428905Y-16954548D02*
X27628905Y-16954548D01*
X27743190Y-17030738D01*
X27819381Y-17106929D01*
X27857476Y-17183119D01*
M02*
