G04 #@! TF.FileFunction,Legend,Bot*
%FSLAX46Y46*%
G04 Gerber Fmt 4.6, Leading zero omitted, Abs format (unit mm)*
G04 Created by KiCad (PCBNEW 4.0.4-stable) date 2016 October 10, Monday 23:42:28*
%MOMM*%
%LPD*%
G01*
G04 APERTURE LIST*
%ADD10C,0.100000*%
%ADD11C,0.200000*%
%ADD12C,0.120000*%
G04 APERTURE END LIST*
D10*
D11*
X29337000Y-33909000D02*
X29718000Y-34290000D01*
X19812000Y-28448000D02*
X22352000Y-28448000D01*
X27813000Y-33909000D02*
X29337000Y-33909000D01*
X22352000Y-28448000D02*
X27813000Y-33909000D01*
X19050000Y-27813000D02*
X19685000Y-28448000D01*
X22352000Y-29591000D02*
X26543000Y-33782000D01*
X18542000Y-29591000D02*
X22352000Y-29591000D01*
X17272000Y-28321000D02*
X18542000Y-29591000D01*
X24765000Y-34163000D02*
X24765000Y-34290000D01*
X23622000Y-33020000D02*
X24765000Y-34163000D01*
X23622000Y-31623000D02*
X23622000Y-33020000D01*
X21082000Y-33147000D02*
X22225000Y-34290000D01*
X21082000Y-30861000D02*
X21082000Y-33147000D01*
X33909000Y-30607000D02*
X34163000Y-30607000D01*
X33147000Y-29845000D02*
X33909000Y-30607000D01*
X32131000Y-28829000D02*
X33147000Y-29845000D01*
X29210000Y-26797000D02*
X29210000Y-27432000D01*
X32004000Y-26797000D02*
X29210000Y-26797000D01*
X32004000Y-30607000D02*
X32004000Y-26797000D01*
X29210000Y-30607000D02*
X32004000Y-30607000D01*
X29210000Y-27305000D02*
X29210000Y-30607000D01*
X33655000Y-32512000D02*
X34163000Y-33020000D01*
X32385000Y-31242000D02*
X33655000Y-32512000D01*
X29337000Y-31242000D02*
X32385000Y-31242000D01*
X26162000Y-28067000D02*
X29337000Y-31242000D01*
X26162000Y-20828000D02*
X26162000Y-28067000D01*
D12*
X30308905Y-27330571D02*
X29508905Y-27330571D01*
X29508905Y-27635333D01*
X29547000Y-27711524D01*
X29585095Y-27749619D01*
X29661286Y-27787714D01*
X29775571Y-27787714D01*
X29851762Y-27749619D01*
X29889857Y-27711524D01*
X29927952Y-27635333D01*
X29927952Y-27330571D01*
X29889857Y-28397238D02*
X29927952Y-28511524D01*
X29966048Y-28549619D01*
X30042238Y-28587714D01*
X30156524Y-28587714D01*
X30232714Y-28549619D01*
X30270810Y-28511524D01*
X30308905Y-28435333D01*
X30308905Y-28130571D01*
X29508905Y-28130571D01*
X29508905Y-28397238D01*
X29547000Y-28473428D01*
X29585095Y-28511524D01*
X29661286Y-28549619D01*
X29737476Y-28549619D01*
X29813667Y-28511524D01*
X29851762Y-28473428D01*
X29889857Y-28397238D01*
X29889857Y-28130571D01*
X30308905Y-29349619D02*
X30308905Y-28892476D01*
X30308905Y-29121047D02*
X29508905Y-29121047D01*
X29623190Y-29044857D01*
X29699381Y-28968666D01*
X29737476Y-28892476D01*
X29508905Y-30073429D02*
X29508905Y-29692476D01*
X29889857Y-29654381D01*
X29851762Y-29692476D01*
X29813667Y-29768667D01*
X29813667Y-29959143D01*
X29851762Y-30035333D01*
X29889857Y-30073429D01*
X29966048Y-30111524D01*
X30156524Y-30111524D01*
X30232714Y-30073429D01*
X30270810Y-30035333D01*
X30308905Y-29959143D01*
X30308905Y-29768667D01*
X30270810Y-29692476D01*
X30232714Y-29654381D01*
X31628905Y-27063905D02*
X30828905Y-27063905D01*
X31400333Y-27330572D01*
X30828905Y-27597239D01*
X31628905Y-27597239D01*
X31628905Y-27978191D02*
X30828905Y-27978191D01*
X31590810Y-28321048D02*
X31628905Y-28435334D01*
X31628905Y-28625810D01*
X31590810Y-28702000D01*
X31552714Y-28740096D01*
X31476524Y-28778191D01*
X31400333Y-28778191D01*
X31324143Y-28740096D01*
X31286048Y-28702000D01*
X31247952Y-28625810D01*
X31209857Y-28473429D01*
X31171762Y-28397238D01*
X31133667Y-28359143D01*
X31057476Y-28321048D01*
X30981286Y-28321048D01*
X30905095Y-28359143D01*
X30867000Y-28397238D01*
X30828905Y-28473429D01*
X30828905Y-28663905D01*
X30867000Y-28778191D01*
X30828905Y-29273429D02*
X30828905Y-29425810D01*
X30867000Y-29502001D01*
X30943190Y-29578191D01*
X31095571Y-29616286D01*
X31362238Y-29616286D01*
X31514619Y-29578191D01*
X31590810Y-29502001D01*
X31628905Y-29425810D01*
X31628905Y-29273429D01*
X31590810Y-29197239D01*
X31514619Y-29121048D01*
X31362238Y-29082953D01*
X31095571Y-29082953D01*
X30943190Y-29121048D01*
X30867000Y-29197239D01*
X30828905Y-29273429D01*
X30905095Y-29921048D02*
X30867000Y-29959143D01*
X30828905Y-30035334D01*
X30828905Y-30225810D01*
X30867000Y-30302000D01*
X30905095Y-30340096D01*
X30981286Y-30378191D01*
X31057476Y-30378191D01*
X31171762Y-30340096D01*
X31628905Y-29882953D01*
X31628905Y-30378191D01*
D11*
X34163000Y-34417000D02*
X34544000Y-34417000D01*
X31750000Y-32004000D02*
X34163000Y-34417000D01*
X31242000Y-32004000D02*
X31750000Y-32004000D01*
X28575000Y-32004000D02*
X31242000Y-32004000D01*
X23622000Y-27051000D02*
X28575000Y-32004000D01*
X23622000Y-20193000D02*
X23622000Y-27051000D01*
X30480000Y-32893000D02*
X32004000Y-34417000D01*
X28194000Y-32893000D02*
X30480000Y-32893000D01*
X22479000Y-27178000D02*
X28194000Y-32893000D01*
X21590000Y-27178000D02*
X22479000Y-27178000D01*
X21082000Y-26670000D02*
X21590000Y-27178000D01*
X21082000Y-20193000D02*
X21082000Y-26670000D01*
D12*
X25761905Y-20764952D02*
X24961905Y-20764952D01*
X24961905Y-21069714D01*
X25000000Y-21145905D01*
X25038095Y-21184000D01*
X25114286Y-21222095D01*
X25228571Y-21222095D01*
X25304762Y-21184000D01*
X25342857Y-21145905D01*
X25380952Y-21069714D01*
X25380952Y-20764952D01*
X25342857Y-21831619D02*
X25380952Y-21945905D01*
X25419048Y-21984000D01*
X25495238Y-22022095D01*
X25609524Y-22022095D01*
X25685714Y-21984000D01*
X25723810Y-21945905D01*
X25761905Y-21869714D01*
X25761905Y-21564952D01*
X24961905Y-21564952D01*
X24961905Y-21831619D01*
X25000000Y-21907809D01*
X25038095Y-21945905D01*
X25114286Y-21984000D01*
X25190476Y-21984000D01*
X25266667Y-21945905D01*
X25304762Y-21907809D01*
X25342857Y-21831619D01*
X25342857Y-21564952D01*
X25761905Y-22784000D02*
X25761905Y-22326857D01*
X25761905Y-22555428D02*
X24961905Y-22555428D01*
X25076190Y-22479238D01*
X25152381Y-22403047D01*
X25190476Y-22326857D01*
X25228571Y-23469714D02*
X25761905Y-23469714D01*
X24923810Y-23279238D02*
X25495238Y-23088762D01*
X25495238Y-23584000D01*
X24923810Y-24460191D02*
X25952381Y-23774476D01*
X25761905Y-24726857D02*
X24961905Y-24726857D01*
X25533333Y-24993524D01*
X24961905Y-25260191D01*
X25761905Y-25260191D01*
X25761905Y-25641143D02*
X24961905Y-25641143D01*
X25723810Y-25984000D02*
X25761905Y-26098286D01*
X25761905Y-26288762D01*
X25723810Y-26364952D01*
X25685714Y-26403048D01*
X25609524Y-26441143D01*
X25533333Y-26441143D01*
X25457143Y-26403048D01*
X25419048Y-26364952D01*
X25380952Y-26288762D01*
X25342857Y-26136381D01*
X25304762Y-26060190D01*
X25266667Y-26022095D01*
X25190476Y-25984000D01*
X25114286Y-25984000D01*
X25038095Y-26022095D01*
X25000000Y-26060190D01*
X24961905Y-26136381D01*
X24961905Y-26326857D01*
X25000000Y-26441143D01*
X24961905Y-26936381D02*
X24961905Y-27088762D01*
X25000000Y-27164953D01*
X25076190Y-27241143D01*
X25228571Y-27279238D01*
X25495238Y-27279238D01*
X25647619Y-27241143D01*
X25723810Y-27164953D01*
X25761905Y-27088762D01*
X25761905Y-26936381D01*
X25723810Y-26860191D01*
X25647619Y-26784000D01*
X25495238Y-26745905D01*
X25228571Y-26745905D01*
X25076190Y-26784000D01*
X25000000Y-26860191D01*
X24961905Y-26936381D01*
X25038095Y-27584000D02*
X25000000Y-27622095D01*
X24961905Y-27698286D01*
X24961905Y-27888762D01*
X25000000Y-27964952D01*
X25038095Y-28003048D01*
X25114286Y-28041143D01*
X25190476Y-28041143D01*
X25304762Y-28003048D01*
X25761905Y-27545905D01*
X25761905Y-28041143D01*
X23221905Y-20142619D02*
X22421905Y-20142619D01*
X22421905Y-20447381D01*
X22460000Y-20523572D01*
X22498095Y-20561667D01*
X22574286Y-20599762D01*
X22688571Y-20599762D01*
X22764762Y-20561667D01*
X22802857Y-20523572D01*
X22840952Y-20447381D01*
X22840952Y-20142619D01*
X22802857Y-21209286D02*
X22840952Y-21323572D01*
X22879048Y-21361667D01*
X22955238Y-21399762D01*
X23069524Y-21399762D01*
X23145714Y-21361667D01*
X23183810Y-21323572D01*
X23221905Y-21247381D01*
X23221905Y-20942619D01*
X22421905Y-20942619D01*
X22421905Y-21209286D01*
X22460000Y-21285476D01*
X22498095Y-21323572D01*
X22574286Y-21361667D01*
X22650476Y-21361667D01*
X22726667Y-21323572D01*
X22764762Y-21285476D01*
X22802857Y-21209286D01*
X22802857Y-20942619D01*
X23221905Y-22161667D02*
X23221905Y-21704524D01*
X23221905Y-21933095D02*
X22421905Y-21933095D01*
X22536190Y-21856905D01*
X22612381Y-21780714D01*
X22650476Y-21704524D01*
X22421905Y-22428334D02*
X22421905Y-22923572D01*
X22726667Y-22656905D01*
X22726667Y-22771191D01*
X22764762Y-22847381D01*
X22802857Y-22885477D01*
X22879048Y-22923572D01*
X23069524Y-22923572D01*
X23145714Y-22885477D01*
X23183810Y-22847381D01*
X23221905Y-22771191D01*
X23221905Y-22542619D01*
X23183810Y-22466429D01*
X23145714Y-22428334D01*
X22383810Y-23837858D02*
X23412381Y-23152143D01*
X23183810Y-24066429D02*
X23221905Y-24180715D01*
X23221905Y-24371191D01*
X23183810Y-24447381D01*
X23145714Y-24485477D01*
X23069524Y-24523572D01*
X22993333Y-24523572D01*
X22917143Y-24485477D01*
X22879048Y-24447381D01*
X22840952Y-24371191D01*
X22802857Y-24218810D01*
X22764762Y-24142619D01*
X22726667Y-24104524D01*
X22650476Y-24066429D01*
X22574286Y-24066429D01*
X22498095Y-24104524D01*
X22460000Y-24142619D01*
X22421905Y-24218810D01*
X22421905Y-24409286D01*
X22460000Y-24523572D01*
X23145714Y-25323572D02*
X23183810Y-25285477D01*
X23221905Y-25171191D01*
X23221905Y-25095001D01*
X23183810Y-24980715D01*
X23107619Y-24904524D01*
X23031429Y-24866429D01*
X22879048Y-24828334D01*
X22764762Y-24828334D01*
X22612381Y-24866429D01*
X22536190Y-24904524D01*
X22460000Y-24980715D01*
X22421905Y-25095001D01*
X22421905Y-25171191D01*
X22460000Y-25285477D01*
X22498095Y-25323572D01*
X23221905Y-25666429D02*
X22421905Y-25666429D01*
X23221905Y-26123572D02*
X22764762Y-25780715D01*
X22421905Y-26123572D02*
X22879048Y-25666429D01*
X22498095Y-26428334D02*
X22460000Y-26466429D01*
X22421905Y-26542620D01*
X22421905Y-26733096D01*
X22460000Y-26809286D01*
X22498095Y-26847382D01*
X22574286Y-26885477D01*
X22650476Y-26885477D01*
X22764762Y-26847382D01*
X23221905Y-26390239D01*
X23221905Y-26885477D01*
X20681905Y-20142619D02*
X19881905Y-20142619D01*
X19881905Y-20447381D01*
X19920000Y-20523572D01*
X19958095Y-20561667D01*
X20034286Y-20599762D01*
X20148571Y-20599762D01*
X20224762Y-20561667D01*
X20262857Y-20523572D01*
X20300952Y-20447381D01*
X20300952Y-20142619D01*
X20262857Y-21209286D02*
X20300952Y-21323572D01*
X20339048Y-21361667D01*
X20415238Y-21399762D01*
X20529524Y-21399762D01*
X20605714Y-21361667D01*
X20643810Y-21323572D01*
X20681905Y-21247381D01*
X20681905Y-20942619D01*
X19881905Y-20942619D01*
X19881905Y-21209286D01*
X19920000Y-21285476D01*
X19958095Y-21323572D01*
X20034286Y-21361667D01*
X20110476Y-21361667D01*
X20186667Y-21323572D01*
X20224762Y-21285476D01*
X20262857Y-21209286D01*
X20262857Y-20942619D01*
X20681905Y-22161667D02*
X20681905Y-21704524D01*
X20681905Y-21933095D02*
X19881905Y-21933095D01*
X19996190Y-21856905D01*
X20072381Y-21780714D01*
X20110476Y-21704524D01*
X19958095Y-22466429D02*
X19920000Y-22504524D01*
X19881905Y-22580715D01*
X19881905Y-22771191D01*
X19920000Y-22847381D01*
X19958095Y-22885477D01*
X20034286Y-22923572D01*
X20110476Y-22923572D01*
X20224762Y-22885477D01*
X20681905Y-22428334D01*
X20681905Y-22923572D01*
X19843810Y-23837858D02*
X20872381Y-23152143D01*
X20681905Y-24104524D02*
X19881905Y-24104524D01*
X20681905Y-24561667D01*
X19881905Y-24561667D01*
X20643810Y-24904524D02*
X20681905Y-25018810D01*
X20681905Y-25209286D01*
X20643810Y-25285476D01*
X20605714Y-25323572D01*
X20529524Y-25361667D01*
X20453333Y-25361667D01*
X20377143Y-25323572D01*
X20339048Y-25285476D01*
X20300952Y-25209286D01*
X20262857Y-25056905D01*
X20224762Y-24980714D01*
X20186667Y-24942619D01*
X20110476Y-24904524D01*
X20034286Y-24904524D01*
X19958095Y-24942619D01*
X19920000Y-24980714D01*
X19881905Y-25056905D01*
X19881905Y-25247381D01*
X19920000Y-25361667D01*
X20643810Y-25666429D02*
X20681905Y-25780715D01*
X20681905Y-25971191D01*
X20643810Y-26047381D01*
X20605714Y-26085477D01*
X20529524Y-26123572D01*
X20453333Y-26123572D01*
X20377143Y-26085477D01*
X20339048Y-26047381D01*
X20300952Y-25971191D01*
X20262857Y-25818810D01*
X20224762Y-25742619D01*
X20186667Y-25704524D01*
X20110476Y-25666429D01*
X20034286Y-25666429D01*
X19958095Y-25704524D01*
X19920000Y-25742619D01*
X19881905Y-25818810D01*
X19881905Y-26009286D01*
X19920000Y-26123572D01*
X19958095Y-26428334D02*
X19920000Y-26466429D01*
X19881905Y-26542620D01*
X19881905Y-26733096D01*
X19920000Y-26809286D01*
X19958095Y-26847382D01*
X20034286Y-26885477D01*
X20110476Y-26885477D01*
X20224762Y-26847382D01*
X20681905Y-26390239D01*
X20681905Y-26885477D01*
D11*
X27940000Y-33909000D02*
X28829000Y-33909000D01*
X18542000Y-27305000D02*
X19050000Y-27813000D01*
X18542000Y-23876000D02*
X18542000Y-27305000D01*
X18542000Y-18288000D02*
X18542000Y-24003000D01*
X27051000Y-33782000D02*
X26543000Y-33782000D01*
X27051000Y-33782000D02*
X27559000Y-34290000D01*
X17018000Y-28067000D02*
X17399000Y-28448000D01*
X16002000Y-27051000D02*
X17018000Y-28067000D01*
X16002000Y-18415000D02*
X16002000Y-27051000D01*
X13462000Y-27940000D02*
X19812000Y-34290000D01*
X13462000Y-18923000D02*
X13462000Y-27940000D01*
X10922000Y-27940000D02*
X17272000Y-34290000D01*
X10922000Y-18923000D02*
X10922000Y-27940000D01*
X8382000Y-28194000D02*
X14478000Y-34290000D01*
X8382000Y-27559000D02*
X8382000Y-28194000D01*
X8382000Y-25781000D02*
X8382000Y-27559000D01*
X11557000Y-34290000D02*
X11811000Y-34290000D01*
X8636000Y-31369000D02*
X11557000Y-34290000D01*
X7874000Y-30607000D02*
X8636000Y-31369000D01*
X7874000Y-29337000D02*
X7874000Y-30607000D01*
X6731000Y-28194000D02*
X7874000Y-29337000D01*
X6731000Y-26670000D02*
X6731000Y-28194000D01*
X5842000Y-25781000D02*
X6731000Y-26670000D01*
X5842000Y-24003000D02*
X5842000Y-25781000D01*
X7620000Y-32766000D02*
X9017000Y-34163000D01*
X7620000Y-31750000D02*
X7620000Y-32766000D01*
X6858000Y-30988000D02*
X7620000Y-31750000D01*
X6858000Y-29464000D02*
X6858000Y-30988000D01*
X5842000Y-28448000D02*
X6858000Y-29464000D01*
X5842000Y-26416000D02*
X5842000Y-28448000D01*
X6731000Y-33655000D02*
X7239000Y-34163000D01*
X6731000Y-32385000D02*
X6731000Y-33655000D01*
X5842000Y-31496000D02*
X6731000Y-32385000D01*
X5842000Y-31115000D02*
X5842000Y-31496000D01*
X5842000Y-29210000D02*
X5842000Y-31115000D01*
D12*
X18141905Y-18237809D02*
X17341905Y-18237809D01*
X17341905Y-18542571D01*
X17380000Y-18618762D01*
X17418095Y-18656857D01*
X17494286Y-18694952D01*
X17608571Y-18694952D01*
X17684762Y-18656857D01*
X17722857Y-18618762D01*
X17760952Y-18542571D01*
X17760952Y-18237809D01*
X17722857Y-19304476D02*
X17760952Y-19418762D01*
X17799048Y-19456857D01*
X17875238Y-19494952D01*
X17989524Y-19494952D01*
X18065714Y-19456857D01*
X18103810Y-19418762D01*
X18141905Y-19342571D01*
X18141905Y-19037809D01*
X17341905Y-19037809D01*
X17341905Y-19304476D01*
X17380000Y-19380666D01*
X17418095Y-19418762D01*
X17494286Y-19456857D01*
X17570476Y-19456857D01*
X17646667Y-19418762D01*
X17684762Y-19380666D01*
X17722857Y-19304476D01*
X17722857Y-19037809D01*
X18141905Y-20256857D02*
X18141905Y-19799714D01*
X18141905Y-20028285D02*
X17341905Y-20028285D01*
X17456190Y-19952095D01*
X17532381Y-19875904D01*
X17570476Y-19799714D01*
X18141905Y-21018762D02*
X18141905Y-20561619D01*
X18141905Y-20790190D02*
X17341905Y-20790190D01*
X17456190Y-20714000D01*
X17532381Y-20637809D01*
X17570476Y-20561619D01*
X17303810Y-21933048D02*
X18332381Y-21247333D01*
X18141905Y-22656857D02*
X17760952Y-22390190D01*
X18141905Y-22199714D02*
X17341905Y-22199714D01*
X17341905Y-22504476D01*
X17380000Y-22580667D01*
X17418095Y-22618762D01*
X17494286Y-22656857D01*
X17608571Y-22656857D01*
X17684762Y-22618762D01*
X17722857Y-22580667D01*
X17760952Y-22504476D01*
X17760952Y-22199714D01*
X17341905Y-22923524D02*
X18141905Y-23456857D01*
X17341905Y-23456857D02*
X18141905Y-22923524D01*
X17341905Y-23685429D02*
X17341905Y-24180667D01*
X17646667Y-23914000D01*
X17646667Y-24028286D01*
X17684762Y-24104476D01*
X17722857Y-24142572D01*
X17799048Y-24180667D01*
X17989524Y-24180667D01*
X18065714Y-24142572D01*
X18103810Y-24104476D01*
X18141905Y-24028286D01*
X18141905Y-23799714D01*
X18103810Y-23723524D01*
X18065714Y-23685429D01*
X17303810Y-25094953D02*
X18332381Y-24409238D01*
X18103810Y-25323524D02*
X18141905Y-25437810D01*
X18141905Y-25628286D01*
X18103810Y-25704476D01*
X18065714Y-25742572D01*
X17989524Y-25780667D01*
X17913333Y-25780667D01*
X17837143Y-25742572D01*
X17799048Y-25704476D01*
X17760952Y-25628286D01*
X17722857Y-25475905D01*
X17684762Y-25399714D01*
X17646667Y-25361619D01*
X17570476Y-25323524D01*
X17494286Y-25323524D01*
X17418095Y-25361619D01*
X17380000Y-25399714D01*
X17341905Y-25475905D01*
X17341905Y-25666381D01*
X17380000Y-25780667D01*
X18141905Y-26123524D02*
X17341905Y-26123524D01*
X17341905Y-26314000D01*
X17380000Y-26428286D01*
X17456190Y-26504477D01*
X17532381Y-26542572D01*
X17684762Y-26580667D01*
X17799048Y-26580667D01*
X17951429Y-26542572D01*
X18027619Y-26504477D01*
X18103810Y-26428286D01*
X18141905Y-26314000D01*
X18141905Y-26123524D01*
X17913333Y-26885429D02*
X17913333Y-27266381D01*
X18141905Y-26809238D02*
X17341905Y-27075905D01*
X18141905Y-27342572D01*
X17418095Y-27571143D02*
X17380000Y-27609238D01*
X17341905Y-27685429D01*
X17341905Y-27875905D01*
X17380000Y-27952095D01*
X17418095Y-27990191D01*
X17494286Y-28028286D01*
X17570476Y-28028286D01*
X17684762Y-27990191D01*
X18141905Y-27533048D01*
X18141905Y-28028286D01*
X15601905Y-18479095D02*
X14801905Y-18479095D01*
X14801905Y-18783857D01*
X14840000Y-18860048D01*
X14878095Y-18898143D01*
X14954286Y-18936238D01*
X15068571Y-18936238D01*
X15144762Y-18898143D01*
X15182857Y-18860048D01*
X15220952Y-18783857D01*
X15220952Y-18479095D01*
X15182857Y-19545762D02*
X15220952Y-19660048D01*
X15259048Y-19698143D01*
X15335238Y-19736238D01*
X15449524Y-19736238D01*
X15525714Y-19698143D01*
X15563810Y-19660048D01*
X15601905Y-19583857D01*
X15601905Y-19279095D01*
X14801905Y-19279095D01*
X14801905Y-19545762D01*
X14840000Y-19621952D01*
X14878095Y-19660048D01*
X14954286Y-19698143D01*
X15030476Y-19698143D01*
X15106667Y-19660048D01*
X15144762Y-19621952D01*
X15182857Y-19545762D01*
X15182857Y-19279095D01*
X15601905Y-20498143D02*
X15601905Y-20041000D01*
X15601905Y-20269571D02*
X14801905Y-20269571D01*
X14916190Y-20193381D01*
X14992381Y-20117190D01*
X15030476Y-20041000D01*
X14801905Y-20993381D02*
X14801905Y-21069572D01*
X14840000Y-21145762D01*
X14878095Y-21183857D01*
X14954286Y-21221953D01*
X15106667Y-21260048D01*
X15297143Y-21260048D01*
X15449524Y-21221953D01*
X15525714Y-21183857D01*
X15563810Y-21145762D01*
X15601905Y-21069572D01*
X15601905Y-20993381D01*
X15563810Y-20917191D01*
X15525714Y-20879095D01*
X15449524Y-20841000D01*
X15297143Y-20802905D01*
X15106667Y-20802905D01*
X14954286Y-20841000D01*
X14878095Y-20879095D01*
X14840000Y-20917191D01*
X14801905Y-20993381D01*
X14763810Y-22174334D02*
X15792381Y-21488619D01*
X14801905Y-22326714D02*
X14801905Y-22783857D01*
X15601905Y-22555286D02*
X14801905Y-22555286D01*
X14801905Y-22974334D02*
X15601905Y-23507667D01*
X14801905Y-23507667D02*
X15601905Y-22974334D01*
X14801905Y-23736239D02*
X14801905Y-24231477D01*
X15106667Y-23964810D01*
X15106667Y-24079096D01*
X15144762Y-24155286D01*
X15182857Y-24193382D01*
X15259048Y-24231477D01*
X15449524Y-24231477D01*
X15525714Y-24193382D01*
X15563810Y-24155286D01*
X15601905Y-24079096D01*
X15601905Y-23850524D01*
X15563810Y-23774334D01*
X15525714Y-23736239D01*
X14763810Y-25145763D02*
X15792381Y-24460048D01*
X15563810Y-25374334D02*
X15601905Y-25488620D01*
X15601905Y-25679096D01*
X15563810Y-25755286D01*
X15525714Y-25793382D01*
X15449524Y-25831477D01*
X15373333Y-25831477D01*
X15297143Y-25793382D01*
X15259048Y-25755286D01*
X15220952Y-25679096D01*
X15182857Y-25526715D01*
X15144762Y-25450524D01*
X15106667Y-25412429D01*
X15030476Y-25374334D01*
X14954286Y-25374334D01*
X14878095Y-25412429D01*
X14840000Y-25450524D01*
X14801905Y-25526715D01*
X14801905Y-25717191D01*
X14840000Y-25831477D01*
X15525714Y-26631477D02*
X15563810Y-26593382D01*
X15601905Y-26479096D01*
X15601905Y-26402906D01*
X15563810Y-26288620D01*
X15487619Y-26212429D01*
X15411429Y-26174334D01*
X15259048Y-26136239D01*
X15144762Y-26136239D01*
X14992381Y-26174334D01*
X14916190Y-26212429D01*
X14840000Y-26288620D01*
X14801905Y-26402906D01*
X14801905Y-26479096D01*
X14840000Y-26593382D01*
X14878095Y-26631477D01*
X15601905Y-27355287D02*
X15601905Y-26974334D01*
X14801905Y-26974334D01*
X14878095Y-27583858D02*
X14840000Y-27621953D01*
X14801905Y-27698144D01*
X14801905Y-27888620D01*
X14840000Y-27964810D01*
X14878095Y-28002906D01*
X14954286Y-28041001D01*
X15030476Y-28041001D01*
X15144762Y-28002906D01*
X15601905Y-27545763D01*
X15601905Y-28041001D01*
X23221905Y-31013524D02*
X22421905Y-31013524D01*
X22421905Y-31318286D01*
X22460000Y-31394477D01*
X22498095Y-31432572D01*
X22574286Y-31470667D01*
X22688571Y-31470667D01*
X22764762Y-31432572D01*
X22802857Y-31394477D01*
X22840952Y-31318286D01*
X22840952Y-31013524D01*
X22802857Y-32080191D02*
X22840952Y-32194477D01*
X22879048Y-32232572D01*
X22955238Y-32270667D01*
X23069524Y-32270667D01*
X23145714Y-32232572D01*
X23183810Y-32194477D01*
X23221905Y-32118286D01*
X23221905Y-31813524D01*
X22421905Y-31813524D01*
X22421905Y-32080191D01*
X22460000Y-32156381D01*
X22498095Y-32194477D01*
X22574286Y-32232572D01*
X22650476Y-32232572D01*
X22726667Y-32194477D01*
X22764762Y-32156381D01*
X22802857Y-32080191D01*
X22802857Y-31813524D01*
X23221905Y-32651619D02*
X23221905Y-32804000D01*
X23183810Y-32880191D01*
X23145714Y-32918286D01*
X23031429Y-32994477D01*
X22879048Y-33032572D01*
X22574286Y-33032572D01*
X22498095Y-32994477D01*
X22460000Y-32956381D01*
X22421905Y-32880191D01*
X22421905Y-32727810D01*
X22460000Y-32651619D01*
X22498095Y-32613524D01*
X22574286Y-32575429D01*
X22764762Y-32575429D01*
X22840952Y-32613524D01*
X22879048Y-32651619D01*
X22917143Y-32727810D01*
X22917143Y-32880191D01*
X22879048Y-32956381D01*
X22840952Y-32994477D01*
X22764762Y-33032572D01*
X20681905Y-31013524D02*
X19881905Y-31013524D01*
X19881905Y-31318286D01*
X19920000Y-31394477D01*
X19958095Y-31432572D01*
X20034286Y-31470667D01*
X20148571Y-31470667D01*
X20224762Y-31432572D01*
X20262857Y-31394477D01*
X20300952Y-31318286D01*
X20300952Y-31013524D01*
X20262857Y-32080191D02*
X20300952Y-32194477D01*
X20339048Y-32232572D01*
X20415238Y-32270667D01*
X20529524Y-32270667D01*
X20605714Y-32232572D01*
X20643810Y-32194477D01*
X20681905Y-32118286D01*
X20681905Y-31813524D01*
X19881905Y-31813524D01*
X19881905Y-32080191D01*
X19920000Y-32156381D01*
X19958095Y-32194477D01*
X20034286Y-32232572D01*
X20110476Y-32232572D01*
X20186667Y-32194477D01*
X20224762Y-32156381D01*
X20262857Y-32080191D01*
X20262857Y-31813524D01*
X20224762Y-32727810D02*
X20186667Y-32651619D01*
X20148571Y-32613524D01*
X20072381Y-32575429D01*
X20034286Y-32575429D01*
X19958095Y-32613524D01*
X19920000Y-32651619D01*
X19881905Y-32727810D01*
X19881905Y-32880191D01*
X19920000Y-32956381D01*
X19958095Y-32994477D01*
X20034286Y-33032572D01*
X20072381Y-33032572D01*
X20148571Y-32994477D01*
X20186667Y-32956381D01*
X20224762Y-32880191D01*
X20224762Y-32727810D01*
X20262857Y-32651619D01*
X20300952Y-32613524D01*
X20377143Y-32575429D01*
X20529524Y-32575429D01*
X20605714Y-32613524D01*
X20643810Y-32651619D01*
X20681905Y-32727810D01*
X20681905Y-32880191D01*
X20643810Y-32956381D01*
X20605714Y-32994477D01*
X20529524Y-33032572D01*
X20377143Y-33032572D01*
X20300952Y-32994477D01*
X20262857Y-32956381D01*
X20224762Y-32880191D01*
X13061905Y-18739428D02*
X12261905Y-18739428D01*
X12261905Y-19044190D01*
X12300000Y-19120381D01*
X12338095Y-19158476D01*
X12414286Y-19196571D01*
X12528571Y-19196571D01*
X12604762Y-19158476D01*
X12642857Y-19120381D01*
X12680952Y-19044190D01*
X12680952Y-18739428D01*
X12642857Y-19806095D02*
X12680952Y-19920381D01*
X12719048Y-19958476D01*
X12795238Y-19996571D01*
X12909524Y-19996571D01*
X12985714Y-19958476D01*
X13023810Y-19920381D01*
X13061905Y-19844190D01*
X13061905Y-19539428D01*
X12261905Y-19539428D01*
X12261905Y-19806095D01*
X12300000Y-19882285D01*
X12338095Y-19920381D01*
X12414286Y-19958476D01*
X12490476Y-19958476D01*
X12566667Y-19920381D01*
X12604762Y-19882285D01*
X12642857Y-19806095D01*
X12642857Y-19539428D01*
X12261905Y-20263238D02*
X12261905Y-20796571D01*
X13061905Y-20453714D01*
X12223810Y-21672762D02*
X13252381Y-20987047D01*
X13061905Y-21939428D02*
X12261905Y-21939428D01*
X12261905Y-22244190D01*
X12300000Y-22320381D01*
X12338095Y-22358476D01*
X12414286Y-22396571D01*
X12528571Y-22396571D01*
X12604762Y-22358476D01*
X12642857Y-22320381D01*
X12680952Y-22244190D01*
X12680952Y-21939428D01*
X12261905Y-22663238D02*
X13061905Y-22853714D01*
X12490476Y-23006095D01*
X13061905Y-23158476D01*
X12261905Y-23348952D01*
X13061905Y-23653714D02*
X12261905Y-23653714D01*
X12833333Y-23920381D01*
X12261905Y-24187048D01*
X13061905Y-24187048D01*
X12223810Y-25139429D02*
X13252381Y-24453714D01*
X13023810Y-25368000D02*
X13061905Y-25482286D01*
X13061905Y-25672762D01*
X13023810Y-25748952D01*
X12985714Y-25787048D01*
X12909524Y-25825143D01*
X12833333Y-25825143D01*
X12757143Y-25787048D01*
X12719048Y-25748952D01*
X12680952Y-25672762D01*
X12642857Y-25520381D01*
X12604762Y-25444190D01*
X12566667Y-25406095D01*
X12490476Y-25368000D01*
X12414286Y-25368000D01*
X12338095Y-25406095D01*
X12300000Y-25444190D01*
X12261905Y-25520381D01*
X12261905Y-25710857D01*
X12300000Y-25825143D01*
X12985714Y-26625143D02*
X13023810Y-26587048D01*
X13061905Y-26472762D01*
X13061905Y-26396572D01*
X13023810Y-26282286D01*
X12947619Y-26206095D01*
X12871429Y-26168000D01*
X12719048Y-26129905D01*
X12604762Y-26129905D01*
X12452381Y-26168000D01*
X12376190Y-26206095D01*
X12300000Y-26282286D01*
X12261905Y-26396572D01*
X12261905Y-26472762D01*
X12300000Y-26587048D01*
X12338095Y-26625143D01*
X13061905Y-27348953D02*
X13061905Y-26968000D01*
X12261905Y-26968000D01*
X13061905Y-28034667D02*
X13061905Y-27577524D01*
X13061905Y-27806095D02*
X12261905Y-27806095D01*
X12376190Y-27729905D01*
X12452381Y-27653714D01*
X12490476Y-27577524D01*
X10521905Y-18720381D02*
X9721905Y-18720381D01*
X9721905Y-19025143D01*
X9760000Y-19101334D01*
X9798095Y-19139429D01*
X9874286Y-19177524D01*
X9988571Y-19177524D01*
X10064762Y-19139429D01*
X10102857Y-19101334D01*
X10140952Y-19025143D01*
X10140952Y-18720381D01*
X10102857Y-19787048D02*
X10140952Y-19901334D01*
X10179048Y-19939429D01*
X10255238Y-19977524D01*
X10369524Y-19977524D01*
X10445714Y-19939429D01*
X10483810Y-19901334D01*
X10521905Y-19825143D01*
X10521905Y-19520381D01*
X9721905Y-19520381D01*
X9721905Y-19787048D01*
X9760000Y-19863238D01*
X9798095Y-19901334D01*
X9874286Y-19939429D01*
X9950476Y-19939429D01*
X10026667Y-19901334D01*
X10064762Y-19863238D01*
X10102857Y-19787048D01*
X10102857Y-19520381D01*
X9721905Y-20663238D02*
X9721905Y-20510857D01*
X9760000Y-20434667D01*
X9798095Y-20396572D01*
X9912381Y-20320381D01*
X10064762Y-20282286D01*
X10369524Y-20282286D01*
X10445714Y-20320381D01*
X10483810Y-20358476D01*
X10521905Y-20434667D01*
X10521905Y-20587048D01*
X10483810Y-20663238D01*
X10445714Y-20701334D01*
X10369524Y-20739429D01*
X10179048Y-20739429D01*
X10102857Y-20701334D01*
X10064762Y-20663238D01*
X10026667Y-20587048D01*
X10026667Y-20434667D01*
X10064762Y-20358476D01*
X10102857Y-20320381D01*
X10179048Y-20282286D01*
X9683810Y-21653715D02*
X10712381Y-20968000D01*
X10521905Y-21920381D02*
X9721905Y-21920381D01*
X9721905Y-22225143D01*
X9760000Y-22301334D01*
X9798095Y-22339429D01*
X9874286Y-22377524D01*
X9988571Y-22377524D01*
X10064762Y-22339429D01*
X10102857Y-22301334D01*
X10140952Y-22225143D01*
X10140952Y-21920381D01*
X9721905Y-22644191D02*
X10521905Y-22834667D01*
X9950476Y-22987048D01*
X10521905Y-23139429D01*
X9721905Y-23329905D01*
X10521905Y-23634667D02*
X9721905Y-23634667D01*
X10293333Y-23901334D01*
X9721905Y-24168001D01*
X10521905Y-24168001D01*
X9683810Y-25120382D02*
X10712381Y-24434667D01*
X10483810Y-25348953D02*
X10521905Y-25463239D01*
X10521905Y-25653715D01*
X10483810Y-25729905D01*
X10445714Y-25768001D01*
X10369524Y-25806096D01*
X10293333Y-25806096D01*
X10217143Y-25768001D01*
X10179048Y-25729905D01*
X10140952Y-25653715D01*
X10102857Y-25501334D01*
X10064762Y-25425143D01*
X10026667Y-25387048D01*
X9950476Y-25348953D01*
X9874286Y-25348953D01*
X9798095Y-25387048D01*
X9760000Y-25425143D01*
X9721905Y-25501334D01*
X9721905Y-25691810D01*
X9760000Y-25806096D01*
X10521905Y-26148953D02*
X9721905Y-26148953D01*
X9721905Y-26339429D01*
X9760000Y-26453715D01*
X9836190Y-26529906D01*
X9912381Y-26568001D01*
X10064762Y-26606096D01*
X10179048Y-26606096D01*
X10331429Y-26568001D01*
X10407619Y-26529906D01*
X10483810Y-26453715D01*
X10521905Y-26339429D01*
X10521905Y-26148953D01*
X10293333Y-26910858D02*
X10293333Y-27291810D01*
X10521905Y-26834667D02*
X9721905Y-27101334D01*
X10521905Y-27368001D01*
X10521905Y-28053715D02*
X10521905Y-27596572D01*
X10521905Y-27825143D02*
X9721905Y-27825143D01*
X9836190Y-27748953D01*
X9912381Y-27672762D01*
X9950476Y-27596572D01*
X7981905Y-26060524D02*
X7181905Y-26060524D01*
X7181905Y-26365286D01*
X7220000Y-26441477D01*
X7258095Y-26479572D01*
X7334286Y-26517667D01*
X7448571Y-26517667D01*
X7524762Y-26479572D01*
X7562857Y-26441477D01*
X7600952Y-26365286D01*
X7600952Y-26060524D01*
X7562857Y-27127191D02*
X7600952Y-27241477D01*
X7639048Y-27279572D01*
X7715238Y-27317667D01*
X7829524Y-27317667D01*
X7905714Y-27279572D01*
X7943810Y-27241477D01*
X7981905Y-27165286D01*
X7981905Y-26860524D01*
X7181905Y-26860524D01*
X7181905Y-27127191D01*
X7220000Y-27203381D01*
X7258095Y-27241477D01*
X7334286Y-27279572D01*
X7410476Y-27279572D01*
X7486667Y-27241477D01*
X7524762Y-27203381D01*
X7562857Y-27127191D01*
X7562857Y-26860524D01*
X7181905Y-28041477D02*
X7181905Y-27660524D01*
X7562857Y-27622429D01*
X7524762Y-27660524D01*
X7486667Y-27736715D01*
X7486667Y-27927191D01*
X7524762Y-28003381D01*
X7562857Y-28041477D01*
X7639048Y-28079572D01*
X7829524Y-28079572D01*
X7905714Y-28041477D01*
X7943810Y-28003381D01*
X7981905Y-27927191D01*
X7981905Y-27736715D01*
X7943810Y-27660524D01*
X7905714Y-27622429D01*
X5441905Y-23774524D02*
X4641905Y-23774524D01*
X4641905Y-24079286D01*
X4680000Y-24155477D01*
X4718095Y-24193572D01*
X4794286Y-24231667D01*
X4908571Y-24231667D01*
X4984762Y-24193572D01*
X5022857Y-24155477D01*
X5060952Y-24079286D01*
X5060952Y-23774524D01*
X5022857Y-24841191D02*
X5060952Y-24955477D01*
X5099048Y-24993572D01*
X5175238Y-25031667D01*
X5289524Y-25031667D01*
X5365714Y-24993572D01*
X5403810Y-24955477D01*
X5441905Y-24879286D01*
X5441905Y-24574524D01*
X4641905Y-24574524D01*
X4641905Y-24841191D01*
X4680000Y-24917381D01*
X4718095Y-24955477D01*
X4794286Y-24993572D01*
X4870476Y-24993572D01*
X4946667Y-24955477D01*
X4984762Y-24917381D01*
X5022857Y-24841191D01*
X5022857Y-24574524D01*
X4908571Y-25717381D02*
X5441905Y-25717381D01*
X4603810Y-25526905D02*
X5175238Y-25336429D01*
X5175238Y-25831667D01*
X5441905Y-26441524D02*
X4641905Y-26441524D01*
X4641905Y-26746286D01*
X4680000Y-26822477D01*
X4718095Y-26860572D01*
X4794286Y-26898667D01*
X4908571Y-26898667D01*
X4984762Y-26860572D01*
X5022857Y-26822477D01*
X5060952Y-26746286D01*
X5060952Y-26441524D01*
X5022857Y-27508191D02*
X5060952Y-27622477D01*
X5099048Y-27660572D01*
X5175238Y-27698667D01*
X5289524Y-27698667D01*
X5365714Y-27660572D01*
X5403810Y-27622477D01*
X5441905Y-27546286D01*
X5441905Y-27241524D01*
X4641905Y-27241524D01*
X4641905Y-27508191D01*
X4680000Y-27584381D01*
X4718095Y-27622477D01*
X4794286Y-27660572D01*
X4870476Y-27660572D01*
X4946667Y-27622477D01*
X4984762Y-27584381D01*
X5022857Y-27508191D01*
X5022857Y-27241524D01*
X4641905Y-27965334D02*
X4641905Y-28460572D01*
X4946667Y-28193905D01*
X4946667Y-28308191D01*
X4984762Y-28384381D01*
X5022857Y-28422477D01*
X5099048Y-28460572D01*
X5289524Y-28460572D01*
X5365714Y-28422477D01*
X5403810Y-28384381D01*
X5441905Y-28308191D01*
X5441905Y-28079619D01*
X5403810Y-28003429D01*
X5365714Y-27965334D01*
X5441905Y-29235524D02*
X4641905Y-29235524D01*
X4641905Y-29540286D01*
X4680000Y-29616477D01*
X4718095Y-29654572D01*
X4794286Y-29692667D01*
X4908571Y-29692667D01*
X4984762Y-29654572D01*
X5022857Y-29616477D01*
X5060952Y-29540286D01*
X5060952Y-29235524D01*
X5022857Y-30302191D02*
X5060952Y-30416477D01*
X5099048Y-30454572D01*
X5175238Y-30492667D01*
X5289524Y-30492667D01*
X5365714Y-30454572D01*
X5403810Y-30416477D01*
X5441905Y-30340286D01*
X5441905Y-30035524D01*
X4641905Y-30035524D01*
X4641905Y-30302191D01*
X4680000Y-30378381D01*
X4718095Y-30416477D01*
X4794286Y-30454572D01*
X4870476Y-30454572D01*
X4946667Y-30416477D01*
X4984762Y-30378381D01*
X5022857Y-30302191D01*
X5022857Y-30035524D01*
X4718095Y-30797429D02*
X4680000Y-30835524D01*
X4641905Y-30911715D01*
X4641905Y-31102191D01*
X4680000Y-31178381D01*
X4718095Y-31216477D01*
X4794286Y-31254572D01*
X4870476Y-31254572D01*
X4984762Y-31216477D01*
X5441905Y-30759334D01*
X5441905Y-31254572D01*
X5441905Y-31902524D02*
X4641905Y-31902524D01*
X4641905Y-32207286D01*
X4680000Y-32283477D01*
X4718095Y-32321572D01*
X4794286Y-32359667D01*
X4908571Y-32359667D01*
X4984762Y-32321572D01*
X5022857Y-32283477D01*
X5060952Y-32207286D01*
X5060952Y-31902524D01*
X5022857Y-32969191D02*
X5060952Y-33083477D01*
X5099048Y-33121572D01*
X5175238Y-33159667D01*
X5289524Y-33159667D01*
X5365714Y-33121572D01*
X5403810Y-33083477D01*
X5441905Y-33007286D01*
X5441905Y-32702524D01*
X4641905Y-32702524D01*
X4641905Y-32969191D01*
X4680000Y-33045381D01*
X4718095Y-33083477D01*
X4794286Y-33121572D01*
X4870476Y-33121572D01*
X4946667Y-33083477D01*
X4984762Y-33045381D01*
X5022857Y-32969191D01*
X5022857Y-32702524D01*
X5441905Y-33921572D02*
X5441905Y-33464429D01*
X5441905Y-33693000D02*
X4641905Y-33693000D01*
X4756190Y-33616810D01*
X4832381Y-33540619D01*
X4870476Y-33464429D01*
X2901905Y-25432286D02*
X2101905Y-25432286D01*
X2101905Y-25737048D01*
X2140000Y-25813239D01*
X2178095Y-25851334D01*
X2254286Y-25889429D01*
X2368571Y-25889429D01*
X2444762Y-25851334D01*
X2482857Y-25813239D01*
X2520952Y-25737048D01*
X2520952Y-25432286D01*
X2482857Y-26498953D02*
X2520952Y-26613239D01*
X2559048Y-26651334D01*
X2635238Y-26689429D01*
X2749524Y-26689429D01*
X2825714Y-26651334D01*
X2863810Y-26613239D01*
X2901905Y-26537048D01*
X2901905Y-26232286D01*
X2101905Y-26232286D01*
X2101905Y-26498953D01*
X2140000Y-26575143D01*
X2178095Y-26613239D01*
X2254286Y-26651334D01*
X2330476Y-26651334D01*
X2406667Y-26613239D01*
X2444762Y-26575143D01*
X2482857Y-26498953D01*
X2482857Y-26232286D01*
X2101905Y-27184667D02*
X2101905Y-27260858D01*
X2140000Y-27337048D01*
X2178095Y-27375143D01*
X2254286Y-27413239D01*
X2406667Y-27451334D01*
X2597143Y-27451334D01*
X2749524Y-27413239D01*
X2825714Y-27375143D01*
X2863810Y-27337048D01*
X2901905Y-27260858D01*
X2901905Y-27184667D01*
X2863810Y-27108477D01*
X2825714Y-27070381D01*
X2749524Y-27032286D01*
X2597143Y-26994191D01*
X2406667Y-26994191D01*
X2254286Y-27032286D01*
X2178095Y-27070381D01*
X2140000Y-27108477D01*
X2101905Y-27184667D01*
X2063810Y-28365620D02*
X3092381Y-27679905D01*
X2901905Y-28632286D02*
X2101905Y-28632286D01*
X2101905Y-28937048D01*
X2140000Y-29013239D01*
X2178095Y-29051334D01*
X2254286Y-29089429D01*
X2368571Y-29089429D01*
X2444762Y-29051334D01*
X2482857Y-29013239D01*
X2520952Y-28937048D01*
X2520952Y-28632286D01*
X2101905Y-29356096D02*
X2901905Y-29546572D01*
X2330476Y-29698953D01*
X2901905Y-29851334D01*
X2101905Y-30041810D01*
X2901905Y-30346572D02*
X2101905Y-30346572D01*
X2673333Y-30613239D01*
X2101905Y-30879906D01*
X2901905Y-30879906D01*
X2063810Y-31832287D02*
X3092381Y-31146572D01*
X2673333Y-32060858D02*
X2673333Y-32441810D01*
X2901905Y-31984667D02*
X2101905Y-32251334D01*
X2901905Y-32518001D01*
X2901905Y-32784667D02*
X2101905Y-32784667D01*
X2101905Y-32975143D01*
X2140000Y-33089429D01*
X2216190Y-33165620D01*
X2292381Y-33203715D01*
X2444762Y-33241810D01*
X2559048Y-33241810D01*
X2711429Y-33203715D01*
X2787619Y-33165620D01*
X2863810Y-33089429D01*
X2901905Y-32975143D01*
X2901905Y-32784667D01*
X2825714Y-34041810D02*
X2863810Y-34003715D01*
X2901905Y-33889429D01*
X2901905Y-33813239D01*
X2863810Y-33698953D01*
X2787619Y-33622762D01*
X2711429Y-33584667D01*
X2559048Y-33546572D01*
X2444762Y-33546572D01*
X2292381Y-33584667D01*
X2216190Y-33622762D01*
X2140000Y-33698953D01*
X2101905Y-33813239D01*
X2101905Y-33889429D01*
X2140000Y-34003715D01*
X2178095Y-34041810D01*
D11*
X33655000Y-27940000D02*
X34163000Y-27940000D01*
X31369000Y-25654000D02*
X33655000Y-27940000D01*
X31369000Y-24638000D02*
X31369000Y-25654000D01*
X30734000Y-24003000D02*
X31369000Y-24638000D01*
X30099000Y-24003000D02*
X30734000Y-24003000D01*
X29337000Y-23241000D02*
X30099000Y-24003000D01*
X29337000Y-21590000D02*
X29337000Y-23241000D01*
X33528000Y-24130000D02*
X34163000Y-24765000D01*
X31750000Y-24130000D02*
X33528000Y-24130000D01*
X31115000Y-23495000D02*
X31750000Y-24130000D01*
X31115000Y-21590000D02*
X31115000Y-23495000D01*
D12*
X28759143Y-21450429D02*
X28759143Y-22059953D01*
X29063905Y-21755191D02*
X28454381Y-21755191D01*
X28263905Y-22821858D02*
X28263905Y-22440905D01*
X28644857Y-22402810D01*
X28606762Y-22440905D01*
X28568667Y-22517096D01*
X28568667Y-22707572D01*
X28606762Y-22783762D01*
X28644857Y-22821858D01*
X28721048Y-22859953D01*
X28911524Y-22859953D01*
X28987714Y-22821858D01*
X29025810Y-22783762D01*
X29063905Y-22707572D01*
X29063905Y-22517096D01*
X29025810Y-22440905D01*
X28987714Y-22402810D01*
X28263905Y-23088524D02*
X29063905Y-23355191D01*
X28263905Y-23621858D01*
X30041905Y-21475810D02*
X30841905Y-21742477D01*
X30041905Y-22009144D01*
X30841905Y-22275810D02*
X30041905Y-22275810D01*
X30841905Y-22656762D02*
X30041905Y-22656762D01*
X30841905Y-23113905D01*
X30041905Y-23113905D01*
D11*
X32639000Y-22606000D02*
X32639000Y-23495000D01*
D12*
X33089905Y-21412333D02*
X33889905Y-21679000D01*
X33089905Y-21945667D01*
X33813714Y-22669476D02*
X33851810Y-22631381D01*
X33889905Y-22517095D01*
X33889905Y-22440905D01*
X33851810Y-22326619D01*
X33775619Y-22250428D01*
X33699429Y-22212333D01*
X33547048Y-22174238D01*
X33432762Y-22174238D01*
X33280381Y-22212333D01*
X33204190Y-22250428D01*
X33128000Y-22326619D01*
X33089905Y-22440905D01*
X33089905Y-22517095D01*
X33128000Y-22631381D01*
X33166095Y-22669476D01*
X33813714Y-23469476D02*
X33851810Y-23431381D01*
X33889905Y-23317095D01*
X33889905Y-23240905D01*
X33851810Y-23126619D01*
X33775619Y-23050428D01*
X33699429Y-23012333D01*
X33547048Y-22974238D01*
X33432762Y-22974238D01*
X33280381Y-23012333D01*
X33204190Y-23050428D01*
X33128000Y-23126619D01*
X33089905Y-23240905D01*
X33089905Y-23317095D01*
X33128000Y-23431381D01*
X33166095Y-23469476D01*
D11*
X33655000Y-20320000D02*
X34163000Y-20320000D01*
X32639000Y-21336000D02*
X33655000Y-20320000D01*
X32639000Y-22606000D02*
X32639000Y-21336000D01*
D12*
X31604000Y-21869477D02*
X31565905Y-21793286D01*
X31565905Y-21679001D01*
X31604000Y-21564715D01*
X31680190Y-21488524D01*
X31756381Y-21450429D01*
X31908762Y-21412334D01*
X32023048Y-21412334D01*
X32175429Y-21450429D01*
X32251619Y-21488524D01*
X32327810Y-21564715D01*
X32365905Y-21679001D01*
X32365905Y-21755191D01*
X32327810Y-21869477D01*
X32289714Y-21907572D01*
X32023048Y-21907572D01*
X32023048Y-21755191D01*
X32365905Y-22250429D02*
X31565905Y-22250429D01*
X32365905Y-22707572D01*
X31565905Y-22707572D01*
X32365905Y-23088524D02*
X31565905Y-23088524D01*
X31565905Y-23279000D01*
X31604000Y-23393286D01*
X31680190Y-23469477D01*
X31756381Y-23507572D01*
X31908762Y-23545667D01*
X32023048Y-23545667D01*
X32175429Y-23507572D01*
X32251619Y-23469477D01*
X32327810Y-23393286D01*
X32365905Y-23279000D01*
X32365905Y-23088524D01*
D11*
X33147000Y-17653000D02*
X34163000Y-17653000D01*
X32639000Y-18161000D02*
X33147000Y-17653000D01*
X32639000Y-19939000D02*
X32639000Y-18161000D01*
D12*
X31565905Y-17481714D02*
X32365905Y-17748381D01*
X31565905Y-18015048D01*
X31946857Y-18548381D02*
X31984952Y-18662667D01*
X32023048Y-18700762D01*
X32099238Y-18738857D01*
X32213524Y-18738857D01*
X32289714Y-18700762D01*
X32327810Y-18662667D01*
X32365905Y-18586476D01*
X32365905Y-18281714D01*
X31565905Y-18281714D01*
X31565905Y-18548381D01*
X31604000Y-18624571D01*
X31642095Y-18662667D01*
X31718286Y-18700762D01*
X31794476Y-18700762D01*
X31870667Y-18662667D01*
X31908762Y-18624571D01*
X31946857Y-18548381D01*
X31946857Y-18281714D01*
X32137333Y-19043619D02*
X32137333Y-19424571D01*
X32365905Y-18967428D02*
X31565905Y-19234095D01*
X32365905Y-19500762D01*
X31565905Y-19653142D02*
X31565905Y-20110285D01*
X32365905Y-19881714D02*
X31565905Y-19881714D01*
X33889905Y-13868571D02*
X33089905Y-13868571D01*
X33089905Y-14173333D01*
X33128000Y-14249524D01*
X33166095Y-14287619D01*
X33242286Y-14325714D01*
X33356571Y-14325714D01*
X33432762Y-14287619D01*
X33470857Y-14249524D01*
X33508952Y-14173333D01*
X33508952Y-13868571D01*
X33813714Y-15125714D02*
X33851810Y-15087619D01*
X33889905Y-14973333D01*
X33889905Y-14897143D01*
X33851810Y-14782857D01*
X33775619Y-14706666D01*
X33699429Y-14668571D01*
X33547048Y-14630476D01*
X33432762Y-14630476D01*
X33280381Y-14668571D01*
X33204190Y-14706666D01*
X33128000Y-14782857D01*
X33089905Y-14897143D01*
X33089905Y-14973333D01*
X33128000Y-15087619D01*
X33166095Y-15125714D01*
X33889905Y-15887619D02*
X33889905Y-15430476D01*
X33889905Y-15659047D02*
X33089905Y-15659047D01*
X33204190Y-15582857D01*
X33280381Y-15506666D01*
X33318476Y-15430476D01*
X33089905Y-16611429D02*
X33089905Y-16230476D01*
X33470857Y-16192381D01*
X33432762Y-16230476D01*
X33394667Y-16306667D01*
X33394667Y-16497143D01*
X33432762Y-16573333D01*
X33470857Y-16611429D01*
X33547048Y-16649524D01*
X33737524Y-16649524D01*
X33813714Y-16611429D01*
X33851810Y-16573333D01*
X33889905Y-16497143D01*
X33889905Y-16306667D01*
X33851810Y-16230476D01*
X33813714Y-16192381D01*
D11*
X33782000Y-12827000D02*
X34290000Y-12827000D01*
X33655000Y-12954000D02*
X33782000Y-12827000D01*
X32639000Y-13970000D02*
X33655000Y-12954000D01*
X32639000Y-16637000D02*
X32639000Y-13970000D01*
D12*
X32365905Y-13868571D02*
X31565905Y-13868571D01*
X31565905Y-14173333D01*
X31604000Y-14249524D01*
X31642095Y-14287619D01*
X31718286Y-14325714D01*
X31832571Y-14325714D01*
X31908762Y-14287619D01*
X31946857Y-14249524D01*
X31984952Y-14173333D01*
X31984952Y-13868571D01*
X32289714Y-15125714D02*
X32327810Y-15087619D01*
X32365905Y-14973333D01*
X32365905Y-14897143D01*
X32327810Y-14782857D01*
X32251619Y-14706666D01*
X32175429Y-14668571D01*
X32023048Y-14630476D01*
X31908762Y-14630476D01*
X31756381Y-14668571D01*
X31680190Y-14706666D01*
X31604000Y-14782857D01*
X31565905Y-14897143D01*
X31565905Y-14973333D01*
X31604000Y-15087619D01*
X31642095Y-15125714D01*
X32365905Y-15887619D02*
X32365905Y-15430476D01*
X32365905Y-15659047D02*
X31565905Y-15659047D01*
X31680190Y-15582857D01*
X31756381Y-15506666D01*
X31794476Y-15430476D01*
X31832571Y-16573333D02*
X32365905Y-16573333D01*
X31527810Y-16382857D02*
X32099238Y-16192381D01*
X32099238Y-16687619D01*
D11*
X34798000Y-11176000D02*
X34798000Y-11049000D01*
X34544000Y-11430000D02*
X34798000Y-11176000D01*
X33147000Y-11430000D02*
X34544000Y-11430000D01*
X32639000Y-11938000D02*
X33147000Y-11430000D01*
X32639000Y-13208000D02*
X32639000Y-11938000D01*
D12*
X32365905Y-10566571D02*
X31565905Y-10566571D01*
X31565905Y-10871333D01*
X31604000Y-10947524D01*
X31642095Y-10985619D01*
X31718286Y-11023714D01*
X31832571Y-11023714D01*
X31908762Y-10985619D01*
X31946857Y-10947524D01*
X31984952Y-10871333D01*
X31984952Y-10566571D01*
X32289714Y-11823714D02*
X32327810Y-11785619D01*
X32365905Y-11671333D01*
X32365905Y-11595143D01*
X32327810Y-11480857D01*
X32251619Y-11404666D01*
X32175429Y-11366571D01*
X32023048Y-11328476D01*
X31908762Y-11328476D01*
X31756381Y-11366571D01*
X31680190Y-11404666D01*
X31604000Y-11480857D01*
X31565905Y-11595143D01*
X31565905Y-11671333D01*
X31604000Y-11785619D01*
X31642095Y-11823714D01*
X32365905Y-12585619D02*
X32365905Y-12128476D01*
X32365905Y-12357047D02*
X31565905Y-12357047D01*
X31680190Y-12280857D01*
X31756381Y-12204666D01*
X31794476Y-12128476D01*
X31565905Y-12852286D02*
X31565905Y-13347524D01*
X31870667Y-13080857D01*
X31870667Y-13195143D01*
X31908762Y-13271333D01*
X31946857Y-13309429D01*
X32023048Y-13347524D01*
X32213524Y-13347524D01*
X32289714Y-13309429D01*
X32327810Y-13271333D01*
X32365905Y-13195143D01*
X32365905Y-12966571D01*
X32327810Y-12890381D01*
X32289714Y-12852286D01*
D11*
X34163000Y-8382000D02*
X34544000Y-8001000D01*
X34163000Y-10922000D02*
X34163000Y-8382000D01*
D12*
X33889905Y-8210714D02*
X33089905Y-8210714D01*
X33089905Y-8515476D01*
X33128000Y-8591667D01*
X33166095Y-8629762D01*
X33242286Y-8667857D01*
X33356571Y-8667857D01*
X33432762Y-8629762D01*
X33470857Y-8591667D01*
X33508952Y-8515476D01*
X33508952Y-8210714D01*
X33661333Y-8972619D02*
X33661333Y-9353571D01*
X33889905Y-8896428D02*
X33089905Y-9163095D01*
X33889905Y-9429762D01*
X33889905Y-10115476D02*
X33889905Y-9658333D01*
X33889905Y-9886904D02*
X33089905Y-9886904D01*
X33204190Y-9810714D01*
X33280381Y-9734523D01*
X33318476Y-9658333D01*
X33089905Y-10839286D02*
X33089905Y-10458333D01*
X33470857Y-10420238D01*
X33432762Y-10458333D01*
X33394667Y-10534524D01*
X33394667Y-10725000D01*
X33432762Y-10801190D01*
X33470857Y-10839286D01*
X33547048Y-10877381D01*
X33737524Y-10877381D01*
X33813714Y-10839286D01*
X33851810Y-10801190D01*
X33889905Y-10725000D01*
X33889905Y-10534524D01*
X33851810Y-10458333D01*
X33813714Y-10420238D01*
D11*
X34417000Y-4953000D02*
X34544000Y-4953000D01*
X34163000Y-5207000D02*
X34417000Y-4953000D01*
X34163000Y-7620000D02*
X34163000Y-5207000D01*
X34163000Y-4191000D02*
X34671000Y-3683000D01*
X33528000Y-4191000D02*
X34163000Y-4191000D01*
X32639000Y-5080000D02*
X33528000Y-4191000D01*
X32639000Y-7620000D02*
X32639000Y-5080000D01*
D12*
X33889905Y-5035714D02*
X33089905Y-5035714D01*
X33089905Y-5340476D01*
X33128000Y-5416667D01*
X33166095Y-5454762D01*
X33242286Y-5492857D01*
X33356571Y-5492857D01*
X33432762Y-5454762D01*
X33470857Y-5416667D01*
X33508952Y-5340476D01*
X33508952Y-5035714D01*
X33661333Y-5797619D02*
X33661333Y-6178571D01*
X33889905Y-5721428D02*
X33089905Y-5988095D01*
X33889905Y-6254762D01*
X33889905Y-6940476D02*
X33889905Y-6483333D01*
X33889905Y-6711904D02*
X33089905Y-6711904D01*
X33204190Y-6635714D01*
X33280381Y-6559523D01*
X33318476Y-6483333D01*
X33356571Y-7626190D02*
X33889905Y-7626190D01*
X33051810Y-7435714D02*
X33623238Y-7245238D01*
X33623238Y-7740476D01*
X32365905Y-5035714D02*
X31565905Y-5035714D01*
X31565905Y-5340476D01*
X31604000Y-5416667D01*
X31642095Y-5454762D01*
X31718286Y-5492857D01*
X31832571Y-5492857D01*
X31908762Y-5454762D01*
X31946857Y-5416667D01*
X31984952Y-5340476D01*
X31984952Y-5035714D01*
X32137333Y-5797619D02*
X32137333Y-6178571D01*
X32365905Y-5721428D02*
X31565905Y-5988095D01*
X32365905Y-6254762D01*
X32365905Y-6940476D02*
X32365905Y-6483333D01*
X32365905Y-6711904D02*
X31565905Y-6711904D01*
X31680190Y-6635714D01*
X31756381Y-6559523D01*
X31794476Y-6483333D01*
X31565905Y-7207143D02*
X31565905Y-7702381D01*
X31870667Y-7435714D01*
X31870667Y-7550000D01*
X31908762Y-7626190D01*
X31946857Y-7664286D01*
X32023048Y-7702381D01*
X32213524Y-7702381D01*
X32289714Y-7664286D01*
X32327810Y-7626190D01*
X32365905Y-7550000D01*
X32365905Y-7321428D01*
X32327810Y-7245238D01*
X32289714Y-7207143D01*
D11*
X30480000Y-5715000D02*
X32385000Y-3810000D01*
X30480000Y-10160000D02*
X30480000Y-5715000D01*
X28702000Y-10668000D02*
X28702000Y-18796000D01*
X29337000Y-10033000D02*
X28702000Y-10668000D01*
X29337000Y-4826000D02*
X29337000Y-10033000D01*
X30226000Y-3937000D02*
X29337000Y-4826000D01*
X26162000Y-5842000D02*
X26162000Y-19685000D01*
X27940000Y-4064000D02*
X26162000Y-5842000D01*
X23622000Y-10414000D02*
X23622000Y-18796000D01*
X24892000Y-4572000D02*
X25400000Y-4064000D01*
X24892000Y-9144000D02*
X24892000Y-4572000D01*
X23622000Y-10414000D02*
X24892000Y-9144000D01*
D12*
X30841905Y-10566905D02*
X30041905Y-10566905D01*
X30041905Y-10871667D01*
X30080000Y-10947858D01*
X30118095Y-10985953D01*
X30194286Y-11024048D01*
X30308571Y-11024048D01*
X30384762Y-10985953D01*
X30422857Y-10947858D01*
X30460952Y-10871667D01*
X30460952Y-10566905D01*
X30613333Y-11328810D02*
X30613333Y-11709762D01*
X30841905Y-11252619D02*
X30041905Y-11519286D01*
X30841905Y-11785953D01*
X30841905Y-12471667D02*
X30841905Y-12014524D01*
X30841905Y-12243095D02*
X30041905Y-12243095D01*
X30156190Y-12166905D01*
X30232381Y-12090714D01*
X30270476Y-12014524D01*
X30118095Y-12776429D02*
X30080000Y-12814524D01*
X30041905Y-12890715D01*
X30041905Y-13081191D01*
X30080000Y-13157381D01*
X30118095Y-13195477D01*
X30194286Y-13233572D01*
X30270476Y-13233572D01*
X30384762Y-13195477D01*
X30841905Y-12738334D01*
X30841905Y-13233572D01*
X30003810Y-14147858D02*
X31032381Y-13462143D01*
X30041905Y-14414524D02*
X30689524Y-14414524D01*
X30765714Y-14452619D01*
X30803810Y-14490715D01*
X30841905Y-14566905D01*
X30841905Y-14719286D01*
X30803810Y-14795477D01*
X30765714Y-14833572D01*
X30689524Y-14871667D01*
X30041905Y-14871667D01*
X30803810Y-15214524D02*
X30841905Y-15328810D01*
X30841905Y-15519286D01*
X30803810Y-15595476D01*
X30765714Y-15633572D01*
X30689524Y-15671667D01*
X30613333Y-15671667D01*
X30537143Y-15633572D01*
X30499048Y-15595476D01*
X30460952Y-15519286D01*
X30422857Y-15366905D01*
X30384762Y-15290714D01*
X30346667Y-15252619D01*
X30270476Y-15214524D01*
X30194286Y-15214524D01*
X30118095Y-15252619D01*
X30080000Y-15290714D01*
X30041905Y-15366905D01*
X30041905Y-15557381D01*
X30080000Y-15671667D01*
X30422857Y-16281191D02*
X30460952Y-16395477D01*
X30499048Y-16433572D01*
X30575238Y-16471667D01*
X30689524Y-16471667D01*
X30765714Y-16433572D01*
X30803810Y-16395477D01*
X30841905Y-16319286D01*
X30841905Y-16014524D01*
X30041905Y-16014524D01*
X30041905Y-16281191D01*
X30080000Y-16357381D01*
X30118095Y-16395477D01*
X30194286Y-16433572D01*
X30270476Y-16433572D01*
X30346667Y-16395477D01*
X30384762Y-16357381D01*
X30422857Y-16281191D01*
X30422857Y-16014524D01*
X30918095Y-16624048D02*
X30918095Y-17233572D01*
X30841905Y-17424048D02*
X30041905Y-17424048D01*
X30041905Y-17614524D01*
X30080000Y-17728810D01*
X30156190Y-17805001D01*
X30232381Y-17843096D01*
X30384762Y-17881191D01*
X30499048Y-17881191D01*
X30651429Y-17843096D01*
X30727619Y-17805001D01*
X30803810Y-17728810D01*
X30841905Y-17614524D01*
X30841905Y-17424048D01*
X30841905Y-18224048D02*
X30041905Y-18224048D01*
X30041905Y-18528810D01*
X30080000Y-18605001D01*
X30118095Y-18643096D01*
X30194286Y-18681191D01*
X30308571Y-18681191D01*
X30384762Y-18643096D01*
X30422857Y-18605001D01*
X30460952Y-18528810D01*
X30460952Y-18224048D01*
X28301905Y-10636762D02*
X27501905Y-10636762D01*
X27501905Y-10941524D01*
X27540000Y-11017715D01*
X27578095Y-11055810D01*
X27654286Y-11093905D01*
X27768571Y-11093905D01*
X27844762Y-11055810D01*
X27882857Y-11017715D01*
X27920952Y-10941524D01*
X27920952Y-10636762D01*
X28073333Y-11398667D02*
X28073333Y-11779619D01*
X28301905Y-11322476D02*
X27501905Y-11589143D01*
X28301905Y-11855810D01*
X28301905Y-12541524D02*
X28301905Y-12084381D01*
X28301905Y-12312952D02*
X27501905Y-12312952D01*
X27616190Y-12236762D01*
X27692381Y-12160571D01*
X27730476Y-12084381D01*
X28301905Y-13303429D02*
X28301905Y-12846286D01*
X28301905Y-13074857D02*
X27501905Y-13074857D01*
X27616190Y-12998667D01*
X27692381Y-12922476D01*
X27730476Y-12846286D01*
X27463810Y-14217715D02*
X28492381Y-13532000D01*
X27501905Y-14484381D02*
X28149524Y-14484381D01*
X28225714Y-14522476D01*
X28263810Y-14560572D01*
X28301905Y-14636762D01*
X28301905Y-14789143D01*
X28263810Y-14865334D01*
X28225714Y-14903429D01*
X28149524Y-14941524D01*
X27501905Y-14941524D01*
X28263810Y-15284381D02*
X28301905Y-15398667D01*
X28301905Y-15589143D01*
X28263810Y-15665333D01*
X28225714Y-15703429D01*
X28149524Y-15741524D01*
X28073333Y-15741524D01*
X27997143Y-15703429D01*
X27959048Y-15665333D01*
X27920952Y-15589143D01*
X27882857Y-15436762D01*
X27844762Y-15360571D01*
X27806667Y-15322476D01*
X27730476Y-15284381D01*
X27654286Y-15284381D01*
X27578095Y-15322476D01*
X27540000Y-15360571D01*
X27501905Y-15436762D01*
X27501905Y-15627238D01*
X27540000Y-15741524D01*
X27882857Y-16351048D02*
X27920952Y-16465334D01*
X27959048Y-16503429D01*
X28035238Y-16541524D01*
X28149524Y-16541524D01*
X28225714Y-16503429D01*
X28263810Y-16465334D01*
X28301905Y-16389143D01*
X28301905Y-16084381D01*
X27501905Y-16084381D01*
X27501905Y-16351048D01*
X27540000Y-16427238D01*
X27578095Y-16465334D01*
X27654286Y-16503429D01*
X27730476Y-16503429D01*
X27806667Y-16465334D01*
X27844762Y-16427238D01*
X27882857Y-16351048D01*
X27882857Y-16084381D01*
X28378095Y-16693905D02*
X28378095Y-17303429D01*
X28301905Y-17493905D02*
X27501905Y-17493905D01*
X27501905Y-17684381D01*
X27540000Y-17798667D01*
X27616190Y-17874858D01*
X27692381Y-17912953D01*
X27844762Y-17951048D01*
X27959048Y-17951048D01*
X28111429Y-17912953D01*
X28187619Y-17874858D01*
X28263810Y-17798667D01*
X28301905Y-17684381D01*
X28301905Y-17493905D01*
X28301905Y-18293905D02*
X27501905Y-18293905D01*
X28073333Y-18560572D01*
X27501905Y-18827239D01*
X28301905Y-18827239D01*
X25761905Y-10611428D02*
X24961905Y-10611428D01*
X24961905Y-10916190D01*
X25000000Y-10992381D01*
X25038095Y-11030476D01*
X25114286Y-11068571D01*
X25228571Y-11068571D01*
X25304762Y-11030476D01*
X25342857Y-10992381D01*
X25380952Y-10916190D01*
X25380952Y-10611428D01*
X25533333Y-11373333D02*
X25533333Y-11754285D01*
X25761905Y-11297142D02*
X24961905Y-11563809D01*
X25761905Y-11830476D01*
X25761905Y-12516190D02*
X25761905Y-12059047D01*
X25761905Y-12287618D02*
X24961905Y-12287618D01*
X25076190Y-12211428D01*
X25152381Y-12135237D01*
X25190476Y-12059047D01*
X24961905Y-13011428D02*
X24961905Y-13087619D01*
X25000000Y-13163809D01*
X25038095Y-13201904D01*
X25114286Y-13240000D01*
X25266667Y-13278095D01*
X25457143Y-13278095D01*
X25609524Y-13240000D01*
X25685714Y-13201904D01*
X25723810Y-13163809D01*
X25761905Y-13087619D01*
X25761905Y-13011428D01*
X25723810Y-12935238D01*
X25685714Y-12897142D01*
X25609524Y-12859047D01*
X25457143Y-12820952D01*
X25266667Y-12820952D01*
X25114286Y-12859047D01*
X25038095Y-12897142D01*
X25000000Y-12935238D01*
X24961905Y-13011428D01*
X24923810Y-14192381D02*
X25952381Y-13506666D01*
X25761905Y-14459047D02*
X24961905Y-14459047D01*
X24961905Y-14763809D01*
X25000000Y-14840000D01*
X25038095Y-14878095D01*
X25114286Y-14916190D01*
X25228571Y-14916190D01*
X25304762Y-14878095D01*
X25342857Y-14840000D01*
X25380952Y-14763809D01*
X25380952Y-14459047D01*
X24961905Y-15182857D02*
X25761905Y-15373333D01*
X25190476Y-15525714D01*
X25761905Y-15678095D01*
X24961905Y-15868571D01*
X25761905Y-16173333D02*
X24961905Y-16173333D01*
X25533333Y-16440000D01*
X24961905Y-16706667D01*
X25761905Y-16706667D01*
X24923810Y-17659048D02*
X25952381Y-16973333D01*
X25761905Y-18382857D02*
X25380952Y-18116190D01*
X25761905Y-17925714D02*
X24961905Y-17925714D01*
X24961905Y-18230476D01*
X25000000Y-18306667D01*
X25038095Y-18344762D01*
X25114286Y-18382857D01*
X25228571Y-18382857D01*
X25304762Y-18344762D01*
X25342857Y-18306667D01*
X25380952Y-18230476D01*
X25380952Y-17925714D01*
X24961905Y-18649524D02*
X25761905Y-19182857D01*
X24961905Y-19182857D02*
X25761905Y-18649524D01*
X25761905Y-19906667D02*
X25761905Y-19449524D01*
X25761905Y-19678095D02*
X24961905Y-19678095D01*
X25076190Y-19601905D01*
X25152381Y-19525714D01*
X25190476Y-19449524D01*
X23221905Y-10579619D02*
X22421905Y-10579619D01*
X22421905Y-10884381D01*
X22460000Y-10960572D01*
X22498095Y-10998667D01*
X22574286Y-11036762D01*
X22688571Y-11036762D01*
X22764762Y-10998667D01*
X22802857Y-10960572D01*
X22840952Y-10884381D01*
X22840952Y-10579619D01*
X22993333Y-11341524D02*
X22993333Y-11722476D01*
X23221905Y-11265333D02*
X22421905Y-11532000D01*
X23221905Y-11798667D01*
X23221905Y-12103428D02*
X23221905Y-12255809D01*
X23183810Y-12332000D01*
X23145714Y-12370095D01*
X23031429Y-12446286D01*
X22879048Y-12484381D01*
X22574286Y-12484381D01*
X22498095Y-12446286D01*
X22460000Y-12408190D01*
X22421905Y-12332000D01*
X22421905Y-12179619D01*
X22460000Y-12103428D01*
X22498095Y-12065333D01*
X22574286Y-12027238D01*
X22764762Y-12027238D01*
X22840952Y-12065333D01*
X22879048Y-12103428D01*
X22917143Y-12179619D01*
X22917143Y-12332000D01*
X22879048Y-12408190D01*
X22840952Y-12446286D01*
X22764762Y-12484381D01*
X22383810Y-13398667D02*
X23412381Y-12712952D01*
X23221905Y-13665333D02*
X22421905Y-13665333D01*
X22421905Y-13970095D01*
X22460000Y-14046286D01*
X22498095Y-14084381D01*
X22574286Y-14122476D01*
X22688571Y-14122476D01*
X22764762Y-14084381D01*
X22802857Y-14046286D01*
X22840952Y-13970095D01*
X22840952Y-13665333D01*
X22421905Y-14389143D02*
X23221905Y-14579619D01*
X22650476Y-14732000D01*
X23221905Y-14884381D01*
X22421905Y-15074857D01*
X23221905Y-15379619D02*
X22421905Y-15379619D01*
X22993333Y-15646286D01*
X22421905Y-15912953D01*
X23221905Y-15912953D01*
X22383810Y-16865334D02*
X23412381Y-16179619D01*
X22421905Y-17017714D02*
X22421905Y-17474857D01*
X23221905Y-17246286D02*
X22421905Y-17246286D01*
X22421905Y-17665334D02*
X23221905Y-18198667D01*
X22421905Y-18198667D02*
X23221905Y-17665334D01*
X23221905Y-18922477D02*
X23221905Y-18465334D01*
X23221905Y-18693905D02*
X22421905Y-18693905D01*
X22536190Y-18617715D01*
X22612381Y-18541524D01*
X22650476Y-18465334D01*
X23221905Y-4191333D02*
X22421905Y-4191333D01*
X22421905Y-4496095D01*
X22460000Y-4572286D01*
X22498095Y-4610381D01*
X22574286Y-4648476D01*
X22688571Y-4648476D01*
X22764762Y-4610381D01*
X22802857Y-4572286D01*
X22840952Y-4496095D01*
X22840952Y-4191333D01*
X22993333Y-4953238D02*
X22993333Y-5334190D01*
X23221905Y-4877047D02*
X22421905Y-5143714D01*
X23221905Y-5410381D01*
X22764762Y-5791333D02*
X22726667Y-5715142D01*
X22688571Y-5677047D01*
X22612381Y-5638952D01*
X22574286Y-5638952D01*
X22498095Y-5677047D01*
X22460000Y-5715142D01*
X22421905Y-5791333D01*
X22421905Y-5943714D01*
X22460000Y-6019904D01*
X22498095Y-6058000D01*
X22574286Y-6096095D01*
X22612381Y-6096095D01*
X22688571Y-6058000D01*
X22726667Y-6019904D01*
X22764762Y-5943714D01*
X22764762Y-5791333D01*
X22802857Y-5715142D01*
X22840952Y-5677047D01*
X22917143Y-5638952D01*
X23069524Y-5638952D01*
X23145714Y-5677047D01*
X23183810Y-5715142D01*
X23221905Y-5791333D01*
X23221905Y-5943714D01*
X23183810Y-6019904D01*
X23145714Y-6058000D01*
X23069524Y-6096095D01*
X22917143Y-6096095D01*
X22840952Y-6058000D01*
X22802857Y-6019904D01*
X22764762Y-5943714D01*
X22383810Y-7010381D02*
X23412381Y-6324666D01*
X23221905Y-7277047D02*
X22421905Y-7277047D01*
X22421905Y-7581809D01*
X22460000Y-7658000D01*
X22498095Y-7696095D01*
X22574286Y-7734190D01*
X22688571Y-7734190D01*
X22764762Y-7696095D01*
X22802857Y-7658000D01*
X22840952Y-7581809D01*
X22840952Y-7277047D01*
X22421905Y-8000857D02*
X23221905Y-8191333D01*
X22650476Y-8343714D01*
X23221905Y-8496095D01*
X22421905Y-8686571D01*
X23221905Y-8991333D02*
X22421905Y-8991333D01*
X22993333Y-9258000D01*
X22421905Y-9524667D01*
X23221905Y-9524667D01*
X20681905Y-4191810D02*
X19881905Y-4191810D01*
X19881905Y-4496572D01*
X19920000Y-4572763D01*
X19958095Y-4610858D01*
X20034286Y-4648953D01*
X20148571Y-4648953D01*
X20224762Y-4610858D01*
X20262857Y-4572763D01*
X20300952Y-4496572D01*
X20300952Y-4191810D01*
X20453333Y-4953715D02*
X20453333Y-5334667D01*
X20681905Y-4877524D02*
X19881905Y-5144191D01*
X20681905Y-5410858D01*
X19881905Y-5601334D02*
X19881905Y-6134667D01*
X20681905Y-5791810D01*
X19843810Y-7010858D02*
X20872381Y-6325143D01*
X20681905Y-7277524D02*
X19881905Y-7277524D01*
X19881905Y-7582286D01*
X19920000Y-7658477D01*
X19958095Y-7696572D01*
X20034286Y-7734667D01*
X20148571Y-7734667D01*
X20224762Y-7696572D01*
X20262857Y-7658477D01*
X20300952Y-7582286D01*
X20300952Y-7277524D01*
X19881905Y-8001334D02*
X20681905Y-8191810D01*
X20110476Y-8344191D01*
X20681905Y-8496572D01*
X19881905Y-8687048D01*
X20681905Y-8991810D02*
X19881905Y-8991810D01*
X20453333Y-9258477D01*
X19881905Y-9525144D01*
X20681905Y-9525144D01*
X19843810Y-10477525D02*
X20872381Y-9791810D01*
X20453333Y-10706096D02*
X20453333Y-11087048D01*
X20681905Y-10629905D02*
X19881905Y-10896572D01*
X20681905Y-11163239D01*
X20681905Y-11429905D02*
X19881905Y-11429905D01*
X19881905Y-11620381D01*
X19920000Y-11734667D01*
X19996190Y-11810858D01*
X20072381Y-11848953D01*
X20224762Y-11887048D01*
X20339048Y-11887048D01*
X20491429Y-11848953D01*
X20567619Y-11810858D01*
X20643810Y-11734667D01*
X20681905Y-11620381D01*
X20681905Y-11429905D01*
X20605714Y-12687048D02*
X20643810Y-12648953D01*
X20681905Y-12534667D01*
X20681905Y-12458477D01*
X20643810Y-12344191D01*
X20567619Y-12268000D01*
X20491429Y-12229905D01*
X20339048Y-12191810D01*
X20224762Y-12191810D01*
X20072381Y-12229905D01*
X19996190Y-12268000D01*
X19920000Y-12344191D01*
X19881905Y-12458477D01*
X19881905Y-12534667D01*
X19920000Y-12648953D01*
X19958095Y-12687048D01*
X19843810Y-13601334D02*
X20872381Y-12915619D01*
X20681905Y-13868000D02*
X19881905Y-13868000D01*
X20453333Y-14134667D01*
X19881905Y-14401334D01*
X20681905Y-14401334D01*
X19881905Y-14934667D02*
X19881905Y-15087048D01*
X19920000Y-15163239D01*
X19996190Y-15239429D01*
X20148571Y-15277524D01*
X20415238Y-15277524D01*
X20567619Y-15239429D01*
X20643810Y-15163239D01*
X20681905Y-15087048D01*
X20681905Y-14934667D01*
X20643810Y-14858477D01*
X20567619Y-14782286D01*
X20415238Y-14744191D01*
X20148571Y-14744191D01*
X19996190Y-14782286D01*
X19920000Y-14858477D01*
X19881905Y-14934667D01*
X20643810Y-15582286D02*
X20681905Y-15696572D01*
X20681905Y-15887048D01*
X20643810Y-15963238D01*
X20605714Y-16001334D01*
X20529524Y-16039429D01*
X20453333Y-16039429D01*
X20377143Y-16001334D01*
X20339048Y-15963238D01*
X20300952Y-15887048D01*
X20262857Y-15734667D01*
X20224762Y-15658476D01*
X20186667Y-15620381D01*
X20110476Y-15582286D01*
X20034286Y-15582286D01*
X19958095Y-15620381D01*
X19920000Y-15658476D01*
X19881905Y-15734667D01*
X19881905Y-15925143D01*
X19920000Y-16039429D01*
X20681905Y-16382286D02*
X19881905Y-16382286D01*
X20681905Y-17182286D02*
X20681905Y-16725143D01*
X20681905Y-16953714D02*
X19881905Y-16953714D01*
X19996190Y-16877524D01*
X20072381Y-16801333D01*
X20110476Y-16725143D01*
X18141905Y-4191810D02*
X17341905Y-4191810D01*
X17341905Y-4496572D01*
X17380000Y-4572763D01*
X17418095Y-4610858D01*
X17494286Y-4648953D01*
X17608571Y-4648953D01*
X17684762Y-4610858D01*
X17722857Y-4572763D01*
X17760952Y-4496572D01*
X17760952Y-4191810D01*
X17913333Y-4953715D02*
X17913333Y-5334667D01*
X18141905Y-4877524D02*
X17341905Y-5144191D01*
X18141905Y-5410858D01*
X17341905Y-6020381D02*
X17341905Y-5868000D01*
X17380000Y-5791810D01*
X17418095Y-5753715D01*
X17532381Y-5677524D01*
X17684762Y-5639429D01*
X17989524Y-5639429D01*
X18065714Y-5677524D01*
X18103810Y-5715619D01*
X18141905Y-5791810D01*
X18141905Y-5944191D01*
X18103810Y-6020381D01*
X18065714Y-6058477D01*
X17989524Y-6096572D01*
X17799048Y-6096572D01*
X17722857Y-6058477D01*
X17684762Y-6020381D01*
X17646667Y-5944191D01*
X17646667Y-5791810D01*
X17684762Y-5715619D01*
X17722857Y-5677524D01*
X17799048Y-5639429D01*
X17303810Y-7010858D02*
X18332381Y-6325143D01*
X18141905Y-7277524D02*
X17341905Y-7277524D01*
X17341905Y-7582286D01*
X17380000Y-7658477D01*
X17418095Y-7696572D01*
X17494286Y-7734667D01*
X17608571Y-7734667D01*
X17684762Y-7696572D01*
X17722857Y-7658477D01*
X17760952Y-7582286D01*
X17760952Y-7277524D01*
X17341905Y-8001334D02*
X18141905Y-8191810D01*
X17570476Y-8344191D01*
X18141905Y-8496572D01*
X17341905Y-8687048D01*
X18141905Y-8991810D02*
X17341905Y-8991810D01*
X17913333Y-9258477D01*
X17341905Y-9525144D01*
X18141905Y-9525144D01*
X17303810Y-10477525D02*
X18332381Y-9791810D01*
X17913333Y-10706096D02*
X17913333Y-11087048D01*
X18141905Y-10629905D02*
X17341905Y-10896572D01*
X18141905Y-11163239D01*
X18141905Y-11429905D02*
X17341905Y-11429905D01*
X17341905Y-11620381D01*
X17380000Y-11734667D01*
X17456190Y-11810858D01*
X17532381Y-11848953D01*
X17684762Y-11887048D01*
X17799048Y-11887048D01*
X17951429Y-11848953D01*
X18027619Y-11810858D01*
X18103810Y-11734667D01*
X18141905Y-11620381D01*
X18141905Y-11429905D01*
X18065714Y-12687048D02*
X18103810Y-12648953D01*
X18141905Y-12534667D01*
X18141905Y-12458477D01*
X18103810Y-12344191D01*
X18027619Y-12268000D01*
X17951429Y-12229905D01*
X17799048Y-12191810D01*
X17684762Y-12191810D01*
X17532381Y-12229905D01*
X17456190Y-12268000D01*
X17380000Y-12344191D01*
X17341905Y-12458477D01*
X17341905Y-12534667D01*
X17380000Y-12648953D01*
X17418095Y-12687048D01*
X17303810Y-13601334D02*
X18332381Y-12915619D01*
X18141905Y-13868000D02*
X17341905Y-13868000D01*
X17913333Y-14134667D01*
X17341905Y-14401334D01*
X18141905Y-14401334D01*
X18141905Y-14782286D02*
X17341905Y-14782286D01*
X18103810Y-15125143D02*
X18141905Y-15239429D01*
X18141905Y-15429905D01*
X18103810Y-15506095D01*
X18065714Y-15544191D01*
X17989524Y-15582286D01*
X17913333Y-15582286D01*
X17837143Y-15544191D01*
X17799048Y-15506095D01*
X17760952Y-15429905D01*
X17722857Y-15277524D01*
X17684762Y-15201333D01*
X17646667Y-15163238D01*
X17570476Y-15125143D01*
X17494286Y-15125143D01*
X17418095Y-15163238D01*
X17380000Y-15201333D01*
X17341905Y-15277524D01*
X17341905Y-15468000D01*
X17380000Y-15582286D01*
X17341905Y-16077524D02*
X17341905Y-16229905D01*
X17380000Y-16306096D01*
X17456190Y-16382286D01*
X17608571Y-16420381D01*
X17875238Y-16420381D01*
X18027619Y-16382286D01*
X18103810Y-16306096D01*
X18141905Y-16229905D01*
X18141905Y-16077524D01*
X18103810Y-16001334D01*
X18027619Y-15925143D01*
X17875238Y-15887048D01*
X17608571Y-15887048D01*
X17456190Y-15925143D01*
X17380000Y-16001334D01*
X17341905Y-16077524D01*
X18141905Y-17182286D02*
X18141905Y-16725143D01*
X18141905Y-16953714D02*
X17341905Y-16953714D01*
X17456190Y-16877524D01*
X17532381Y-16801333D01*
X17570476Y-16725143D01*
X15601905Y-4159810D02*
X14801905Y-4159810D01*
X14801905Y-4464572D01*
X14840000Y-4540763D01*
X14878095Y-4578858D01*
X14954286Y-4616953D01*
X15068571Y-4616953D01*
X15144762Y-4578858D01*
X15182857Y-4540763D01*
X15220952Y-4464572D01*
X15220952Y-4159810D01*
X15373333Y-4921715D02*
X15373333Y-5302667D01*
X15601905Y-4845524D02*
X14801905Y-5112191D01*
X15601905Y-5378858D01*
X14801905Y-6026477D02*
X14801905Y-5645524D01*
X15182857Y-5607429D01*
X15144762Y-5645524D01*
X15106667Y-5721715D01*
X15106667Y-5912191D01*
X15144762Y-5988381D01*
X15182857Y-6026477D01*
X15259048Y-6064572D01*
X15449524Y-6064572D01*
X15525714Y-6026477D01*
X15563810Y-5988381D01*
X15601905Y-5912191D01*
X15601905Y-5721715D01*
X15563810Y-5645524D01*
X15525714Y-5607429D01*
X14763810Y-6978858D02*
X15792381Y-6293143D01*
X15373333Y-7207429D02*
X15373333Y-7588381D01*
X15601905Y-7131238D02*
X14801905Y-7397905D01*
X15601905Y-7664572D01*
X15601905Y-7931238D02*
X14801905Y-7931238D01*
X14801905Y-8121714D01*
X14840000Y-8236000D01*
X14916190Y-8312191D01*
X14992381Y-8350286D01*
X15144762Y-8388381D01*
X15259048Y-8388381D01*
X15411429Y-8350286D01*
X15487619Y-8312191D01*
X15563810Y-8236000D01*
X15601905Y-8121714D01*
X15601905Y-7931238D01*
X15525714Y-9188381D02*
X15563810Y-9150286D01*
X15601905Y-9036000D01*
X15601905Y-8959810D01*
X15563810Y-8845524D01*
X15487619Y-8769333D01*
X15411429Y-8731238D01*
X15259048Y-8693143D01*
X15144762Y-8693143D01*
X14992381Y-8731238D01*
X14916190Y-8769333D01*
X14840000Y-8845524D01*
X14801905Y-8959810D01*
X14801905Y-9036000D01*
X14840000Y-9150286D01*
X14878095Y-9188381D01*
X14763810Y-10102667D02*
X15792381Y-9416952D01*
X15563810Y-10331238D02*
X15601905Y-10445524D01*
X15601905Y-10636000D01*
X15563810Y-10712190D01*
X15525714Y-10750286D01*
X15449524Y-10788381D01*
X15373333Y-10788381D01*
X15297143Y-10750286D01*
X15259048Y-10712190D01*
X15220952Y-10636000D01*
X15182857Y-10483619D01*
X15144762Y-10407428D01*
X15106667Y-10369333D01*
X15030476Y-10331238D01*
X14954286Y-10331238D01*
X14878095Y-10369333D01*
X14840000Y-10407428D01*
X14801905Y-10483619D01*
X14801905Y-10674095D01*
X14840000Y-10788381D01*
X15525714Y-11588381D02*
X15563810Y-11550286D01*
X15601905Y-11436000D01*
X15601905Y-11359810D01*
X15563810Y-11245524D01*
X15487619Y-11169333D01*
X15411429Y-11131238D01*
X15259048Y-11093143D01*
X15144762Y-11093143D01*
X14992381Y-11131238D01*
X14916190Y-11169333D01*
X14840000Y-11245524D01*
X14801905Y-11359810D01*
X14801905Y-11436000D01*
X14840000Y-11550286D01*
X14878095Y-11588381D01*
X15601905Y-11931238D02*
X14801905Y-11931238D01*
X15601905Y-12388381D02*
X15144762Y-12045524D01*
X14801905Y-12388381D02*
X15259048Y-11931238D01*
X15601905Y-13150286D02*
X15601905Y-12693143D01*
X15601905Y-12921714D02*
X14801905Y-12921714D01*
X14916190Y-12845524D01*
X14992381Y-12769333D01*
X15030476Y-12693143D01*
X13061905Y-4159810D02*
X12261905Y-4159810D01*
X12261905Y-4464572D01*
X12300000Y-4540763D01*
X12338095Y-4578858D01*
X12414286Y-4616953D01*
X12528571Y-4616953D01*
X12604762Y-4578858D01*
X12642857Y-4540763D01*
X12680952Y-4464572D01*
X12680952Y-4159810D01*
X12833333Y-4921715D02*
X12833333Y-5302667D01*
X13061905Y-4845524D02*
X12261905Y-5112191D01*
X13061905Y-5378858D01*
X12528571Y-5988381D02*
X13061905Y-5988381D01*
X12223810Y-5797905D02*
X12795238Y-5607429D01*
X12795238Y-6102667D01*
X12223810Y-6978858D02*
X13252381Y-6293143D01*
X12833333Y-7207429D02*
X12833333Y-7588381D01*
X13061905Y-7131238D02*
X12261905Y-7397905D01*
X13061905Y-7664572D01*
X13061905Y-7931238D02*
X12261905Y-7931238D01*
X12261905Y-8121714D01*
X12300000Y-8236000D01*
X12376190Y-8312191D01*
X12452381Y-8350286D01*
X12604762Y-8388381D01*
X12719048Y-8388381D01*
X12871429Y-8350286D01*
X12947619Y-8312191D01*
X13023810Y-8236000D01*
X13061905Y-8121714D01*
X13061905Y-7931238D01*
X12985714Y-9188381D02*
X13023810Y-9150286D01*
X13061905Y-9036000D01*
X13061905Y-8959810D01*
X13023810Y-8845524D01*
X12947619Y-8769333D01*
X12871429Y-8731238D01*
X12719048Y-8693143D01*
X12604762Y-8693143D01*
X12452381Y-8731238D01*
X12376190Y-8769333D01*
X12300000Y-8845524D01*
X12261905Y-8959810D01*
X12261905Y-9036000D01*
X12300000Y-9150286D01*
X12338095Y-9188381D01*
X12223810Y-10102667D02*
X13252381Y-9416952D01*
X13061905Y-10369333D02*
X12261905Y-10369333D01*
X13061905Y-10826476D01*
X12261905Y-10826476D01*
X13023810Y-11169333D02*
X13061905Y-11283619D01*
X13061905Y-11474095D01*
X13023810Y-11550285D01*
X12985714Y-11588381D01*
X12909524Y-11626476D01*
X12833333Y-11626476D01*
X12757143Y-11588381D01*
X12719048Y-11550285D01*
X12680952Y-11474095D01*
X12642857Y-11321714D01*
X12604762Y-11245523D01*
X12566667Y-11207428D01*
X12490476Y-11169333D01*
X12414286Y-11169333D01*
X12338095Y-11207428D01*
X12300000Y-11245523D01*
X12261905Y-11321714D01*
X12261905Y-11512190D01*
X12300000Y-11626476D01*
X13023810Y-11931238D02*
X13061905Y-12045524D01*
X13061905Y-12236000D01*
X13023810Y-12312190D01*
X12985714Y-12350286D01*
X12909524Y-12388381D01*
X12833333Y-12388381D01*
X12757143Y-12350286D01*
X12719048Y-12312190D01*
X12680952Y-12236000D01*
X12642857Y-12083619D01*
X12604762Y-12007428D01*
X12566667Y-11969333D01*
X12490476Y-11931238D01*
X12414286Y-11931238D01*
X12338095Y-11969333D01*
X12300000Y-12007428D01*
X12261905Y-12083619D01*
X12261905Y-12274095D01*
X12300000Y-12388381D01*
X13061905Y-13150286D02*
X13061905Y-12693143D01*
X13061905Y-12921714D02*
X12261905Y-12921714D01*
X12376190Y-12845524D01*
X12452381Y-12769333D01*
X12490476Y-12693143D01*
X10521905Y-4159976D02*
X9721905Y-4159976D01*
X9721905Y-4464738D01*
X9760000Y-4540929D01*
X9798095Y-4579024D01*
X9874286Y-4617119D01*
X9988571Y-4617119D01*
X10064762Y-4579024D01*
X10102857Y-4540929D01*
X10140952Y-4464738D01*
X10140952Y-4159976D01*
X10293333Y-4921881D02*
X10293333Y-5302833D01*
X10521905Y-4845690D02*
X9721905Y-5112357D01*
X10521905Y-5379024D01*
X9721905Y-5569500D02*
X9721905Y-6064738D01*
X10026667Y-5798071D01*
X10026667Y-5912357D01*
X10064762Y-5988547D01*
X10102857Y-6026643D01*
X10179048Y-6064738D01*
X10369524Y-6064738D01*
X10445714Y-6026643D01*
X10483810Y-5988547D01*
X10521905Y-5912357D01*
X10521905Y-5683785D01*
X10483810Y-5607595D01*
X10445714Y-5569500D01*
X9683810Y-6979024D02*
X10712381Y-6293309D01*
X10521905Y-7245690D02*
X9721905Y-7245690D01*
X9721905Y-7550452D01*
X9760000Y-7626643D01*
X9798095Y-7664738D01*
X9874286Y-7702833D01*
X9988571Y-7702833D01*
X10064762Y-7664738D01*
X10102857Y-7626643D01*
X10140952Y-7550452D01*
X10140952Y-7245690D01*
X9721905Y-7969500D02*
X10521905Y-8159976D01*
X9950476Y-8312357D01*
X10521905Y-8464738D01*
X9721905Y-8655214D01*
X10521905Y-8959976D02*
X9721905Y-8959976D01*
X10293333Y-9226643D01*
X9721905Y-9493310D01*
X10521905Y-9493310D01*
X9683810Y-10445691D02*
X10712381Y-9759976D01*
X10293333Y-10674262D02*
X10293333Y-11055214D01*
X10521905Y-10598071D02*
X9721905Y-10864738D01*
X10521905Y-11131405D01*
X10521905Y-11398071D02*
X9721905Y-11398071D01*
X9721905Y-11588547D01*
X9760000Y-11702833D01*
X9836190Y-11779024D01*
X9912381Y-11817119D01*
X10064762Y-11855214D01*
X10179048Y-11855214D01*
X10331429Y-11817119D01*
X10407619Y-11779024D01*
X10483810Y-11702833D01*
X10521905Y-11588547D01*
X10521905Y-11398071D01*
X10445714Y-12655214D02*
X10483810Y-12617119D01*
X10521905Y-12502833D01*
X10521905Y-12426643D01*
X10483810Y-12312357D01*
X10407619Y-12236166D01*
X10331429Y-12198071D01*
X10179048Y-12159976D01*
X10064762Y-12159976D01*
X9912381Y-12198071D01*
X9836190Y-12236166D01*
X9760000Y-12312357D01*
X9721905Y-12426643D01*
X9721905Y-12502833D01*
X9760000Y-12617119D01*
X9798095Y-12655214D01*
X9683810Y-13569500D02*
X10712381Y-12883785D01*
X10521905Y-14293309D02*
X10140952Y-14026642D01*
X10521905Y-13836166D02*
X9721905Y-13836166D01*
X9721905Y-14140928D01*
X9760000Y-14217119D01*
X9798095Y-14255214D01*
X9874286Y-14293309D01*
X9988571Y-14293309D01*
X10064762Y-14255214D01*
X10102857Y-14217119D01*
X10140952Y-14140928D01*
X10140952Y-13836166D01*
X9721905Y-14559976D02*
X10521905Y-15093309D01*
X9721905Y-15093309D02*
X10521905Y-14559976D01*
X9798095Y-15359976D02*
X9760000Y-15398071D01*
X9721905Y-15474262D01*
X9721905Y-15664738D01*
X9760000Y-15740928D01*
X9798095Y-15779024D01*
X9874286Y-15817119D01*
X9950476Y-15817119D01*
X10064762Y-15779024D01*
X10521905Y-15321881D01*
X10521905Y-15817119D01*
X7981905Y-4191714D02*
X7181905Y-4191714D01*
X7181905Y-4496476D01*
X7220000Y-4572667D01*
X7258095Y-4610762D01*
X7334286Y-4648857D01*
X7448571Y-4648857D01*
X7524762Y-4610762D01*
X7562857Y-4572667D01*
X7600952Y-4496476D01*
X7600952Y-4191714D01*
X7753333Y-4953619D02*
X7753333Y-5334571D01*
X7981905Y-4877428D02*
X7181905Y-5144095D01*
X7981905Y-5410762D01*
X7258095Y-5639333D02*
X7220000Y-5677428D01*
X7181905Y-5753619D01*
X7181905Y-5944095D01*
X7220000Y-6020285D01*
X7258095Y-6058381D01*
X7334286Y-6096476D01*
X7410476Y-6096476D01*
X7524762Y-6058381D01*
X7981905Y-5601238D01*
X7981905Y-6096476D01*
X7143810Y-7010762D02*
X8172381Y-6325047D01*
X7981905Y-7277428D02*
X7181905Y-7277428D01*
X7181905Y-7582190D01*
X7220000Y-7658381D01*
X7258095Y-7696476D01*
X7334286Y-7734571D01*
X7448571Y-7734571D01*
X7524762Y-7696476D01*
X7562857Y-7658381D01*
X7600952Y-7582190D01*
X7600952Y-7277428D01*
X7181905Y-8001238D02*
X7981905Y-8191714D01*
X7410476Y-8344095D01*
X7981905Y-8496476D01*
X7181905Y-8686952D01*
X7981905Y-8991714D02*
X7181905Y-8991714D01*
X7753333Y-9258381D01*
X7181905Y-9525048D01*
X7981905Y-9525048D01*
X7143810Y-10477429D02*
X8172381Y-9791714D01*
X7753333Y-10706000D02*
X7753333Y-11086952D01*
X7981905Y-10629809D02*
X7181905Y-10896476D01*
X7981905Y-11163143D01*
X7981905Y-11429809D02*
X7181905Y-11429809D01*
X7181905Y-11620285D01*
X7220000Y-11734571D01*
X7296190Y-11810762D01*
X7372381Y-11848857D01*
X7524762Y-11886952D01*
X7639048Y-11886952D01*
X7791429Y-11848857D01*
X7867619Y-11810762D01*
X7943810Y-11734571D01*
X7981905Y-11620285D01*
X7981905Y-11429809D01*
X7905714Y-12686952D02*
X7943810Y-12648857D01*
X7981905Y-12534571D01*
X7981905Y-12458381D01*
X7943810Y-12344095D01*
X7867619Y-12267904D01*
X7791429Y-12229809D01*
X7639048Y-12191714D01*
X7524762Y-12191714D01*
X7372381Y-12229809D01*
X7296190Y-12267904D01*
X7220000Y-12344095D01*
X7181905Y-12458381D01*
X7181905Y-12534571D01*
X7220000Y-12648857D01*
X7258095Y-12686952D01*
X7143810Y-13601238D02*
X8172381Y-12915523D01*
X7181905Y-13753618D02*
X7181905Y-14210761D01*
X7981905Y-13982190D02*
X7181905Y-13982190D01*
X7181905Y-14401238D02*
X7981905Y-14934571D01*
X7181905Y-14934571D02*
X7981905Y-14401238D01*
X7258095Y-15201238D02*
X7220000Y-15239333D01*
X7181905Y-15315524D01*
X7181905Y-15506000D01*
X7220000Y-15582190D01*
X7258095Y-15620286D01*
X7334286Y-15658381D01*
X7410476Y-15658381D01*
X7524762Y-15620286D01*
X7981905Y-15163143D01*
X7981905Y-15658381D01*
X5441905Y-4153429D02*
X4641905Y-4153429D01*
X4641905Y-4458191D01*
X4680000Y-4534382D01*
X4718095Y-4572477D01*
X4794286Y-4610572D01*
X4908571Y-4610572D01*
X4984762Y-4572477D01*
X5022857Y-4534382D01*
X5060952Y-4458191D01*
X5060952Y-4153429D01*
X5213333Y-4915334D02*
X5213333Y-5296286D01*
X5441905Y-4839143D02*
X4641905Y-5105810D01*
X5441905Y-5372477D01*
X5441905Y-6058191D02*
X5441905Y-5601048D01*
X5441905Y-5829619D02*
X4641905Y-5829619D01*
X4756190Y-5753429D01*
X4832381Y-5677238D01*
X4870476Y-5601048D01*
X4603810Y-6972477D02*
X5632381Y-6286762D01*
X5441905Y-7239143D02*
X4641905Y-7239143D01*
X4641905Y-7543905D01*
X4680000Y-7620096D01*
X4718095Y-7658191D01*
X4794286Y-7696286D01*
X4908571Y-7696286D01*
X4984762Y-7658191D01*
X5022857Y-7620096D01*
X5060952Y-7543905D01*
X5060952Y-7239143D01*
X4641905Y-7962953D02*
X5441905Y-8153429D01*
X4870476Y-8305810D01*
X5441905Y-8458191D01*
X4641905Y-8648667D01*
X5441905Y-8953429D02*
X4641905Y-8953429D01*
X5213333Y-9220096D01*
X4641905Y-9486763D01*
X5441905Y-9486763D01*
X4603810Y-10439144D02*
X5632381Y-9753429D01*
X5213333Y-10667715D02*
X5213333Y-11048667D01*
X5441905Y-10591524D02*
X4641905Y-10858191D01*
X5441905Y-11124858D01*
X5441905Y-11391524D02*
X4641905Y-11391524D01*
X4641905Y-11582000D01*
X4680000Y-11696286D01*
X4756190Y-11772477D01*
X4832381Y-11810572D01*
X4984762Y-11848667D01*
X5099048Y-11848667D01*
X5251429Y-11810572D01*
X5327619Y-11772477D01*
X5403810Y-11696286D01*
X5441905Y-11582000D01*
X5441905Y-11391524D01*
X5365714Y-12648667D02*
X5403810Y-12610572D01*
X5441905Y-12496286D01*
X5441905Y-12420096D01*
X5403810Y-12305810D01*
X5327619Y-12229619D01*
X5251429Y-12191524D01*
X5099048Y-12153429D01*
X4984762Y-12153429D01*
X4832381Y-12191524D01*
X4756190Y-12229619D01*
X4680000Y-12305810D01*
X4641905Y-12420096D01*
X4641905Y-12496286D01*
X4680000Y-12610572D01*
X4718095Y-12648667D01*
X2901905Y-4153429D02*
X2101905Y-4153429D01*
X2101905Y-4458191D01*
X2140000Y-4534382D01*
X2178095Y-4572477D01*
X2254286Y-4610572D01*
X2368571Y-4610572D01*
X2444762Y-4572477D01*
X2482857Y-4534382D01*
X2520952Y-4458191D01*
X2520952Y-4153429D01*
X2673333Y-4915334D02*
X2673333Y-5296286D01*
X2901905Y-4839143D02*
X2101905Y-5105810D01*
X2901905Y-5372477D01*
X2101905Y-5791524D02*
X2101905Y-5867715D01*
X2140000Y-5943905D01*
X2178095Y-5982000D01*
X2254286Y-6020096D01*
X2406667Y-6058191D01*
X2597143Y-6058191D01*
X2749524Y-6020096D01*
X2825714Y-5982000D01*
X2863810Y-5943905D01*
X2901905Y-5867715D01*
X2901905Y-5791524D01*
X2863810Y-5715334D01*
X2825714Y-5677238D01*
X2749524Y-5639143D01*
X2597143Y-5601048D01*
X2406667Y-5601048D01*
X2254286Y-5639143D01*
X2178095Y-5677238D01*
X2140000Y-5715334D01*
X2101905Y-5791524D01*
X2063810Y-6972477D02*
X3092381Y-6286762D01*
X2901905Y-7239143D02*
X2101905Y-7239143D01*
X2101905Y-7543905D01*
X2140000Y-7620096D01*
X2178095Y-7658191D01*
X2254286Y-7696286D01*
X2368571Y-7696286D01*
X2444762Y-7658191D01*
X2482857Y-7620096D01*
X2520952Y-7543905D01*
X2520952Y-7239143D01*
X2101905Y-7962953D02*
X2901905Y-8153429D01*
X2330476Y-8305810D01*
X2901905Y-8458191D01*
X2101905Y-8648667D01*
X2901905Y-8953429D02*
X2101905Y-8953429D01*
X2673333Y-9220096D01*
X2101905Y-9486763D01*
X2901905Y-9486763D01*
X2063810Y-10439144D02*
X3092381Y-9753429D01*
X2673333Y-10667715D02*
X2673333Y-11048667D01*
X2901905Y-10591524D02*
X2101905Y-10858191D01*
X2901905Y-11124858D01*
X2901905Y-11391524D02*
X2101905Y-11391524D01*
X2101905Y-11582000D01*
X2140000Y-11696286D01*
X2216190Y-11772477D01*
X2292381Y-11810572D01*
X2444762Y-11848667D01*
X2559048Y-11848667D01*
X2711429Y-11810572D01*
X2787619Y-11772477D01*
X2863810Y-11696286D01*
X2901905Y-11582000D01*
X2901905Y-11391524D01*
X2825714Y-12648667D02*
X2863810Y-12610572D01*
X2901905Y-12496286D01*
X2901905Y-12420096D01*
X2863810Y-12305810D01*
X2787619Y-12229619D01*
X2711429Y-12191524D01*
X2559048Y-12153429D01*
X2444762Y-12153429D01*
X2292381Y-12191524D01*
X2216190Y-12229619D01*
X2140000Y-12305810D01*
X2101905Y-12420096D01*
X2101905Y-12496286D01*
X2140000Y-12610572D01*
X2178095Y-12648667D01*
M02*
